<svg width="400" height="400" viewBox="0 0 400 400" fill="none" xmlns="http://www.w3.org/2000/svg">
<g clip-path="url(#clip0_104_9)">
<path d="M-0.508121 539.516C-7.17754 409.353 55.6262 357.948 87.8617 348.516H281.275C361.308 348.516 344.884 463.912 356 527.578L-0.508121 539.516Z" fill="#F3E0C5"/>
<path d="M405.031 33.1826C351.51 -14.5657 300.993 37.2843 282.425 69.1778L392.482 163.099C418.966 139.689 458.551 80.9309 405.031 33.1826Z" fill="#F3E0C5"/>
<path d="M-11.0206 31.0554C39.8035 -19.5534 93.0854 29.4509 113.373 60.2792L8.62687 160.089C-19.099 138.165 -61.8447 81.6643 -11.0206 31.0554Z" fill="#F3E0C5"/>
<path d="M6.85208 66.064C-8.60823 81.6463 4.25285 97.3572 12.6163 103.265C32.6072 96.7483 69.4471 79.5134 56.8795 62.7068C44.312 45.9002 33.5527 46.9082 29.7842 48.5911C26.0158 50.2739 22.3124 50.4816 6.85208 66.064Z" fill="#4C391F" fill-opacity="0.3"/>
<path d="M382.957 66.064C398.417 81.6463 385.556 97.3572 377.192 103.265C357.201 96.7483 320.361 79.5134 332.929 62.7068C345.497 45.9002 356.256 46.9082 360.024 48.5911C363.793 50.2739 367.496 50.4816 382.957 66.064Z" fill="#4C391F" fill-opacity="0.3"/>
<path d="M413 181.537C413 279.843 357.487 372.516 194.65 372.516C39.2137 372.516 -20 279.843 -20 181.537C-20 83.2299 75.0799 16.5157 194.65 16.5157C314.219 16.5157 413 83.2299 413 181.537Z" fill="#F3E0C5"/>
<path d="M295.411 345.465C257.524 363.229 269.208 400.412 279.786 416.784C288.628 426.387 312.802 442.415 338.765 429.705C378.767 409.338 365.849 373.673 354.389 358.386C368.599 334.669 395.656 284.636 390.207 274.243C384.758 263.85 373.352 271.828 368.331 277.116C363.042 283.624 336.225 323.743 325.702 348.268C327.384 328.833 327.206 284.972 313.038 265.003C298.871 245.034 292.551 258.598 291.162 267.876L295.411 345.465Z" fill="#F3E0C5" stroke="#4C391F" stroke-opacity="0.6" stroke-width="4"/>
<ellipse cx="138" cy="200.016" rx="12" ry="16.5" fill="#4C391F"/>
<ellipse cx="251" cy="200.016" rx="12" ry="16.5" fill="#4C391F"/>
<path d="M156 232.516C168 245.344 201 263.304 237 232.516" stroke="#4C391F" stroke-width="4"/>
</g>
<defs>
<clipPath id="clip0_104_9">
<rect width="400" height="400" fill="white"/>
</clipPath>
</defs>
</svg>
