<svg xmlns="http://www.w3.org/2000/svg" width="493" height="349" fill="none"><path fill="#FFFAF4" stroke="#000" stroke-width="2" d="M1 1h491v346.373H1z"/><circle cx="24.808" cy="17.419" r="4.751" fill="#FFA8A8"/><circle cx="58.59" cy="17.419" r="4.751" fill="#7CC778"/><circle cx="41.699" cy="17.419" r="4.751" fill="#FFC97D"/><circle cx="41.699" cy="17.419" r="4.751" fill="#FFC97D"/><path fill="#fff" stroke="#000" d="M84.954 112.401h323.092v181.632H84.954z"/><path fill="#000" d="M207.232 88.418c-2 0-3.59-.44-4.77-1.32-1.18-.88-1.85-2.12-2.01-3.72h2.88c.14.88.54 1.56 1.2 2.04.68.46 1.6.69 2.76.69 1.02 0 1.8-.18 2.34-.54.54-.36.81-.87.81-1.53 0-.48-.16-.88-.48-1.2-.3-.34-.9-.62-1.8-.84l-2.46-.57c-1.54-.38-2.69-.94-3.45-1.68-.74-.76-1.11-1.69-1.11-2.79 0-1.38.51-2.46 1.53-3.24 1.04-.8 2.46-1.2 4.26-1.2 1.78 0 3.21.4 4.29 1.2 1.1.8 1.72 1.92 1.86 3.36h-2.88c-.12-.72-.47-1.27-1.05-1.65-.56-.4-1.33-.6-2.31-.6-.92 0-1.63.17-2.13.51-.48.32-.72.77-.72 1.35 0 .48.18.88.54 1.2.38.32 1 .59 1.86.81l2.52.63c1.46.36 2.56.95 3.3 1.77.74.8 1.11 1.77 1.11 2.91 0 1.38-.54 2.46-1.62 3.24-1.06.78-2.55 1.17-4.47 1.17Zm10.482-.3v-15.3h2.97v3.6h.15v11.7h-3.12Zm10.32 0v-9.99c0-1.04-.24-1.8-.72-2.28-.48-.48-1.17-.72-2.07-.72-.84 0-1.6.2-2.28.6-.66.38-1.18.92-1.56 1.62-.38.68-.57 1.49-.57 2.43l-.39-3.57c.5-1.14 1.25-2.04 2.25-2.7 1.02-.66 2.16-.99 3.42-.99 1.52 0 2.73.44 3.63 1.32.92.88 1.38 2.04 1.38 3.48v10.8h-3.09Zm10.32 0v-9.99c0-1.04-.25-1.8-.75-2.28-.48-.48-1.17-.72-2.07-.72-.82 0-1.57.2-2.25.6-.66.38-1.19.92-1.59 1.62-.38.68-.57 1.49-.57 2.43l-.63-3.57c.52-1.14 1.3-2.04 2.34-2.7 1.06-.66 2.24-.99 3.54-.99 1.54 0 2.77.45 3.69 1.35.92.88 1.38 2.06 1.38 3.54v10.71h-3.09Zm8.722 0v-15.3h3.12v15.3h-3.12Zm-.15-18.3v-3.51h3.45v3.51h-3.45Zm9.15 18.3v-21.6h3.12v21.6h-3.12Zm15.6.3c-1.54 0-2.9-.34-4.08-1.02a7.258 7.258 0 0 1-2.73-2.82c-.66-1.2-.99-2.58-.99-4.14 0-1.58.32-2.96.96-4.14a6.99 6.99 0 0 1 2.76-2.79c1.18-.66 2.53-.99 4.05-.99 1.48 0 2.76.32 3.84.96 1.1.62 1.94 1.49 2.52 2.61.6 1.12.9 2.45.9 3.99 0 .24-.01.47-.03.69 0 .2-.02.41-.06.63h-12.84v-2.34h10.65l-.78.93c0-1.64-.37-2.89-1.11-3.75-.74-.86-1.77-1.29-3.09-1.29-1.42 0-2.55.49-3.39 1.47-.82.96-1.23 2.3-1.23 4.02 0 1.74.41 3.1 1.23 4.08.84.98 2 1.47 3.48 1.47.9 0 1.68-.18 2.34-.54a3.48 3.48 0 0 0 1.47-1.65h2.94c-.5 1.44-1.35 2.57-2.55 3.39-1.18.82-2.6 1.23-4.26 1.23Zm12.175-7.23-.48-15.27h3.39l-.45 15.27h-2.46Zm-.63 6.93v-3.72h3.72v3.72h-3.72Z"/><path stroke="#000" stroke-width="2" d="M0 31.726h490.889"/><mask id="a" width="325" height="184" x="84" y="110" maskUnits="userSpaceOnUse" style="mask-type:alpha"><path fill="#fff" stroke="#000" d="M84.954 111.401h323.092v181.632H84.954z"/></mask><g mask="url(#a)"><path fill="#F3E0C5" d="M176.474 320.925c-2.388-46.043 20.102-64.227 31.645-67.563h69.262c28.66 0 43.786 45.042 47.767 67.563H176.474ZM319.61 141.921c-18.928-16.887-36.795 1.451-43.362 12.731l38.924 33.217c9.367-8.279 23.367-29.06 4.438-45.948ZM172.464 141.169c17.975-17.899 36.82-.567 43.995 10.336l-37.046 35.3c-9.806-7.754-24.924-27.737-6.949-45.636Z"/><path fill="#4C391F" fill-opacity=".3" d="M178.786 153.551c-5.468 5.511-.92 11.067 2.038 13.157 7.07-2.305 20.1-8.401 15.655-14.345-4.445-5.944-8.25-5.587-9.583-4.992-1.333.595-2.643.669-8.11 6.18ZM311.804 153.551c5.467 5.511.919 11.067-2.039 13.157-7.07-2.305-20.1-8.401-15.655-14.345 4.445-5.944 8.25-5.587 9.583-4.992 1.333.595 2.643.669 8.111 6.18Z"/><path fill="#F3E0C5" d="M322.329 194.415c0 34.69-19.625 67.392-77.191 67.392-54.949 0-75.882-32.702-75.882-67.392 0-34.691 33.612-58.233 75.882-58.233s77.191 23.542 77.191 58.233Z"/><path fill="#F3E0C5" stroke="#4C391F" stroke-opacity=".6" stroke-width="1.5" d="M284.02 278.987c-14.743 6.913-10.196 21.383-6.08 27.754 3.441 3.737 12.848 9.974 22.952 5.028 15.567-7.926 10.539-21.805 6.08-27.754 5.53-9.229 16.059-28.7 13.939-32.744-2.121-4.044-6.559-.94-8.514 1.118-2.058 2.532-12.494 18.145-16.589 27.689.655-7.563.586-24.632-4.928-32.403-5.513-7.771-7.972-2.492-8.513 1.118l1.653 30.194Z"/><ellipse cx="225.207" cy="201.106" fill="#4C391F" rx="4.223" ry="5.806"/><ellipse cx="265.322" cy="201.106" fill="#4C391F" rx="4.223" ry="5.806"/><path stroke="#4C391F" stroke-width="2" d="M231.541 212.191c4.222 4.779 15.835 11.471 28.503 0"/><rect width="36.949" height="22.169" x="228.026" y="262.863" fill="#FDB5CF" rx="11.085"/><circle cx="246.5" cy="275.109" r="1.761" stroke="#000" stroke-width=".7"/><path stroke="#000" d="M239.645 272.716c0-1.877 1.829-1.955 2.743-1.76l1.899-1.759h4.01l1.266 1.564c2.701-.469 3.658.195 3.799.586v6.061c0 1.564-.704 2.215-1.055 2.346h-9.919c-2.363 0-2.814-.522-2.743-.782v-6.256Z"/></g></svg>