<svg width="493" height="349" viewBox="0 0 493 349" fill="none" xmlns="http://www.w3.org/2000/svg">
<rect x="1.00024" y="1" width="491" height="346.373" fill="#FFFAF4" stroke="black" stroke-width="2"/>
<circle cx="24.8084" cy="17.4186" r="4.75054" fill="#FFA8A8"/>
<circle cx="58.5899" cy="17.4186" r="4.75054" fill="#7CC778"/>
<circle cx="41.6993" cy="17.4186" r="4.75054" fill="#FFC97D"/>
<circle cx="41.6993" cy="17.4186" r="4.75054" fill="#FFC97D"/>
<rect x="84.9539" y="112.401" width="323.092" height="181.632" fill="white" stroke="black"/>
<path d="M207.232 88.4178C205.232 88.4178 203.642 87.9778 202.462 87.0978C201.282 86.2178 200.612 84.9778 200.452 83.3778H203.332C203.472 84.2578 203.872 84.9378 204.532 85.4178C205.212 85.8778 206.132 86.1078 207.292 86.1078C208.312 86.1078 209.092 85.9278 209.632 85.5678C210.172 85.2078 210.442 84.6978 210.442 84.0378C210.442 83.5578 210.282 83.1578 209.962 82.8378C209.662 82.4978 209.062 82.2178 208.162 81.9978L205.702 81.4278C204.162 81.0478 203.012 80.4878 202.252 79.7478C201.512 78.9878 201.142 78.0578 201.142 76.9578C201.142 75.5778 201.652 74.4978 202.672 73.7178C203.712 72.9178 205.132 72.5178 206.932 72.5178C208.712 72.5178 210.142 72.9178 211.222 73.7178C212.322 74.5178 212.942 75.6378 213.082 77.0778H210.202C210.082 76.3578 209.732 75.8078 209.152 75.4278C208.592 75.0278 207.822 74.8278 206.842 74.8278C205.922 74.8278 205.212 74.9978 204.712 75.3378C204.232 75.6578 203.992 76.1078 203.992 76.6878C203.992 77.1678 204.172 77.5678 204.532 77.8878C204.912 78.2078 205.532 78.4778 206.392 78.6978L208.912 79.3278C210.372 79.6878 211.472 80.2778 212.212 81.0978C212.952 81.8978 213.322 82.8678 213.322 84.0078C213.322 85.3878 212.782 86.4678 211.702 87.2478C210.642 88.0278 209.152 88.4178 207.232 88.4178ZM217.714 88.1178V72.8178H220.684V76.4178H220.834V88.1178H217.714ZM228.034 88.1178V78.1278C228.034 77.0878 227.794 76.3278 227.314 75.8478C226.834 75.3678 226.144 75.1278 225.244 75.1278C224.404 75.1278 223.644 75.3278 222.964 75.7278C222.304 76.1078 221.784 76.6478 221.404 77.3478C221.024 78.0278 220.834 78.8378 220.834 79.7778L220.444 76.2078C220.944 75.0678 221.694 74.1678 222.694 73.5078C223.714 72.8478 224.854 72.5178 226.114 72.5178C227.634 72.5178 228.844 72.9578 229.744 73.8378C230.664 74.7178 231.124 75.8778 231.124 77.3178V88.1178H228.034ZM238.354 88.1178V78.1278C238.354 77.0878 238.104 76.3278 237.604 75.8478C237.124 75.3678 236.434 75.1278 235.534 75.1278C234.714 75.1278 233.964 75.3278 233.284 75.7278C232.624 76.1078 232.094 76.6478 231.694 77.3478C231.314 78.0278 231.124 78.8378 231.124 79.7778L230.494 76.2078C231.014 75.0678 231.794 74.1678 232.834 73.5078C233.894 72.8478 235.074 72.5178 236.374 72.5178C237.914 72.5178 239.144 72.9678 240.064 73.8678C240.984 74.7478 241.444 75.9278 241.444 77.4078V88.1178H238.354ZM247.076 88.1178V72.8178H250.196V88.1178H247.076ZM246.926 69.8178V66.3078H250.376V69.8178H246.926ZM256.076 88.1178V66.5178H259.196V88.1178H256.076ZM271.676 88.4178C270.136 88.4178 268.776 88.0778 267.596 87.3978C266.436 86.7178 265.526 85.7778 264.866 84.5778C264.206 83.3778 263.876 81.9978 263.876 80.4378C263.876 78.8578 264.196 77.4778 264.836 76.2978C265.496 75.0978 266.416 74.1678 267.596 73.5078C268.776 72.8478 270.126 72.5178 271.646 72.5178C273.126 72.5178 274.406 72.8378 275.486 73.4778C276.586 74.0978 277.426 74.9678 278.006 76.0878C278.606 77.2078 278.906 78.5378 278.906 80.0778C278.906 80.3178 278.896 80.5478 278.876 80.7678C278.876 80.9678 278.856 81.1778 278.816 81.3978H265.976V79.0578H276.626L275.846 79.9878C275.846 78.3478 275.476 77.0978 274.736 76.2378C273.996 75.3778 272.966 74.9478 271.646 74.9478C270.226 74.9478 269.096 75.4378 268.256 76.4178C267.436 77.3778 267.026 78.7178 267.026 80.4378C267.026 82.1778 267.436 83.5378 268.256 84.5178C269.096 85.4978 270.256 85.9878 271.736 85.9878C272.636 85.9878 273.416 85.8078 274.076 85.4478C274.736 85.0678 275.226 84.5178 275.546 83.7978H278.486C277.986 85.2378 277.136 86.3678 275.936 87.1878C274.756 88.0078 273.336 88.4178 271.676 88.4178ZM283.851 81.1878L283.371 65.9178H286.761L286.311 81.1878H283.851ZM283.221 88.1178V84.3978H286.941V88.1178H283.221Z" fill="black"/>
<path d="M467.525 20.6124L465.26 17.2524L462.005 12.9624H464.525L466.55 15.9774L470.045 20.6124H467.525ZM465.44 15.8574L467.465 12.9624H469.925L466.505 17.4324L465.44 15.8574ZM466.31 17.5524L464.135 20.6124H461.69L465.245 15.9774L466.31 17.5524Z" fill="black"/>
<line x1="8.74228e-08" y1="31.7259" x2="490.889" y2="31.726" stroke="black" stroke-width="2"/>
<mask id="mask0_44_755" style="mask-type:alpha" maskUnits="userSpaceOnUse" x="84" y="110" width="325" height="184">
<rect x="84.9541" y="111.401" width="323.092" height="181.632" fill="white" stroke="black"/>
</mask>
<g mask="url(#mask0_44_755)">
<path d="M176.474 320.925C174.086 274.882 196.576 256.698 208.119 253.362H277.381C306.041 253.362 321.167 298.404 325.148 320.925H176.474Z" fill="#F3E0C5"/>
<path d="M319.61 141.921C300.682 125.034 282.815 143.372 276.248 154.652L315.172 187.869C324.539 179.59 338.539 158.809 319.61 141.921Z" fill="#F3E0C5"/>
<path d="M172.464 141.169C190.439 123.27 209.284 140.602 216.459 151.505L179.413 186.805C169.607 179.051 154.489 159.068 172.464 141.169Z" fill="#F3E0C5"/>
<path d="M178.786 153.551C173.318 159.062 177.866 164.618 180.824 166.708C187.894 164.403 200.924 158.307 196.479 152.363C192.034 146.419 188.229 146.776 186.896 147.371C185.563 147.966 184.253 148.04 178.786 153.551Z" fill="#4C391F" fill-opacity="0.3"/>
<path d="M311.804 153.551C317.271 159.062 312.723 164.618 309.765 166.708C302.695 164.403 289.665 158.307 294.11 152.363C298.555 146.419 302.36 146.776 303.693 147.371C305.026 147.966 306.336 148.04 311.804 153.551Z" fill="#4C391F" fill-opacity="0.3"/>
<path d="M322.329 194.415C322.329 229.105 302.704 261.807 245.138 261.807C190.189 261.807 169.256 229.105 169.256 194.415C169.256 159.724 202.868 136.182 245.138 136.182C287.408 136.182 322.329 159.724 322.329 194.415Z" fill="#F3E0C5"/>
<path d="M284.02 278.987C269.277 285.9 273.824 300.37 277.94 306.741C281.381 310.478 290.788 316.715 300.892 311.769C316.459 303.843 311.431 289.964 306.972 284.015C312.502 274.786 323.031 255.315 320.911 251.271C318.79 247.227 314.352 250.331 312.397 252.389C310.339 254.921 299.903 270.534 295.808 280.078C296.463 272.515 296.394 255.446 290.88 247.675C285.367 239.904 282.908 245.183 282.367 248.793L284.02 278.987Z" fill="#F3E0C5" stroke="#4C391F" stroke-opacity="0.6" stroke-width="1.5"/>
<ellipse cx="225.207" cy="201.106" rx="4.2227" ry="5.80621" fill="#4C391F"/>
<ellipse cx="265.322" cy="201.106" rx="4.2227" ry="5.80621" fill="#4C391F"/>
<path d="M231.541 212.191C235.763 216.97 247.376 223.662 260.044 212.191" stroke="#4C391F" stroke-width="2"/>
<rect x="228.026" y="262.863" width="36.9486" height="22.1692" rx="11.0846" fill="#FDB5CF"/>
<circle cx="246.5" cy="275.109" r="1.76135" stroke="black" stroke-width="0.7"/>
<path d="M239.645 272.716C239.645 270.839 241.474 270.761 242.388 270.956L244.287 269.197H248.297L249.563 270.761C252.264 270.292 253.221 270.956 253.362 271.347V277.408C253.362 278.972 252.658 279.623 252.307 279.754H242.388C240.025 279.754 239.574 279.232 239.645 278.972V272.716Z" stroke="black"/>
</g>
</svg>
