<svg width="315" height="222" viewBox="0 0 315 222" fill="none" xmlns="http://www.w3.org/2000/svg">
<rect x="1.00024" y="1" width="312.164" height="220" fill="#FFFAF4" stroke="black" stroke-width="2"/>
<circle cx="15.8088" cy="11.1" r="3.02727" fill="#FFA8A8"/>
<circle cx="37.3364" cy="11.1" r="3.02727" fill="#7CC778"/>
<circle cx="26.5727" cy="11.1" r="3.02727" fill="#FFC97D"/>
<circle cx="26.5727" cy="11.1" r="3.02727" fill="#FFC97D"/>
<path d="M58.554 55.18C57.426 55.18 56.526 54.922 55.854 54.406C55.182 53.878 54.798 53.134 54.702 52.174H56.088C56.172 52.762 56.43 53.212 56.862 53.524C57.294 53.836 57.87 53.992 58.59 53.992C59.226 53.992 59.724 53.872 60.084 53.632C60.444 53.392 60.624 53.05 60.624 52.606C60.624 52.294 60.522 52.024 60.318 51.796C60.114 51.556 59.706 51.358 59.094 51.202L57.618 50.824C56.778 50.608 56.148 50.278 55.728 49.834C55.308 49.378 55.098 48.838 55.098 48.214C55.098 47.422 55.392 46.798 55.98 46.342C56.568 45.874 57.366 45.64 58.374 45.64C59.37 45.64 60.18 45.88 60.804 46.36C61.428 46.84 61.782 47.506 61.866 48.358H60.48C60.396 47.866 60.168 47.488 59.796 47.224C59.424 46.96 58.932 46.828 58.32 46.828C57.732 46.828 57.276 46.942 56.952 47.17C56.628 47.386 56.466 47.698 56.466 48.106C56.466 48.418 56.58 48.688 56.808 48.916C57.048 49.144 57.444 49.336 57.996 49.492L59.436 49.888C60.288 50.116 60.93 50.464 61.362 50.932C61.794 51.4 62.01 51.964 62.01 52.624C62.01 53.428 61.704 54.058 61.092 54.514C60.48 54.958 59.634 55.18 58.554 55.18ZM68.5198 55.162C67.4998 55.162 66.7558 54.934 66.2878 54.478C65.8318 54.01 65.6038 53.338 65.6038 52.462V43.678L67.0438 43.138V52.444C67.0438 52.96 67.1758 53.338 67.4398 53.578C67.7038 53.818 68.1358 53.938 68.7358 53.938C68.9758 53.938 69.1798 53.926 69.3478 53.902C69.5278 53.866 69.6718 53.824 69.7798 53.776V55C69.6598 55.048 69.4858 55.084 69.2578 55.108C69.0418 55.144 68.7958 55.162 68.5198 55.162ZM63.7138 47.044V45.82H69.7798V47.044H63.7138ZM76.1016 55.18C75.2256 55.18 74.4516 54.976 73.7796 54.568C73.1076 54.148 72.5796 53.578 72.1956 52.858C71.8116 52.138 71.6196 51.31 71.6196 50.374C71.6196 49.438 71.8056 48.616 72.1776 47.908C72.5616 47.188 73.0956 46.63 73.7796 46.234C74.4636 45.838 75.2496 45.64 76.1376 45.64C76.9896 45.64 77.7276 45.826 78.3516 46.198C78.9876 46.57 79.4736 47.092 79.8096 47.764C80.1576 48.436 80.3316 49.228 80.3316 50.14C80.3316 50.26 80.3256 50.374 80.3136 50.482C80.3136 50.59 80.3016 50.71 80.2776 50.842H72.6996V49.636H79.3956L78.9276 50.302C78.9276 49.198 78.6816 48.352 78.1896 47.764C77.7096 47.164 77.0256 46.864 76.1376 46.864C75.2256 46.864 74.4876 47.182 73.9236 47.818C73.3716 48.442 73.0956 49.288 73.0956 50.356C73.0956 51.448 73.3716 52.324 73.9236 52.984C74.4876 53.632 75.2376 53.956 76.1736 53.956C76.7616 53.956 77.2776 53.83 77.7216 53.578C78.1656 53.314 78.4896 52.942 78.6936 52.462H80.0616C79.7616 53.302 79.2576 53.968 78.5496 54.46C77.8536 54.94 77.0376 55.18 76.1016 55.18ZM87.9358 55.162C87.0718 55.162 86.3458 54.952 85.7578 54.532C85.1698 54.112 84.7678 53.518 84.5518 52.75L84.8398 52.714V58.69H83.3998V45.82H84.7498V47.962L84.5518 47.908C84.7798 47.2 85.2118 46.648 85.8478 46.252C86.4838 45.844 87.2218 45.64 88.0618 45.64C88.8778 45.64 89.5858 45.838 90.1858 46.234C90.7978 46.63 91.2718 47.182 91.6078 47.89C91.9438 48.598 92.1118 49.426 92.1118 50.374C92.1118 51.334 91.9378 52.174 91.5898 52.894C91.2418 53.614 90.7558 54.172 90.1318 54.568C89.5078 54.964 88.7758 55.162 87.9358 55.162ZM87.7198 53.902C88.6318 53.902 89.3458 53.59 89.8618 52.966C90.3778 52.33 90.6358 51.466 90.6358 50.374C90.6358 49.294 90.3778 48.448 89.8618 47.836C89.3458 47.212 88.6318 46.9 87.7198 46.9C86.8078 46.9 86.0878 47.218 85.5598 47.854C85.0318 48.478 84.7678 49.336 84.7678 50.428C84.7678 51.496 85.0318 52.342 85.5598 52.966C86.0878 53.59 86.8078 53.902 87.7198 53.902ZM102.329 55V43.516L102.707 43.606C102.563 43.93 102.287 44.254 101.879 44.578C101.471 44.902 100.997 45.184 100.457 45.424C99.9293 45.664 99.3833 45.826 98.8193 45.91V44.524C99.3833 44.428 99.9233 44.26 100.439 44.02C100.955 43.78 101.411 43.492 101.807 43.156C102.215 42.808 102.515 42.436 102.707 42.04H103.769V55H102.329ZM107.157 55V53.146H109.011V55H107.157ZM107.157 48.16V46.306H109.011V48.16H107.157ZM120.334 55.18C119.206 55.18 118.306 54.922 117.634 54.406C116.962 53.878 116.578 53.134 116.482 52.174H117.868C117.952 52.762 118.21 53.212 118.642 53.524C119.074 53.836 119.65 53.992 120.37 53.992C121.006 53.992 121.504 53.872 121.864 53.632C122.224 53.392 122.404 53.05 122.404 52.606C122.404 52.294 122.302 52.024 122.098 51.796C121.894 51.556 121.486 51.358 120.874 51.202L119.398 50.824C118.558 50.608 117.928 50.278 117.508 49.834C117.088 49.378 116.878 48.838 116.878 48.214C116.878 47.422 117.172 46.798 117.76 46.342C118.348 45.874 119.146 45.64 120.154 45.64C121.15 45.64 121.96 45.88 122.584 46.36C123.208 46.84 123.562 47.506 123.646 48.358H122.26C122.176 47.866 121.948 47.488 121.576 47.224C121.204 46.96 120.712 46.828 120.1 46.828C119.512 46.828 119.056 46.942 118.732 47.17C118.408 47.386 118.246 47.698 118.246 48.106C118.246 48.418 118.36 48.688 118.588 48.916C118.828 49.144 119.224 49.336 119.776 49.492L121.216 49.888C122.068 50.116 122.71 50.464 123.142 50.932C123.574 51.4 123.79 51.964 123.79 52.624C123.79 53.428 123.484 54.058 122.872 54.514C122.26 54.958 121.414 55.18 120.334 55.18ZM130.706 55.18C129.83 55.18 129.056 54.976 128.384 54.568C127.712 54.148 127.184 53.578 126.8 52.858C126.416 52.138 126.224 51.31 126.224 50.374C126.224 49.438 126.41 48.616 126.782 47.908C127.166 47.188 127.7 46.63 128.384 46.234C129.068 45.838 129.854 45.64 130.742 45.64C131.594 45.64 132.332 45.826 132.956 46.198C133.592 46.57 134.078 47.092 134.414 47.764C134.762 48.436 134.936 49.228 134.936 50.14C134.936 50.26 134.93 50.374 134.918 50.482C134.918 50.59 134.906 50.71 134.882 50.842H127.304V49.636H134L133.532 50.302C133.532 49.198 133.286 48.352 132.794 47.764C132.314 47.164 131.63 46.864 130.742 46.864C129.83 46.864 129.092 47.182 128.528 47.818C127.976 48.442 127.7 49.288 127.7 50.356C127.7 51.448 127.976 52.324 128.528 52.984C129.092 53.632 129.842 53.956 130.778 53.956C131.366 53.956 131.882 53.83 132.326 53.578C132.77 53.314 133.094 52.942 133.298 52.462H134.666C134.366 53.302 133.862 53.968 133.154 54.46C132.458 54.94 131.642 55.18 130.706 55.18ZM138.004 55V42.04H139.444V55H138.004ZM146.991 55.18C146.115 55.18 145.341 54.976 144.669 54.568C143.997 54.148 143.469 53.578 143.085 52.858C142.701 52.138 142.509 51.31 142.509 50.374C142.509 49.438 142.695 48.616 143.067 47.908C143.451 47.188 143.985 46.63 144.669 46.234C145.353 45.838 146.139 45.64 147.027 45.64C147.879 45.64 148.617 45.826 149.241 46.198C149.877 46.57 150.363 47.092 150.699 47.764C151.047 48.436 151.221 49.228 151.221 50.14C151.221 50.26 151.215 50.374 151.203 50.482C151.203 50.59 151.191 50.71 151.167 50.842H143.589V49.636H150.285L149.817 50.302C149.817 49.198 149.571 48.352 149.079 47.764C148.599 47.164 147.915 46.864 147.027 46.864C146.115 46.864 145.377 47.182 144.813 47.818C144.261 48.442 143.985 49.288 143.985 50.356C143.985 51.448 144.261 52.324 144.813 52.984C145.377 53.632 146.127 53.956 147.063 53.956C147.651 53.956 148.167 53.83 148.611 53.578C149.055 53.314 149.379 52.942 149.583 52.462H150.951C150.651 53.302 150.147 53.968 149.439 54.46C148.743 54.94 147.927 55.18 146.991 55.18ZM157.925 55.18C157.085 55.18 156.335 54.976 155.675 54.568C155.027 54.148 154.511 53.578 154.127 52.858C153.755 52.126 153.569 51.298 153.569 50.374C153.569 49.45 153.755 48.634 154.127 47.926C154.511 47.218 155.027 46.66 155.675 46.252C156.335 45.844 157.079 45.64 157.907 45.64C158.591 45.64 159.203 45.772 159.743 46.036C160.295 46.3 160.745 46.678 161.093 47.17C161.453 47.65 161.681 48.214 161.777 48.862H160.445C160.325 48.274 160.049 47.794 159.617 47.422C159.185 47.05 158.627 46.864 157.943 46.864C157.355 46.864 156.845 47.008 156.413 47.296C155.981 47.584 155.645 47.992 155.405 48.52C155.165 49.048 155.045 49.666 155.045 50.374C155.045 51.082 155.165 51.706 155.405 52.246C155.645 52.786 155.981 53.206 156.413 53.506C156.857 53.806 157.373 53.956 157.961 53.956C158.621 53.956 159.173 53.776 159.617 53.416C160.061 53.044 160.343 52.564 160.463 51.976H161.795C161.687 52.612 161.447 53.176 161.075 53.668C160.715 54.148 160.265 54.52 159.725 54.784C159.185 55.048 158.585 55.18 157.925 55.18ZM168.423 55.162C167.403 55.162 166.659 54.934 166.191 54.478C165.735 54.01 165.507 53.338 165.507 52.462V43.678L166.947 43.138V52.444C166.947 52.96 167.079 53.338 167.343 53.578C167.607 53.818 168.039 53.938 168.639 53.938C168.879 53.938 169.083 53.926 169.251 53.902C169.431 53.866 169.575 53.824 169.683 53.776V55C169.563 55.048 169.389 55.084 169.161 55.108C168.945 55.144 168.699 55.162 168.423 55.162ZM163.617 47.044V45.82H169.683V47.044H163.617ZM182.574 55C182.526 54.796 182.49 54.562 182.466 54.298C182.454 54.034 182.448 53.698 182.448 53.29H182.358V48.898C182.358 48.202 182.196 47.692 181.872 47.368C181.56 47.032 181.05 46.864 180.342 46.864C179.646 46.864 179.088 47.008 178.668 47.296C178.26 47.572 178.032 47.968 177.984 48.484H176.598C176.658 47.596 177.03 46.9 177.714 46.396C178.398 45.892 179.292 45.64 180.396 45.64C181.536 45.64 182.382 45.91 182.934 46.45C183.486 46.99 183.762 47.8 183.762 48.88V53.29C183.762 53.554 183.78 53.83 183.816 54.118C183.852 54.394 183.9 54.688 183.96 55H182.574ZM179.424 55.18C178.476 55.18 177.72 54.952 177.156 54.496C176.604 54.028 176.328 53.392 176.328 52.588C176.328 51.784 176.604 51.16 177.156 50.716C177.708 50.272 178.512 49.96 179.568 49.78L182.772 49.24V50.428L179.784 50.896C179.112 51.004 178.602 51.184 178.254 51.436C177.906 51.688 177.732 52.054 177.732 52.534C177.732 53.002 177.888 53.356 178.2 53.596C178.524 53.836 178.998 53.956 179.622 53.956C180.426 53.956 181.08 53.776 181.584 53.416C182.1 53.044 182.358 52.564 182.358 51.976L182.592 53.254C182.4 53.866 182.022 54.34 181.458 54.676C180.906 55.012 180.228 55.18 179.424 55.18ZM192.697 55V44.524C192.697 43.684 192.937 43.03 193.417 42.562C193.909 42.094 194.653 41.86 195.649 41.86C195.889 41.86 196.075 41.872 196.207 41.896C196.351 41.92 196.471 41.95 196.567 41.986V43.12C196.483 43.096 196.363 43.072 196.207 43.048C196.063 43.024 195.907 43.012 195.739 43.012C195.187 43.012 194.779 43.15 194.515 43.426C194.263 43.702 194.137 44.092 194.137 44.596V55H192.697ZM190.807 47.044V45.82H196.369V47.044H190.807ZM199.204 55V45.82H200.554V48.16H200.644V55H199.204ZM200.644 50.212L200.41 48.034C200.626 47.254 201.01 46.66 201.562 46.252C202.114 45.844 202.75 45.64 203.47 45.64C203.77 45.64 203.974 45.664 204.082 45.712V47.098C204.022 47.074 203.938 47.062 203.83 47.062C203.722 47.05 203.59 47.044 203.434 47.044C202.522 47.044 201.826 47.32 201.346 47.872C200.878 48.412 200.644 49.192 200.644 50.212ZM212.225 55C212.177 54.796 212.141 54.562 212.117 54.298C212.105 54.034 212.099 53.698 212.099 53.29H212.009V48.898C212.009 48.202 211.847 47.692 211.523 47.368C211.211 47.032 210.701 46.864 209.993 46.864C209.297 46.864 208.739 47.008 208.319 47.296C207.911 47.572 207.683 47.968 207.635 48.484H206.249C206.309 47.596 206.681 46.9 207.365 46.396C208.049 45.892 208.943 45.64 210.047 45.64C211.187 45.64 212.033 45.91 212.585 46.45C213.137 46.99 213.413 47.8 213.413 48.88V53.29C213.413 53.554 213.431 53.83 213.467 54.118C213.503 54.394 213.551 54.688 213.611 55H212.225ZM209.075 55.18C208.127 55.18 207.371 54.952 206.807 54.496C206.255 54.028 205.979 53.392 205.979 52.588C205.979 51.784 206.255 51.16 206.807 50.716C207.359 50.272 208.163 49.96 209.219 49.78L212.423 49.24V50.428L209.435 50.896C208.763 51.004 208.253 51.184 207.905 51.436C207.557 51.688 207.383 52.054 207.383 52.534C207.383 53.002 207.539 53.356 207.851 53.596C208.175 53.836 208.649 53.956 209.273 53.956C210.077 53.956 210.731 53.776 211.235 53.416C211.751 53.044 212.009 52.564 212.009 51.976L212.243 53.254C212.051 53.866 211.673 54.34 211.109 54.676C210.557 55.012 209.879 55.18 209.075 55.18ZM217.088 55V45.82H218.438V47.98H218.528V55H217.088ZM223.28 55V48.916C223.28 48.22 223.124 47.71 222.812 47.386C222.5 47.062 222.05 46.9 221.462 46.9C220.91 46.9 220.412 47.032 219.968 47.296C219.524 47.56 219.17 47.926 218.906 48.394C218.654 48.862 218.528 49.408 218.528 50.032L218.294 47.854C218.606 47.17 219.074 46.63 219.698 46.234C220.322 45.838 221 45.64 221.732 45.64C222.62 45.64 223.34 45.904 223.892 46.432C224.444 46.948 224.72 47.65 224.72 48.538V55H223.28ZM229.472 55V48.916C229.472 48.22 229.316 47.71 229.004 47.386C228.692 47.062 228.242 46.9 227.654 46.9C227.102 46.9 226.604 47.032 226.16 47.296C225.716 47.56 225.362 47.926 225.098 48.394C224.846 48.862 224.72 49.408 224.72 50.032L224.36 47.854C224.672 47.17 225.152 46.63 225.8 46.234C226.448 45.838 227.144 45.64 227.888 45.64C228.776 45.64 229.502 45.904 230.066 46.432C230.63 46.948 230.912 47.65 230.912 48.538V55H229.472ZM238.344 55.18C237.468 55.18 236.694 54.976 236.022 54.568C235.35 54.148 234.822 53.578 234.438 52.858C234.054 52.138 233.862 51.31 233.862 50.374C233.862 49.438 234.048 48.616 234.42 47.908C234.804 47.188 235.338 46.63 236.022 46.234C236.706 45.838 237.492 45.64 238.38 45.64C239.232 45.64 239.97 45.826 240.594 46.198C241.23 46.57 241.716 47.092 242.052 47.764C242.4 48.436 242.574 49.228 242.574 50.14C242.574 50.26 242.568 50.374 242.556 50.482C242.556 50.59 242.544 50.71 242.52 50.842H234.942V49.636H241.638L241.17 50.302C241.17 49.198 240.924 48.352 240.432 47.764C239.952 47.164 239.268 46.864 238.38 46.864C237.468 46.864 236.73 47.182 236.166 47.818C235.614 48.442 235.338 49.288 235.338 50.356C235.338 51.448 235.614 52.324 236.166 52.984C236.73 53.632 237.48 53.956 238.416 53.956C239.004 53.956 239.52 53.83 239.964 53.578C240.408 53.314 240.732 52.942 240.936 52.462H242.304C242.004 53.302 241.5 53.968 240.792 54.46C240.096 54.94 239.28 55.18 238.344 55.18Z" fill="black"/>
<path d="M300.177 16.4L297.912 13.04L294.657 8.75002H297.177L299.202 11.765L302.697 16.4H300.177ZM298.092 11.645L300.117 8.75002H302.577L299.157 13.22L298.092 11.645ZM298.962 13.34L296.787 16.4H294.342L297.897 11.765L298.962 13.34Z" fill="black"/>
<line x1="8.74228e-08" y1="19.8546" x2="312.818" y2="19.8546" stroke="black" stroke-width="2"/>
<rect x="55" y="71" width="43" height="92" fill="#FDB5CF"/>
<rect x="106" y="71" width="43" height="92" fill="#A1E3F5"/>
<path d="M68.2545 157V154.09C68.2545 153.857 68.3212 153.675 68.4545 153.545C68.5912 153.415 68.7979 153.35 69.0745 153.35C69.1412 153.35 69.1929 153.353 69.2295 153.36C69.2695 153.367 69.3029 153.375 69.3295 153.385V153.7C69.3062 153.693 69.2729 153.687 69.2295 153.68C69.1895 153.673 69.1462 153.67 69.0995 153.67C68.9462 153.67 68.8329 153.708 68.7595 153.785C68.6895 153.862 68.6545 153.97 68.6545 154.11V157H68.2545ZM67.7295 154.79V154.45H69.2745V154.79H67.7295ZM71.0245 157.05C70.7745 157.05 70.5545 156.992 70.3645 156.875C70.1745 156.758 70.0261 156.6 69.9195 156.4C69.8161 156.197 69.7645 155.968 69.7645 155.715C69.7645 155.458 69.8178 155.232 69.9245 155.035C70.0311 154.838 70.1778 154.683 70.3645 154.57C70.5545 154.457 70.7745 154.4 71.0245 154.4C71.2778 154.4 71.4978 154.457 71.6845 154.57C71.8745 154.683 72.0211 154.838 72.1245 155.035C72.2311 155.232 72.2845 155.458 72.2845 155.715C72.2845 155.968 72.2311 156.197 72.1245 156.4C72.0211 156.6 71.8745 156.758 71.6845 156.875C71.4978 156.992 71.2778 157.05 71.0245 157.05ZM71.0245 156.71C71.1978 156.71 71.3478 156.668 71.4745 156.585C71.6011 156.498 71.6995 156.38 71.7695 156.23C71.8395 156.08 71.8745 155.907 71.8745 155.71C71.8745 155.417 71.7961 155.182 71.6395 155.005C71.4861 154.828 71.2811 154.74 71.0245 154.74C70.7711 154.74 70.5661 154.828 70.4095 155.005C70.2528 155.182 70.1745 155.417 70.1745 155.71C70.1745 155.907 70.2095 156.08 70.2795 156.23C70.3495 156.38 70.4478 156.498 70.5745 156.585C70.7045 156.668 70.8545 156.71 71.0245 156.71ZM74.13 157.045C73.8466 157.045 73.64 156.982 73.51 156.855C73.3833 156.725 73.32 156.538 73.32 156.295V153.855L73.72 153.705V156.29C73.72 156.433 73.7566 156.538 73.83 156.605C73.9033 156.672 74.0233 156.705 74.19 156.705C74.2566 156.705 74.3133 156.702 74.36 156.695C74.41 156.685 74.45 156.673 74.48 156.66V157C74.4466 157.013 74.3983 157.023 74.335 157.03C74.275 157.04 74.2066 157.045 74.13 157.045ZM72.795 154.79V154.45H74.48V154.79H72.795ZM76.2461 157.05C75.9961 157.05 75.7761 156.992 75.5861 156.875C75.3961 156.758 75.2478 156.6 75.1411 156.4C75.0378 156.197 74.9861 155.968 74.9861 155.715C74.9861 155.458 75.0395 155.232 75.1461 155.035C75.2528 154.838 75.3995 154.683 75.5861 154.57C75.7761 154.457 75.9961 154.4 76.2461 154.4C76.4995 154.4 76.7195 154.457 76.9061 154.57C77.0961 154.683 77.2428 154.838 77.3461 155.035C77.4528 155.232 77.5061 155.458 77.5061 155.715C77.5061 155.968 77.4528 156.197 77.3461 156.4C77.2428 156.6 77.0961 156.758 76.9061 156.875C76.7195 156.992 76.4995 157.05 76.2461 157.05ZM76.2461 156.71C76.4195 156.71 76.5695 156.668 76.6961 156.585C76.8228 156.498 76.9211 156.38 76.9911 156.23C77.0611 156.08 77.0961 155.907 77.0961 155.71C77.0961 155.417 77.0178 155.182 76.8611 155.005C76.7078 154.828 76.5028 154.74 76.2461 154.74C75.9928 154.74 75.7878 154.828 75.6311 155.005C75.4745 155.182 75.3961 155.417 75.3961 155.71C75.3961 155.907 75.4311 156.08 75.5011 156.23C75.5711 156.38 75.6695 156.498 75.7961 156.585C75.9261 156.668 76.0761 156.71 76.2461 156.71ZM78.3561 157V153.4H78.7561V157H78.3561ZM81.3722 157C81.3589 156.943 81.3489 156.878 81.3422 156.805C81.3389 156.732 81.3372 156.638 81.3372 156.525H81.3122V155.305C81.3122 155.112 81.2672 154.97 81.1772 154.88C81.0906 154.787 80.9489 154.74 80.7522 154.74C80.5589 154.74 80.4039 154.78 80.2872 154.86C80.1739 154.937 80.1106 155.047 80.0972 155.19H79.7122C79.7289 154.943 79.8322 154.75 80.0222 154.61C80.2122 154.47 80.4606 154.4 80.7672 154.4C81.0839 154.4 81.3189 154.475 81.4722 154.625C81.6256 154.775 81.7022 155 81.7022 155.3V156.525C81.7022 156.598 81.7072 156.675 81.7172 156.755C81.7272 156.832 81.7406 156.913 81.7572 157H81.3722ZM80.4972 157.05C80.2339 157.05 80.0239 156.987 79.8672 156.86C79.7139 156.73 79.6372 156.553 79.6372 156.33C79.6372 156.107 79.7139 155.933 79.8672 155.81C80.0206 155.687 80.2439 155.6 80.5372 155.55L81.4272 155.4V155.73L80.5972 155.86C80.4106 155.89 80.2689 155.94 80.1722 156.01C80.0756 156.08 80.0272 156.182 80.0272 156.315C80.0272 156.445 80.0706 156.543 80.1572 156.61C80.2472 156.677 80.3789 156.71 80.5522 156.71C80.7756 156.71 80.9572 156.66 81.0972 156.56C81.2406 156.457 81.3122 156.323 81.3122 156.16L81.3772 156.515C81.3239 156.685 81.2189 156.817 81.0622 156.91C80.9089 157.003 80.7206 157.05 80.4972 157.05ZM83.9832 157.045C83.7432 157.045 83.5416 156.987 83.3782 156.87C83.2149 156.753 83.1032 156.588 83.0432 156.375L83.0982 156.365V157H82.7232V153.4H83.1232V155.045L83.0682 155.03C83.1316 154.833 83.2466 154.68 83.4132 154.57C83.5832 154.457 83.7849 154.4 84.0182 154.4C84.2449 154.4 84.4416 154.455 84.6082 154.565C84.7782 154.675 84.9099 154.828 85.0032 155.025C85.0966 155.222 85.1432 155.452 85.1432 155.715C85.1432 155.982 85.0949 156.215 84.9982 156.415C84.9016 156.615 84.7666 156.77 84.5932 156.88C84.4199 156.99 84.2166 157.045 83.9832 157.045ZM83.9232 156.695C84.1766 156.695 84.3749 156.608 84.5182 156.435C84.6616 156.258 84.7332 156.018 84.7332 155.715C84.7332 155.415 84.6616 155.18 84.5182 155.01C84.3749 154.837 84.1766 154.75 83.9232 154.75C83.6699 154.75 83.4699 154.838 83.3232 155.015C83.1766 155.188 83.1032 155.427 83.1032 155.73C83.1032 156.027 83.1766 156.262 83.3232 156.435C83.4699 156.608 83.6699 156.695 83.9232 156.695Z" fill="black"/>
<rect x="156" y="71" width="43" height="92" fill="#FFDAA6"/>
<rect x="207" y="71" width="43" height="92" fill="#D4C4E6"/>
<rect x="58" y="74" width="37" height="22" fill="#FFFAF4"/>
<rect x="58" y="99" width="37" height="22" fill="#FFFAF4"/>
<rect x="58" y="124" width="37" height="22" fill="#FFFAF4"/>
<path d="M119.255 157V154.09C119.255 153.857 119.321 153.675 119.455 153.545C119.591 153.415 119.798 153.35 120.075 153.35C120.141 153.35 120.193 153.353 120.23 153.36C120.27 153.367 120.303 153.375 120.33 153.385V153.7C120.306 153.693 120.273 153.687 120.23 153.68C120.19 153.673 120.146 153.67 120.1 153.67C119.946 153.67 119.833 153.708 119.76 153.785C119.69 153.862 119.655 153.97 119.655 154.11V157H119.255ZM118.73 154.79V154.45H120.275V154.79H118.73ZM122.024 157.05C121.774 157.05 121.554 156.992 121.364 156.875C121.174 156.758 121.026 156.6 120.919 156.4C120.816 156.197 120.764 155.968 120.764 155.715C120.764 155.458 120.818 155.232 120.924 155.035C121.031 154.838 121.178 154.683 121.364 154.57C121.554 154.457 121.774 154.4 122.024 154.4C122.278 154.4 122.498 154.457 122.684 154.57C122.874 154.683 123.021 154.838 123.124 155.035C123.231 155.232 123.284 155.458 123.284 155.715C123.284 155.968 123.231 156.197 123.124 156.4C123.021 156.6 122.874 156.758 122.684 156.875C122.498 156.992 122.278 157.05 122.024 157.05ZM122.024 156.71C122.198 156.71 122.348 156.668 122.474 156.585C122.601 156.498 122.699 156.38 122.769 156.23C122.839 156.08 122.874 155.907 122.874 155.71C122.874 155.417 122.796 155.182 122.639 155.005C122.486 154.828 122.281 154.74 122.024 154.74C121.771 154.74 121.566 154.828 121.409 155.005C121.253 155.182 121.174 155.417 121.174 155.71C121.174 155.907 121.209 156.08 121.279 156.23C121.349 156.38 121.448 156.498 121.574 156.585C121.704 156.668 121.854 156.71 122.024 156.71ZM125.13 157.045C124.847 157.045 124.64 156.982 124.51 156.855C124.383 156.725 124.32 156.538 124.32 156.295V153.855L124.72 153.705V156.29C124.72 156.433 124.757 156.538 124.83 156.605C124.903 156.672 125.023 156.705 125.19 156.705C125.257 156.705 125.313 156.702 125.36 156.695C125.41 156.685 125.45 156.673 125.48 156.66V157C125.447 157.013 125.398 157.023 125.335 157.03C125.275 157.04 125.207 157.045 125.13 157.045ZM123.795 154.79V154.45H125.48V154.79H123.795ZM127.246 157.05C126.996 157.05 126.776 156.992 126.586 156.875C126.396 156.758 126.248 156.6 126.141 156.4C126.038 156.197 125.986 155.968 125.986 155.715C125.986 155.458 126.039 155.232 126.146 155.035C126.253 154.838 126.399 154.683 126.586 154.57C126.776 154.457 126.996 154.4 127.246 154.4C127.499 154.4 127.719 154.457 127.906 154.57C128.096 154.683 128.243 154.838 128.346 155.035C128.453 155.232 128.506 155.458 128.506 155.715C128.506 155.968 128.453 156.197 128.346 156.4C128.243 156.6 128.096 156.758 127.906 156.875C127.719 156.992 127.499 157.05 127.246 157.05ZM127.246 156.71C127.419 156.71 127.569 156.668 127.696 156.585C127.823 156.498 127.921 156.38 127.991 156.23C128.061 156.08 128.096 155.907 128.096 155.71C128.096 155.417 128.018 155.182 127.861 155.005C127.708 154.828 127.503 154.74 127.246 154.74C126.993 154.74 126.788 154.828 126.631 155.005C126.474 155.182 126.396 155.417 126.396 155.71C126.396 155.907 126.431 156.08 126.501 156.23C126.571 156.38 126.669 156.498 126.796 156.585C126.926 156.668 127.076 156.71 127.246 156.71ZM129.356 157V153.4H129.756V157H129.356ZM132.372 157C132.359 156.943 132.349 156.878 132.342 156.805C132.339 156.732 132.337 156.638 132.337 156.525H132.312V155.305C132.312 155.112 132.267 154.97 132.177 154.88C132.091 154.787 131.949 154.74 131.752 154.74C131.559 154.74 131.404 154.78 131.287 154.86C131.174 154.937 131.111 155.047 131.097 155.19H130.712C130.729 154.943 130.832 154.75 131.022 154.61C131.212 154.47 131.461 154.4 131.767 154.4C132.084 154.4 132.319 154.475 132.472 154.625C132.626 154.775 132.702 155 132.702 155.3V156.525C132.702 156.598 132.707 156.675 132.717 156.755C132.727 156.832 132.741 156.913 132.757 157H132.372ZM131.497 157.05C131.234 157.05 131.024 156.987 130.867 156.86C130.714 156.73 130.637 156.553 130.637 156.33C130.637 156.107 130.714 155.933 130.867 155.81C131.021 155.687 131.244 155.6 131.537 155.55L132.427 155.4V155.73L131.597 155.86C131.411 155.89 131.269 155.94 131.172 156.01C131.076 156.08 131.027 156.182 131.027 156.315C131.027 156.445 131.071 156.543 131.157 156.61C131.247 156.677 131.379 156.71 131.552 156.71C131.776 156.71 131.957 156.66 132.097 156.56C132.241 156.457 132.312 156.323 132.312 156.16L132.377 156.515C132.324 156.685 132.219 156.817 132.062 156.91C131.909 157.003 131.721 157.05 131.497 157.05ZM134.983 157.045C134.743 157.045 134.542 156.987 134.378 156.87C134.215 156.753 134.103 156.588 134.043 156.375L134.098 156.365V157H133.723V153.4H134.123V155.045L134.068 155.03C134.132 154.833 134.247 154.68 134.413 154.57C134.583 154.457 134.785 154.4 135.018 154.4C135.245 154.4 135.442 154.455 135.608 154.565C135.778 154.675 135.91 154.828 136.003 155.025C136.097 155.222 136.143 155.452 136.143 155.715C136.143 155.982 136.095 156.215 135.998 156.415C135.902 156.615 135.767 156.77 135.593 156.88C135.42 156.99 135.217 157.045 134.983 157.045ZM134.923 156.695C135.177 156.695 135.375 156.608 135.518 156.435C135.662 156.258 135.733 156.018 135.733 155.715C135.733 155.415 135.662 155.18 135.518 155.01C135.375 154.837 135.177 154.75 134.923 154.75C134.67 154.75 134.47 154.838 134.323 155.015C134.177 155.188 134.103 155.427 134.103 155.73C134.103 156.027 134.177 156.262 134.323 156.435C134.47 156.608 134.67 156.695 134.923 156.695Z" fill="black"/>
<rect x="109" y="74" width="37" height="22" fill="#FFFAF4"/>
<rect x="109" y="99" width="37" height="22" fill="#FFFAF4"/>
<rect x="109" y="124" width="37" height="22" fill="#FFFAF4"/>
<path d="M169.255 157V154.09C169.255 153.857 169.321 153.675 169.455 153.545C169.591 153.415 169.798 153.35 170.075 153.35C170.141 153.35 170.193 153.353 170.23 153.36C170.27 153.367 170.303 153.375 170.33 153.385V153.7C170.306 153.693 170.273 153.687 170.23 153.68C170.19 153.673 170.146 153.67 170.1 153.67C169.946 153.67 169.833 153.708 169.76 153.785C169.69 153.862 169.655 153.97 169.655 154.11V157H169.255ZM168.73 154.79V154.45H170.275V154.79H168.73ZM172.024 157.05C171.774 157.05 171.554 156.992 171.364 156.875C171.174 156.758 171.026 156.6 170.919 156.4C170.816 156.197 170.764 155.968 170.764 155.715C170.764 155.458 170.818 155.232 170.924 155.035C171.031 154.838 171.178 154.683 171.364 154.57C171.554 154.457 171.774 154.4 172.024 154.4C172.278 154.4 172.498 154.457 172.684 154.57C172.874 154.683 173.021 154.838 173.124 155.035C173.231 155.232 173.284 155.458 173.284 155.715C173.284 155.968 173.231 156.197 173.124 156.4C173.021 156.6 172.874 156.758 172.684 156.875C172.498 156.992 172.278 157.05 172.024 157.05ZM172.024 156.71C172.198 156.71 172.348 156.668 172.474 156.585C172.601 156.498 172.699 156.38 172.769 156.23C172.839 156.08 172.874 155.907 172.874 155.71C172.874 155.417 172.796 155.182 172.639 155.005C172.486 154.828 172.281 154.74 172.024 154.74C171.771 154.74 171.566 154.828 171.409 155.005C171.253 155.182 171.174 155.417 171.174 155.71C171.174 155.907 171.209 156.08 171.279 156.23C171.349 156.38 171.448 156.498 171.574 156.585C171.704 156.668 171.854 156.71 172.024 156.71ZM175.13 157.045C174.847 157.045 174.64 156.982 174.51 156.855C174.383 156.725 174.32 156.538 174.32 156.295V153.855L174.72 153.705V156.29C174.72 156.433 174.757 156.538 174.83 156.605C174.903 156.672 175.023 156.705 175.19 156.705C175.257 156.705 175.313 156.702 175.36 156.695C175.41 156.685 175.45 156.673 175.48 156.66V157C175.447 157.013 175.398 157.023 175.335 157.03C175.275 157.04 175.207 157.045 175.13 157.045ZM173.795 154.79V154.45H175.48V154.79H173.795ZM177.246 157.05C176.996 157.05 176.776 156.992 176.586 156.875C176.396 156.758 176.248 156.6 176.141 156.4C176.038 156.197 175.986 155.968 175.986 155.715C175.986 155.458 176.039 155.232 176.146 155.035C176.253 154.838 176.399 154.683 176.586 154.57C176.776 154.457 176.996 154.4 177.246 154.4C177.499 154.4 177.719 154.457 177.906 154.57C178.096 154.683 178.243 154.838 178.346 155.035C178.453 155.232 178.506 155.458 178.506 155.715C178.506 155.968 178.453 156.197 178.346 156.4C178.243 156.6 178.096 156.758 177.906 156.875C177.719 156.992 177.499 157.05 177.246 157.05ZM177.246 156.71C177.419 156.71 177.569 156.668 177.696 156.585C177.823 156.498 177.921 156.38 177.991 156.23C178.061 156.08 178.096 155.907 178.096 155.71C178.096 155.417 178.018 155.182 177.861 155.005C177.708 154.828 177.503 154.74 177.246 154.74C176.993 154.74 176.788 154.828 176.631 155.005C176.474 155.182 176.396 155.417 176.396 155.71C176.396 155.907 176.431 156.08 176.501 156.23C176.571 156.38 176.669 156.498 176.796 156.585C176.926 156.668 177.076 156.71 177.246 156.71ZM179.356 157V153.4H179.756V157H179.356ZM182.372 157C182.359 156.943 182.349 156.878 182.342 156.805C182.339 156.732 182.337 156.638 182.337 156.525H182.312V155.305C182.312 155.112 182.267 154.97 182.177 154.88C182.091 154.787 181.949 154.74 181.752 154.74C181.559 154.74 181.404 154.78 181.287 154.86C181.174 154.937 181.111 155.047 181.097 155.19H180.712C180.729 154.943 180.832 154.75 181.022 154.61C181.212 154.47 181.461 154.4 181.767 154.4C182.084 154.4 182.319 154.475 182.472 154.625C182.626 154.775 182.702 155 182.702 155.3V156.525C182.702 156.598 182.707 156.675 182.717 156.755C182.727 156.832 182.741 156.913 182.757 157H182.372ZM181.497 157.05C181.234 157.05 181.024 156.987 180.867 156.86C180.714 156.73 180.637 156.553 180.637 156.33C180.637 156.107 180.714 155.933 180.867 155.81C181.021 155.687 181.244 155.6 181.537 155.55L182.427 155.4V155.73L181.597 155.86C181.411 155.89 181.269 155.94 181.172 156.01C181.076 156.08 181.027 156.182 181.027 156.315C181.027 156.445 181.071 156.543 181.157 156.61C181.247 156.677 181.379 156.71 181.552 156.71C181.776 156.71 181.957 156.66 182.097 156.56C182.241 156.457 182.312 156.323 182.312 156.16L182.377 156.515C182.324 156.685 182.219 156.817 182.062 156.91C181.909 157.003 181.721 157.05 181.497 157.05ZM184.983 157.045C184.743 157.045 184.542 156.987 184.378 156.87C184.215 156.753 184.103 156.588 184.043 156.375L184.098 156.365V157H183.723V153.4H184.123V155.045L184.068 155.03C184.132 154.833 184.247 154.68 184.413 154.57C184.583 154.457 184.785 154.4 185.018 154.4C185.245 154.4 185.442 154.455 185.608 154.565C185.778 154.675 185.91 154.828 186.003 155.025C186.097 155.222 186.143 155.452 186.143 155.715C186.143 155.982 186.095 156.215 185.998 156.415C185.902 156.615 185.767 156.77 185.593 156.88C185.42 156.99 185.217 157.045 184.983 157.045ZM184.923 156.695C185.177 156.695 185.375 156.608 185.518 156.435C185.662 156.258 185.733 156.018 185.733 155.715C185.733 155.415 185.662 155.18 185.518 155.01C185.375 154.837 185.177 154.75 184.923 154.75C184.67 154.75 184.47 154.838 184.323 155.015C184.177 155.188 184.103 155.427 184.103 155.73C184.103 156.027 184.177 156.262 184.323 156.435C184.47 156.608 184.67 156.695 184.923 156.695Z" fill="black"/>
<rect x="159" y="74" width="37" height="22" fill="#FFFAF4"/>
<rect x="55" y="169" width="43" height="10" rx="5" fill="#FDB5CF"/>
<rect x="106" y="169" width="43" height="10" rx="5" fill="#FDB5CF"/>
<rect x="156" y="169" width="43" height="10" rx="5" fill="#FDB5CF"/>
<rect x="207" y="169" width="43" height="10" rx="5" fill="#FDB5CF"/>
<rect x="159" y="99" width="37" height="22" fill="#FFFAF4"/>
<rect x="159" y="124" width="37" height="22" fill="#FFFAF4"/>
<path d="M220.255 157V154.09C220.255 153.857 220.321 153.675 220.455 153.545C220.591 153.415 220.798 153.35 221.075 153.35C221.141 153.35 221.193 153.353 221.23 153.36C221.27 153.367 221.303 153.375 221.33 153.385V153.7C221.306 153.693 221.273 153.687 221.23 153.68C221.19 153.673 221.146 153.67 221.1 153.67C220.946 153.67 220.833 153.708 220.76 153.785C220.69 153.862 220.655 153.97 220.655 154.11V157H220.255ZM219.73 154.79V154.45H221.275V154.79H219.73ZM223.024 157.05C222.774 157.05 222.554 156.992 222.364 156.875C222.174 156.758 222.026 156.6 221.919 156.4C221.816 156.197 221.764 155.968 221.764 155.715C221.764 155.458 221.818 155.232 221.924 155.035C222.031 154.838 222.178 154.683 222.364 154.57C222.554 154.457 222.774 154.4 223.024 154.4C223.278 154.4 223.498 154.457 223.684 154.57C223.874 154.683 224.021 154.838 224.124 155.035C224.231 155.232 224.284 155.458 224.284 155.715C224.284 155.968 224.231 156.197 224.124 156.4C224.021 156.6 223.874 156.758 223.684 156.875C223.498 156.992 223.278 157.05 223.024 157.05ZM223.024 156.71C223.198 156.71 223.348 156.668 223.474 156.585C223.601 156.498 223.699 156.38 223.769 156.23C223.839 156.08 223.874 155.907 223.874 155.71C223.874 155.417 223.796 155.182 223.639 155.005C223.486 154.828 223.281 154.74 223.024 154.74C222.771 154.74 222.566 154.828 222.409 155.005C222.253 155.182 222.174 155.417 222.174 155.71C222.174 155.907 222.209 156.08 222.279 156.23C222.349 156.38 222.448 156.498 222.574 156.585C222.704 156.668 222.854 156.71 223.024 156.71ZM226.13 157.045C225.847 157.045 225.64 156.982 225.51 156.855C225.383 156.725 225.32 156.538 225.32 156.295V153.855L225.72 153.705V156.29C225.72 156.433 225.757 156.538 225.83 156.605C225.903 156.672 226.023 156.705 226.19 156.705C226.257 156.705 226.313 156.702 226.36 156.695C226.41 156.685 226.45 156.673 226.48 156.66V157C226.447 157.013 226.398 157.023 226.335 157.03C226.275 157.04 226.207 157.045 226.13 157.045ZM224.795 154.79V154.45H226.48V154.79H224.795ZM228.246 157.05C227.996 157.05 227.776 156.992 227.586 156.875C227.396 156.758 227.248 156.6 227.141 156.4C227.038 156.197 226.986 155.968 226.986 155.715C226.986 155.458 227.039 155.232 227.146 155.035C227.253 154.838 227.399 154.683 227.586 154.57C227.776 154.457 227.996 154.4 228.246 154.4C228.499 154.4 228.719 154.457 228.906 154.57C229.096 154.683 229.243 154.838 229.346 155.035C229.453 155.232 229.506 155.458 229.506 155.715C229.506 155.968 229.453 156.197 229.346 156.4C229.243 156.6 229.096 156.758 228.906 156.875C228.719 156.992 228.499 157.05 228.246 157.05ZM228.246 156.71C228.419 156.71 228.569 156.668 228.696 156.585C228.823 156.498 228.921 156.38 228.991 156.23C229.061 156.08 229.096 155.907 229.096 155.71C229.096 155.417 229.018 155.182 228.861 155.005C228.708 154.828 228.503 154.74 228.246 154.74C227.993 154.74 227.788 154.828 227.631 155.005C227.474 155.182 227.396 155.417 227.396 155.71C227.396 155.907 227.431 156.08 227.501 156.23C227.571 156.38 227.669 156.498 227.796 156.585C227.926 156.668 228.076 156.71 228.246 156.71ZM230.356 157V153.4H230.756V157H230.356ZM233.372 157C233.359 156.943 233.349 156.878 233.342 156.805C233.339 156.732 233.337 156.638 233.337 156.525H233.312V155.305C233.312 155.112 233.267 154.97 233.177 154.88C233.091 154.787 232.949 154.74 232.752 154.74C232.559 154.74 232.404 154.78 232.287 154.86C232.174 154.937 232.111 155.047 232.097 155.19H231.712C231.729 154.943 231.832 154.75 232.022 154.61C232.212 154.47 232.461 154.4 232.767 154.4C233.084 154.4 233.319 154.475 233.472 154.625C233.626 154.775 233.702 155 233.702 155.3V156.525C233.702 156.598 233.707 156.675 233.717 156.755C233.727 156.832 233.741 156.913 233.757 157H233.372ZM232.497 157.05C232.234 157.05 232.024 156.987 231.867 156.86C231.714 156.73 231.637 156.553 231.637 156.33C231.637 156.107 231.714 155.933 231.867 155.81C232.021 155.687 232.244 155.6 232.537 155.55L233.427 155.4V155.73L232.597 155.86C232.411 155.89 232.269 155.94 232.172 156.01C232.076 156.08 232.027 156.182 232.027 156.315C232.027 156.445 232.071 156.543 232.157 156.61C232.247 156.677 232.379 156.71 232.552 156.71C232.776 156.71 232.957 156.66 233.097 156.56C233.241 156.457 233.312 156.323 233.312 156.16L233.377 156.515C233.324 156.685 233.219 156.817 233.062 156.91C232.909 157.003 232.721 157.05 232.497 157.05ZM235.983 157.045C235.743 157.045 235.542 156.987 235.378 156.87C235.215 156.753 235.103 156.588 235.043 156.375L235.098 156.365V157H234.723V153.4H235.123V155.045L235.068 155.03C235.132 154.833 235.247 154.68 235.413 154.57C235.583 154.457 235.785 154.4 236.018 154.4C236.245 154.4 236.442 154.455 236.608 154.565C236.778 154.675 236.91 154.828 237.003 155.025C237.097 155.222 237.143 155.452 237.143 155.715C237.143 155.982 237.095 156.215 236.998 156.415C236.902 156.615 236.767 156.77 236.593 156.88C236.42 156.99 236.217 157.045 235.983 157.045ZM235.923 156.695C236.177 156.695 236.375 156.608 236.518 156.435C236.662 156.258 236.733 156.018 236.733 155.715C236.733 155.415 236.662 155.18 236.518 155.01C236.375 154.837 236.177 154.75 235.923 154.75C235.67 154.75 235.47 154.838 235.323 155.015C235.177 155.188 235.103 155.427 235.103 155.73C235.103 156.027 235.177 156.262 235.323 156.435C235.47 156.608 235.67 156.695 235.923 156.695Z" fill="black"/>
<rect x="210" y="74" width="37" height="22" fill="#FFFAF4"/>
<rect x="210" y="99" width="37" height="22" fill="#FFFAF4"/>
<rect x="210" y="124" width="37" height="22" fill="#FFFAF4"/>
<path d="M70.2211 175.55C69.9077 175.55 69.6577 175.478 69.4711 175.335C69.2844 175.188 69.1777 174.982 69.1511 174.715H69.5361C69.5594 174.878 69.6311 175.003 69.7511 175.09C69.8711 175.177 70.0311 175.22 70.2311 175.22C70.4077 175.22 70.5461 175.187 70.6461 175.12C70.7461 175.053 70.7961 174.958 70.7961 174.835C70.7961 174.748 70.7677 174.673 70.7111 174.61C70.6544 174.543 70.5411 174.488 70.3711 174.445L69.9611 174.34C69.7277 174.28 69.5527 174.188 69.4361 174.065C69.3194 173.938 69.2611 173.788 69.2611 173.615C69.2611 173.395 69.3427 173.222 69.5061 173.095C69.6694 172.965 69.8911 172.9 70.1711 172.9C70.4477 172.9 70.6727 172.967 70.8461 173.1C71.0194 173.233 71.1177 173.418 71.1411 173.655H70.7561C70.7327 173.518 70.6694 173.413 70.5661 173.34C70.4627 173.267 70.3261 173.23 70.1561 173.23C69.9927 173.23 69.8661 173.262 69.7761 173.325C69.6861 173.385 69.6411 173.472 69.6411 173.585C69.6411 173.672 69.6727 173.747 69.7361 173.81C69.8027 173.873 69.9127 173.927 70.0661 173.97L70.4661 174.08C70.7027 174.143 70.8811 174.24 71.0011 174.37C71.1211 174.5 71.1811 174.657 71.1811 174.84C71.1811 175.063 71.0961 175.238 70.9261 175.365C70.7561 175.488 70.5211 175.55 70.2211 175.55ZM73.1022 175.55C72.8589 175.55 72.6439 175.493 72.4572 175.38C72.2706 175.263 72.1239 175.105 72.0172 174.905C71.9106 174.705 71.8572 174.475 71.8572 174.215C71.8572 173.955 71.9089 173.727 72.0122 173.53C72.1189 173.33 72.2672 173.175 72.4572 173.065C72.6472 172.955 72.8656 172.9 73.1122 172.9C73.3489 172.9 73.5539 172.952 73.7272 173.055C73.9039 173.158 74.0389 173.303 74.1322 173.49C74.2289 173.677 74.2772 173.897 74.2772 174.15C74.2772 174.183 74.2756 174.215 74.2722 174.245C74.2722 174.275 74.2689 174.308 74.2622 174.345H72.1572V174.01H74.0172L73.8872 174.195C73.8872 173.888 73.8189 173.653 73.6822 173.49C73.5489 173.323 73.3589 173.24 73.1122 173.24C72.8589 173.24 72.6539 173.328 72.4972 173.505C72.3439 173.678 72.2672 173.913 72.2672 174.21C72.2672 174.513 72.3439 174.757 72.4972 174.94C72.6539 175.12 72.8622 175.21 73.1222 175.21C73.2856 175.21 73.4289 175.175 73.5522 175.105C73.6756 175.032 73.7656 174.928 73.8222 174.795H74.2022C74.1189 175.028 73.9789 175.213 73.7822 175.35C73.5889 175.483 73.3622 175.55 73.1022 175.55ZM75.1295 175.5V171.9H75.5295V175.5H75.1295ZM77.6257 175.55C77.3823 175.55 77.1673 175.493 76.9807 175.38C76.794 175.263 76.6473 175.105 76.5407 174.905C76.434 174.705 76.3807 174.475 76.3807 174.215C76.3807 173.955 76.4323 173.727 76.5357 173.53C76.6423 173.33 76.7907 173.175 76.9807 173.065C77.1707 172.955 77.389 172.9 77.6357 172.9C77.8723 172.9 78.0773 172.952 78.2507 173.055C78.4273 173.158 78.5623 173.303 78.6557 173.49C78.7523 173.677 78.8007 173.897 78.8007 174.15C78.8007 174.183 78.799 174.215 78.7957 174.245C78.7957 174.275 78.7923 174.308 78.7857 174.345H76.6807V174.01H78.5407L78.4107 174.195C78.4107 173.888 78.3423 173.653 78.2057 173.49C78.0723 173.323 77.8823 173.24 77.6357 173.24C77.3823 173.24 77.1773 173.328 77.0207 173.505C76.8673 173.678 76.7907 173.913 76.7907 174.21C76.7907 174.513 76.8673 174.757 77.0207 174.94C77.1773 175.12 77.3857 175.21 77.6457 175.21C77.809 175.21 77.9523 175.175 78.0757 175.105C78.199 175.032 78.289 174.928 78.3457 174.795H78.7257C78.6423 175.028 78.5023 175.213 78.3057 175.35C78.1123 175.483 77.8857 175.55 77.6257 175.55ZM80.6629 175.55C80.4296 175.55 80.2213 175.493 80.0379 175.38C79.8579 175.263 79.7146 175.105 79.6079 174.905C79.5046 174.702 79.4529 174.472 79.4529 174.215C79.4529 173.958 79.5046 173.732 79.6079 173.535C79.7146 173.338 79.8579 173.183 80.0379 173.07C80.2213 172.957 80.4279 172.9 80.6579 172.9C80.8479 172.9 81.0179 172.937 81.1679 173.01C81.3213 173.083 81.4463 173.188 81.5429 173.325C81.6429 173.458 81.7063 173.615 81.7329 173.795H81.3629C81.3296 173.632 81.2529 173.498 81.1329 173.395C81.0129 173.292 80.8579 173.24 80.6679 173.24C80.5046 173.24 80.3629 173.28 80.2429 173.36C80.1229 173.44 80.0296 173.553 79.9629 173.7C79.8963 173.847 79.8629 174.018 79.8629 174.215C79.8629 174.412 79.8963 174.585 79.9629 174.735C80.0296 174.885 80.1229 175.002 80.2429 175.085C80.3663 175.168 80.5096 175.21 80.6729 175.21C80.8563 175.21 81.0096 175.16 81.1329 175.06C81.2563 174.957 81.3346 174.823 81.3679 174.66H81.7379C81.7079 174.837 81.6413 174.993 81.5379 175.13C81.4379 175.263 81.3129 175.367 81.1629 175.44C81.0129 175.513 80.8463 175.55 80.6629 175.55ZM83.5792 175.545C83.2958 175.545 83.0892 175.482 82.9592 175.355C82.8325 175.225 82.7692 175.038 82.7692 174.795V172.355L83.1692 172.205V174.79C83.1692 174.933 83.2058 175.038 83.2792 175.105C83.3525 175.172 83.4725 175.205 83.6392 175.205C83.7058 175.205 83.7625 175.202 83.8092 175.195C83.8592 175.185 83.8992 175.173 83.9292 175.16V175.5C83.8958 175.513 83.8475 175.523 83.7842 175.53C83.7242 175.54 83.6558 175.545 83.5792 175.545ZM82.2442 173.29V172.95H83.9292V173.29H82.2442Z" fill="black"/>
<path d="M121.221 175.55C120.908 175.55 120.658 175.478 120.471 175.335C120.284 175.188 120.178 174.982 120.151 174.715H120.536C120.559 174.878 120.631 175.003 120.751 175.09C120.871 175.177 121.031 175.22 121.231 175.22C121.408 175.22 121.546 175.187 121.646 175.12C121.746 175.053 121.796 174.958 121.796 174.835C121.796 174.748 121.768 174.673 121.711 174.61C121.654 174.543 121.541 174.488 121.371 174.445L120.961 174.34C120.728 174.28 120.553 174.188 120.436 174.065C120.319 173.938 120.261 173.788 120.261 173.615C120.261 173.395 120.343 173.222 120.506 173.095C120.669 172.965 120.891 172.9 121.171 172.9C121.448 172.9 121.673 172.967 121.846 173.1C122.019 173.233 122.118 173.418 122.141 173.655H121.756C121.733 173.518 121.669 173.413 121.566 173.34C121.463 173.267 121.326 173.23 121.156 173.23C120.993 173.23 120.866 173.262 120.776 173.325C120.686 173.385 120.641 173.472 120.641 173.585C120.641 173.672 120.673 173.747 120.736 173.81C120.803 173.873 120.913 173.927 121.066 173.97L121.466 174.08C121.703 174.143 121.881 174.24 122.001 174.37C122.121 174.5 122.181 174.657 122.181 174.84C122.181 175.063 122.096 175.238 121.926 175.365C121.756 175.488 121.521 175.55 121.221 175.55ZM124.102 175.55C123.859 175.55 123.644 175.493 123.457 175.38C123.271 175.263 123.124 175.105 123.017 174.905C122.911 174.705 122.857 174.475 122.857 174.215C122.857 173.955 122.909 173.727 123.012 173.53C123.119 173.33 123.267 173.175 123.457 173.065C123.647 172.955 123.866 172.9 124.112 172.9C124.349 172.9 124.554 172.952 124.727 173.055C124.904 173.158 125.039 173.303 125.132 173.49C125.229 173.677 125.277 173.897 125.277 174.15C125.277 174.183 125.276 174.215 125.272 174.245C125.272 174.275 125.269 174.308 125.262 174.345H123.157V174.01H125.017L124.887 174.195C124.887 173.888 124.819 173.653 124.682 173.49C124.549 173.323 124.359 173.24 124.112 173.24C123.859 173.24 123.654 173.328 123.497 173.505C123.344 173.678 123.267 173.913 123.267 174.21C123.267 174.513 123.344 174.757 123.497 174.94C123.654 175.12 123.862 175.21 124.122 175.21C124.286 175.21 124.429 175.175 124.552 175.105C124.676 175.032 124.766 174.928 124.822 174.795H125.202C125.119 175.028 124.979 175.213 124.782 175.35C124.589 175.483 124.362 175.55 124.102 175.55ZM126.129 175.5V171.9H126.529V175.5H126.129ZM128.626 175.55C128.382 175.55 128.167 175.493 127.981 175.38C127.794 175.263 127.647 175.105 127.541 174.905C127.434 174.705 127.381 174.475 127.381 174.215C127.381 173.955 127.432 173.727 127.536 173.53C127.642 173.33 127.791 173.175 127.981 173.065C128.171 172.955 128.389 172.9 128.636 172.9C128.872 172.9 129.077 172.952 129.251 173.055C129.427 173.158 129.562 173.303 129.656 173.49C129.752 173.677 129.801 173.897 129.801 174.15C129.801 174.183 129.799 174.215 129.796 174.245C129.796 174.275 129.792 174.308 129.786 174.345H127.681V174.01H129.541L129.411 174.195C129.411 173.888 129.342 173.653 129.206 173.49C129.072 173.323 128.882 173.24 128.636 173.24C128.382 173.24 128.177 173.328 128.021 173.505C127.867 173.678 127.791 173.913 127.791 174.21C127.791 174.513 127.867 174.757 128.021 174.94C128.177 175.12 128.386 175.21 128.646 175.21C128.809 175.21 128.952 175.175 129.076 175.105C129.199 175.032 129.289 174.928 129.346 174.795H129.726C129.642 175.028 129.502 175.213 129.306 175.35C129.112 175.483 128.886 175.55 128.626 175.55ZM131.663 175.55C131.43 175.55 131.221 175.493 131.038 175.38C130.858 175.263 130.715 175.105 130.608 174.905C130.505 174.702 130.453 174.472 130.453 174.215C130.453 173.958 130.505 173.732 130.608 173.535C130.715 173.338 130.858 173.183 131.038 173.07C131.221 172.957 131.428 172.9 131.658 172.9C131.848 172.9 132.018 172.937 132.168 173.01C132.321 173.083 132.446 173.188 132.543 173.325C132.643 173.458 132.706 173.615 132.733 173.795H132.363C132.33 173.632 132.253 173.498 132.133 173.395C132.013 173.292 131.858 173.24 131.668 173.24C131.505 173.24 131.363 173.28 131.243 173.36C131.123 173.44 131.03 173.553 130.963 173.7C130.896 173.847 130.863 174.018 130.863 174.215C130.863 174.412 130.896 174.585 130.963 174.735C131.03 174.885 131.123 175.002 131.243 175.085C131.366 175.168 131.51 175.21 131.673 175.21C131.856 175.21 132.01 175.16 132.133 175.06C132.256 174.957 132.335 174.823 132.368 174.66H132.738C132.708 174.837 132.641 174.993 132.538 175.13C132.438 175.263 132.313 175.367 132.163 175.44C132.013 175.513 131.846 175.55 131.663 175.55ZM134.579 175.545C134.296 175.545 134.089 175.482 133.959 175.355C133.833 175.225 133.769 175.038 133.769 174.795V172.355L134.169 172.205V174.79C134.169 174.933 134.206 175.038 134.279 175.105C134.353 175.172 134.473 175.205 134.639 175.205C134.706 175.205 134.763 175.202 134.809 175.195C134.859 175.185 134.899 175.173 134.929 175.16V175.5C134.896 175.513 134.848 175.523 134.784 175.53C134.724 175.54 134.656 175.545 134.579 175.545ZM133.244 173.29V172.95H134.929V173.29H133.244Z" fill="black"/>
<path d="M171.221 175.55C170.908 175.55 170.658 175.478 170.471 175.335C170.284 175.188 170.178 174.982 170.151 174.715H170.536C170.559 174.878 170.631 175.003 170.751 175.09C170.871 175.177 171.031 175.22 171.231 175.22C171.408 175.22 171.546 175.187 171.646 175.12C171.746 175.053 171.796 174.958 171.796 174.835C171.796 174.748 171.768 174.673 171.711 174.61C171.654 174.543 171.541 174.488 171.371 174.445L170.961 174.34C170.728 174.28 170.553 174.188 170.436 174.065C170.319 173.938 170.261 173.788 170.261 173.615C170.261 173.395 170.343 173.222 170.506 173.095C170.669 172.965 170.891 172.9 171.171 172.9C171.448 172.9 171.673 172.967 171.846 173.1C172.019 173.233 172.118 173.418 172.141 173.655H171.756C171.733 173.518 171.669 173.413 171.566 173.34C171.463 173.267 171.326 173.23 171.156 173.23C170.993 173.23 170.866 173.262 170.776 173.325C170.686 173.385 170.641 173.472 170.641 173.585C170.641 173.672 170.673 173.747 170.736 173.81C170.803 173.873 170.913 173.927 171.066 173.97L171.466 174.08C171.703 174.143 171.881 174.24 172.001 174.37C172.121 174.5 172.181 174.657 172.181 174.84C172.181 175.063 172.096 175.238 171.926 175.365C171.756 175.488 171.521 175.55 171.221 175.55ZM174.102 175.55C173.859 175.55 173.644 175.493 173.457 175.38C173.271 175.263 173.124 175.105 173.017 174.905C172.911 174.705 172.857 174.475 172.857 174.215C172.857 173.955 172.909 173.727 173.012 173.53C173.119 173.33 173.267 173.175 173.457 173.065C173.647 172.955 173.866 172.9 174.112 172.9C174.349 172.9 174.554 172.952 174.727 173.055C174.904 173.158 175.039 173.303 175.132 173.49C175.229 173.677 175.277 173.897 175.277 174.15C175.277 174.183 175.276 174.215 175.272 174.245C175.272 174.275 175.269 174.308 175.262 174.345H173.157V174.01H175.017L174.887 174.195C174.887 173.888 174.819 173.653 174.682 173.49C174.549 173.323 174.359 173.24 174.112 173.24C173.859 173.24 173.654 173.328 173.497 173.505C173.344 173.678 173.267 173.913 173.267 174.21C173.267 174.513 173.344 174.757 173.497 174.94C173.654 175.12 173.862 175.21 174.122 175.21C174.286 175.21 174.429 175.175 174.552 175.105C174.676 175.032 174.766 174.928 174.822 174.795H175.202C175.119 175.028 174.979 175.213 174.782 175.35C174.589 175.483 174.362 175.55 174.102 175.55ZM176.129 175.5V171.9H176.529V175.5H176.129ZM178.626 175.55C178.382 175.55 178.167 175.493 177.981 175.38C177.794 175.263 177.647 175.105 177.541 174.905C177.434 174.705 177.381 174.475 177.381 174.215C177.381 173.955 177.432 173.727 177.536 173.53C177.642 173.33 177.791 173.175 177.981 173.065C178.171 172.955 178.389 172.9 178.636 172.9C178.872 172.9 179.077 172.952 179.251 173.055C179.427 173.158 179.562 173.303 179.656 173.49C179.752 173.677 179.801 173.897 179.801 174.15C179.801 174.183 179.799 174.215 179.796 174.245C179.796 174.275 179.792 174.308 179.786 174.345H177.681V174.01H179.541L179.411 174.195C179.411 173.888 179.342 173.653 179.206 173.49C179.072 173.323 178.882 173.24 178.636 173.24C178.382 173.24 178.177 173.328 178.021 173.505C177.867 173.678 177.791 173.913 177.791 174.21C177.791 174.513 177.867 174.757 178.021 174.94C178.177 175.12 178.386 175.21 178.646 175.21C178.809 175.21 178.952 175.175 179.076 175.105C179.199 175.032 179.289 174.928 179.346 174.795H179.726C179.642 175.028 179.502 175.213 179.306 175.35C179.112 175.483 178.886 175.55 178.626 175.55ZM181.663 175.55C181.43 175.55 181.221 175.493 181.038 175.38C180.858 175.263 180.715 175.105 180.608 174.905C180.505 174.702 180.453 174.472 180.453 174.215C180.453 173.958 180.505 173.732 180.608 173.535C180.715 173.338 180.858 173.183 181.038 173.07C181.221 172.957 181.428 172.9 181.658 172.9C181.848 172.9 182.018 172.937 182.168 173.01C182.321 173.083 182.446 173.188 182.543 173.325C182.643 173.458 182.706 173.615 182.733 173.795H182.363C182.33 173.632 182.253 173.498 182.133 173.395C182.013 173.292 181.858 173.24 181.668 173.24C181.505 173.24 181.363 173.28 181.243 173.36C181.123 173.44 181.03 173.553 180.963 173.7C180.896 173.847 180.863 174.018 180.863 174.215C180.863 174.412 180.896 174.585 180.963 174.735C181.03 174.885 181.123 175.002 181.243 175.085C181.366 175.168 181.51 175.21 181.673 175.21C181.856 175.21 182.01 175.16 182.133 175.06C182.256 174.957 182.335 174.823 182.368 174.66H182.738C182.708 174.837 182.641 174.993 182.538 175.13C182.438 175.263 182.313 175.367 182.163 175.44C182.013 175.513 181.846 175.55 181.663 175.55ZM184.579 175.545C184.296 175.545 184.089 175.482 183.959 175.355C183.833 175.225 183.769 175.038 183.769 174.795V172.355L184.169 172.205V174.79C184.169 174.933 184.206 175.038 184.279 175.105C184.353 175.172 184.473 175.205 184.639 175.205C184.706 175.205 184.763 175.202 184.809 175.195C184.859 175.185 184.899 175.173 184.929 175.16V175.5C184.896 175.513 184.848 175.523 184.784 175.53C184.724 175.54 184.656 175.545 184.579 175.545ZM183.244 173.29V172.95H184.929V173.29H183.244Z" fill="black"/>
<path d="M222.221 175.55C221.908 175.55 221.658 175.478 221.471 175.335C221.284 175.188 221.178 174.982 221.151 174.715H221.536C221.559 174.878 221.631 175.003 221.751 175.09C221.871 175.177 222.031 175.22 222.231 175.22C222.408 175.22 222.546 175.187 222.646 175.12C222.746 175.053 222.796 174.958 222.796 174.835C222.796 174.748 222.768 174.673 222.711 174.61C222.654 174.543 222.541 174.488 222.371 174.445L221.961 174.34C221.728 174.28 221.553 174.188 221.436 174.065C221.319 173.938 221.261 173.788 221.261 173.615C221.261 173.395 221.343 173.222 221.506 173.095C221.669 172.965 221.891 172.9 222.171 172.9C222.448 172.9 222.673 172.967 222.846 173.1C223.019 173.233 223.118 173.418 223.141 173.655H222.756C222.733 173.518 222.669 173.413 222.566 173.34C222.463 173.267 222.326 173.23 222.156 173.23C221.993 173.23 221.866 173.262 221.776 173.325C221.686 173.385 221.641 173.472 221.641 173.585C221.641 173.672 221.673 173.747 221.736 173.81C221.803 173.873 221.913 173.927 222.066 173.97L222.466 174.08C222.703 174.143 222.881 174.24 223.001 174.37C223.121 174.5 223.181 174.657 223.181 174.84C223.181 175.063 223.096 175.238 222.926 175.365C222.756 175.488 222.521 175.55 222.221 175.55ZM225.102 175.55C224.859 175.55 224.644 175.493 224.457 175.38C224.271 175.263 224.124 175.105 224.017 174.905C223.911 174.705 223.857 174.475 223.857 174.215C223.857 173.955 223.909 173.727 224.012 173.53C224.119 173.33 224.267 173.175 224.457 173.065C224.647 172.955 224.866 172.9 225.112 172.9C225.349 172.9 225.554 172.952 225.727 173.055C225.904 173.158 226.039 173.303 226.132 173.49C226.229 173.677 226.277 173.897 226.277 174.15C226.277 174.183 226.276 174.215 226.272 174.245C226.272 174.275 226.269 174.308 226.262 174.345H224.157V174.01H226.017L225.887 174.195C225.887 173.888 225.819 173.653 225.682 173.49C225.549 173.323 225.359 173.24 225.112 173.24C224.859 173.24 224.654 173.328 224.497 173.505C224.344 173.678 224.267 173.913 224.267 174.21C224.267 174.513 224.344 174.757 224.497 174.94C224.654 175.12 224.862 175.21 225.122 175.21C225.286 175.21 225.429 175.175 225.552 175.105C225.676 175.032 225.766 174.928 225.822 174.795H226.202C226.119 175.028 225.979 175.213 225.782 175.35C225.589 175.483 225.362 175.55 225.102 175.55ZM227.129 175.5V171.9H227.529V175.5H227.129ZM229.626 175.55C229.382 175.55 229.167 175.493 228.981 175.38C228.794 175.263 228.647 175.105 228.541 174.905C228.434 174.705 228.381 174.475 228.381 174.215C228.381 173.955 228.432 173.727 228.536 173.53C228.642 173.33 228.791 173.175 228.981 173.065C229.171 172.955 229.389 172.9 229.636 172.9C229.872 172.9 230.077 172.952 230.251 173.055C230.427 173.158 230.562 173.303 230.656 173.49C230.752 173.677 230.801 173.897 230.801 174.15C230.801 174.183 230.799 174.215 230.796 174.245C230.796 174.275 230.792 174.308 230.786 174.345H228.681V174.01H230.541L230.411 174.195C230.411 173.888 230.342 173.653 230.206 173.49C230.072 173.323 229.882 173.24 229.636 173.24C229.382 173.24 229.177 173.328 229.021 173.505C228.867 173.678 228.791 173.913 228.791 174.21C228.791 174.513 228.867 174.757 229.021 174.94C229.177 175.12 229.386 175.21 229.646 175.21C229.809 175.21 229.952 175.175 230.076 175.105C230.199 175.032 230.289 174.928 230.346 174.795H230.726C230.642 175.028 230.502 175.213 230.306 175.35C230.112 175.483 229.886 175.55 229.626 175.55ZM232.663 175.55C232.43 175.55 232.221 175.493 232.038 175.38C231.858 175.263 231.715 175.105 231.608 174.905C231.505 174.702 231.453 174.472 231.453 174.215C231.453 173.958 231.505 173.732 231.608 173.535C231.715 173.338 231.858 173.183 232.038 173.07C232.221 172.957 232.428 172.9 232.658 172.9C232.848 172.9 233.018 172.937 233.168 173.01C233.321 173.083 233.446 173.188 233.543 173.325C233.643 173.458 233.706 173.615 233.733 173.795H233.363C233.33 173.632 233.253 173.498 233.133 173.395C233.013 173.292 232.858 173.24 232.668 173.24C232.505 173.24 232.363 173.28 232.243 173.36C232.123 173.44 232.03 173.553 231.963 173.7C231.896 173.847 231.863 174.018 231.863 174.215C231.863 174.412 231.896 174.585 231.963 174.735C232.03 174.885 232.123 175.002 232.243 175.085C232.366 175.168 232.51 175.21 232.673 175.21C232.856 175.21 233.01 175.16 233.133 175.06C233.256 174.957 233.335 174.823 233.368 174.66H233.738C233.708 174.837 233.641 174.993 233.538 175.13C233.438 175.263 233.313 175.367 233.163 175.44C233.013 175.513 232.846 175.55 232.663 175.55ZM235.579 175.545C235.296 175.545 235.089 175.482 234.959 175.355C234.833 175.225 234.769 175.038 234.769 174.795V172.355L235.169 172.205V174.79C235.169 174.933 235.206 175.038 235.279 175.105C235.353 175.172 235.473 175.205 235.639 175.205C235.706 175.205 235.763 175.202 235.809 175.195C235.859 175.185 235.899 175.173 235.929 175.16V175.5C235.896 175.513 235.848 175.523 235.784 175.53C235.724 175.54 235.656 175.545 235.579 175.545ZM234.244 173.29V172.95H235.929V173.29H234.244Z" fill="black"/>
</svg>
