<svg xmlns="http://www.w3.org/2000/svg" width="315" height="222" fill="none"><path fill="#FFFAF4" stroke="#000" stroke-width="2" d="M1 1h312.164v220H1z"/><circle cx="15.809" cy="11.1" r="3.027" fill="#FFA8A8"/><circle cx="37.336" cy="11.1" r="3.027" fill="#7CC778"/><circle cx="26.573" cy="11.1" r="3.027" fill="#FFC97D"/><circle cx="26.573" cy="11.1" r="3.027" fill="#FFC97D"/><path fill="#000" d="M58.554 55.18c-1.128 0-2.028-.258-2.7-.774-.672-.528-1.056-1.272-1.152-2.232h1.386c.084.588.342 1.038.774 1.35.432.312 1.008.468 1.728.468.636 0 1.134-.12 1.494-.36.36-.24.54-.582.54-1.026 0-.312-.102-.582-.306-.81-.204-.24-.612-.438-1.224-.594l-1.476-.378c-.84-.216-1.47-.546-1.89-.99a2.311 2.311 0 0 1-.63-1.62c0-.792.294-1.416.882-1.872.588-.468 1.386-.702 2.394-.702.996 0 1.806.24 2.43.72.624.48.978 1.146 1.062 1.998H60.48c-.084-.492-.312-.87-.684-1.134-.372-.264-.864-.396-1.476-.396-.588 0-1.044.114-1.368.342-.324.216-.486.528-.486.936 0 .312.114.582.342.81.24.228.636.42 1.188.576l1.44.396c.852.228 1.494.576 1.926 1.044.432.468.648 1.032.648 1.692 0 .804-.306 1.434-.918 1.89-.612.444-1.458.666-2.538.666Zm9.966-.018c-1.02 0-1.764-.228-2.232-.684-.456-.468-.684-1.14-.684-2.016v-8.784l1.44-.54v9.306c0 .516.132.894.396 1.134.264.24.696.36 1.296.36.24 0 .444-.012.612-.036.18-.036.324-.078.432-.126V55c-.12.048-.294.084-.522.108a4.523 4.523 0 0 1-.738.054Zm-4.806-8.118V45.82h6.066v1.224h-6.066Zm12.388 8.136c-.876 0-1.65-.204-2.322-.612a4.44 4.44 0 0 1-1.584-1.71c-.384-.72-.576-1.548-.576-2.484 0-.936.186-1.758.558-2.466a4.143 4.143 0 0 1 1.602-1.674c.684-.396 1.47-.594 2.358-.594.852 0 1.59.186 2.214.558a3.679 3.679 0 0 1 1.458 1.566c.348.672.522 1.464.522 2.376a3.1 3.1 0 0 1-.018.342c0 .108-.012.228-.036.36H72.7v-1.206h6.696l-.468.666c0-1.104-.246-1.95-.738-2.538-.48-.6-1.164-.9-2.052-.9-.912 0-1.65.318-2.214.954-.552.624-.828 1.47-.828 2.538 0 1.092.276 1.968.828 2.628.564.648 1.314.972 2.25.972.588 0 1.104-.126 1.548-.378.444-.264.768-.636.972-1.116h1.368a4.01 4.01 0 0 1-1.512 1.998c-.696.48-1.512.72-2.448.72Zm11.834-.018c-.864 0-1.59-.21-2.178-.63-.588-.42-.99-1.014-1.206-1.782l.288-.036v5.976H83.4V45.82h1.35v2.142l-.198-.054c.228-.708.66-1.26 1.296-1.656.636-.408 1.374-.612 2.214-.612.816 0 1.524.198 2.124.594.612.396 1.086.948 1.422 1.656.336.708.504 1.536.504 2.484 0 .96-.174 1.8-.522 2.52-.348.72-.834 1.278-1.458 1.674-.624.396-1.356.594-2.196.594Zm-.216-1.26c.912 0 1.626-.312 2.142-.936.516-.636.774-1.5.774-2.592 0-1.08-.258-1.926-.774-2.538-.516-.624-1.23-.936-2.142-.936-.912 0-1.632.318-2.16.954-.528.624-.792 1.482-.792 2.574 0 1.068.264 1.914.792 2.538.528.624 1.248.936 2.16.936ZM102.329 55V43.516l.378.09c-.144.324-.42.648-.828.972a6.553 6.553 0 0 1-1.422.846 6.114 6.114 0 0 1-1.638.486v-1.386a6.345 6.345 0 0 0 1.62-.504c.516-.24.972-.528 1.368-.864.408-.348.708-.72.9-1.116h1.062V55h-1.44Zm4.828 0v-1.854h1.854V55h-1.854Zm0-6.84v-1.854h1.854v1.854h-1.854Zm13.177 7.02c-1.128 0-2.028-.258-2.7-.774-.672-.528-1.056-1.272-1.152-2.232h1.386c.084.588.342 1.038.774 1.35.432.312 1.008.468 1.728.468.636 0 1.134-.12 1.494-.36.36-.24.54-.582.54-1.026 0-.312-.102-.582-.306-.81-.204-.24-.612-.438-1.224-.594l-1.476-.378c-.84-.216-1.47-.546-1.89-.99a2.311 2.311 0 0 1-.63-1.62c0-.792.294-1.416.882-1.872.588-.468 1.386-.702 2.394-.702.996 0 1.806.24 2.43.72.624.48.978 1.146 1.062 1.998h-1.386c-.084-.492-.312-.87-.684-1.134-.372-.264-.864-.396-1.476-.396-.588 0-1.044.114-1.368.342-.324.216-.486.528-.486.936 0 .312.114.582.342.81.24.228.636.42 1.188.576l1.44.396c.852.228 1.494.576 1.926 1.044.432.468.648 1.032.648 1.692 0 .804-.306 1.434-.918 1.89-.612.444-1.458.666-2.538.666Zm10.372 0c-.876 0-1.65-.204-2.322-.612a4.44 4.44 0 0 1-1.584-1.71c-.384-.72-.576-1.548-.576-2.484 0-.936.186-1.758.558-2.466a4.143 4.143 0 0 1 1.602-1.674c.684-.396 1.47-.594 2.358-.594.852 0 1.59.186 2.214.558a3.679 3.679 0 0 1 1.458 1.566c.348.672.522 1.464.522 2.376a3.1 3.1 0 0 1-.018.342c0 .108-.012.228-.036.36h-7.578v-1.206H134l-.468.666c0-1.104-.246-1.95-.738-2.538-.48-.6-1.164-.9-2.052-.9-.912 0-1.65.318-2.214.954-.552.624-.828 1.47-.828 2.538 0 1.092.276 1.968.828 2.628.564.648 1.314.972 2.25.972.588 0 1.104-.126 1.548-.378.444-.264.768-.636.972-1.116h1.368a4.01 4.01 0 0 1-1.512 1.998c-.696.48-1.512.72-2.448.72Zm7.298-.18V42.04h1.44V55h-1.44Zm8.987.18c-.876 0-1.65-.204-2.322-.612a4.44 4.44 0 0 1-1.584-1.71c-.384-.72-.576-1.548-.576-2.484 0-.936.186-1.758.558-2.466a4.143 4.143 0 0 1 1.602-1.674c.684-.396 1.47-.594 2.358-.594.852 0 1.59.186 2.214.558a3.679 3.679 0 0 1 1.458 1.566c.348.672.522 1.464.522 2.376a3.1 3.1 0 0 1-.018.342c0 .108-.012.228-.036.36h-7.578v-1.206h6.696l-.468.666c0-1.104-.246-1.95-.738-2.538-.48-.6-1.164-.9-2.052-.9-.912 0-1.65.318-2.214.954-.552.624-.828 1.47-.828 2.538 0 1.092.276 1.968.828 2.628.564.648 1.314.972 2.25.972.588 0 1.104-.126 1.548-.378.444-.264.768-.636.972-1.116h1.368a4.01 4.01 0 0 1-1.512 1.998c-.696.48-1.512.72-2.448.72Zm10.934 0c-.84 0-1.59-.204-2.25-.612a4.54 4.54 0 0 1-1.548-1.71c-.372-.732-.558-1.56-.558-2.484 0-.924.186-1.74.558-2.448.384-.708.9-1.266 1.548-1.674.66-.408 1.404-.612 2.232-.612.684 0 1.296.132 1.836.396a3.446 3.446 0 0 1 1.35 1.134c.36.48.588 1.044.684 1.692h-1.332a2.503 2.503 0 0 0-.828-1.44c-.432-.372-.99-.558-1.674-.558-.588 0-1.098.144-1.53.432-.432.288-.768.696-1.008 1.224s-.36 1.146-.36 1.854c0 .708.12 1.332.36 1.872s.576.96 1.008 1.26c.444.3.96.45 1.548.45.66 0 1.212-.18 1.656-.54.444-.372.726-.852.846-1.44h1.332a3.821 3.821 0 0 1-.72 1.692c-.36.48-.81.852-1.35 1.116-.54.264-1.14.396-1.8.396Zm10.498-.018c-1.02 0-1.764-.228-2.232-.684-.456-.468-.684-1.14-.684-2.016v-8.784l1.44-.54v9.306c0 .516.132.894.396 1.134.264.24.696.36 1.296.36.24 0 .444-.012.612-.036.18-.036.324-.078.432-.126V55c-.12.048-.294.084-.522.108a4.523 4.523 0 0 1-.738.054Zm-4.806-8.118V45.82h6.066v1.224h-6.066ZM182.574 55a5.108 5.108 0 0 1-.108-.702c-.012-.264-.018-.6-.018-1.008h-.09v-4.392c0-.696-.162-1.206-.486-1.53-.312-.336-.822-.504-1.53-.504-.696 0-1.254.144-1.674.432-.408.276-.636.672-.684 1.188h-1.386c.06-.888.432-1.584 1.116-2.088.684-.504 1.578-.756 2.682-.756 1.14 0 1.986.27 2.538.81.552.54.828 1.35.828 2.43v4.41c0 .264.018.54.054.828.036.276.084.57.144.882h-1.386Zm-3.15.18c-.948 0-1.704-.228-2.268-.684-.552-.468-.828-1.104-.828-1.908 0-.804.276-1.428.828-1.872.552-.444 1.356-.756 2.412-.936l3.204-.54v1.188l-2.988.468c-.672.108-1.182.288-1.53.54-.348.252-.522.618-.522 1.098 0 .468.156.822.468 1.062.324.24.798.36 1.422.36.804 0 1.458-.18 1.962-.54.516-.372.774-.852.774-1.44l.234 1.278a2.469 2.469 0 0 1-1.134 1.422c-.552.336-1.23.504-2.034.504Zm13.273-.18V44.524c0-.84.24-1.494.72-1.962.492-.468 1.236-.702 2.232-.702.24 0 .426.012.558.036.144.024.264.054.36.09v1.134a3.118 3.118 0 0 0-.36-.072 2.851 2.851 0 0 0-.468-.036c-.552 0-.96.138-1.224.414-.252.276-.378.666-.378 1.17V55h-1.44Zm-1.89-7.956V45.82h5.562v1.224h-5.562ZM199.204 55v-9.18h1.35v2.34h.09V55h-1.44Zm1.44-4.788-.234-2.178c.216-.78.6-1.374 1.152-1.782a3.125 3.125 0 0 1 1.908-.612c.3 0 .504.024.612.072v1.386a.701.701 0 0 0-.252-.036 3.67 3.67 0 0 0-.396-.018c-.912 0-1.608.276-2.088.828-.468.54-.702 1.32-.702 2.34ZM212.225 55a5.108 5.108 0 0 1-.108-.702c-.012-.264-.018-.6-.018-1.008h-.09v-4.392c0-.696-.162-1.206-.486-1.53-.312-.336-.822-.504-1.53-.504-.696 0-1.254.144-1.674.432-.408.276-.636.672-.684 1.188h-1.386c.06-.888.432-1.584 1.116-2.088.684-.504 1.578-.756 2.682-.756 1.14 0 1.986.27 2.538.81.552.54.828 1.35.828 2.43v4.41c0 .264.018.54.054.828.036.276.084.57.144.882h-1.386Zm-3.15.18c-.948 0-1.704-.228-2.268-.684-.552-.468-.828-1.104-.828-1.908 0-.804.276-1.428.828-1.872.552-.444 1.356-.756 2.412-.936l3.204-.54v1.188l-2.988.468c-.672.108-1.182.288-1.53.54-.348.252-.522.618-.522 1.098 0 .468.156.822.468 1.062.324.24.798.36 1.422.36.804 0 1.458-.18 1.962-.54.516-.372.774-.852.774-1.44l.234 1.278a2.469 2.469 0 0 1-1.134 1.422c-.552.336-1.23.504-2.034.504Zm8.013-.18v-9.18h1.35v2.16h.09V55h-1.44Zm6.192 0v-6.084c0-.696-.156-1.206-.468-1.53-.312-.324-.762-.486-1.35-.486-.552 0-1.05.132-1.494.396-.444.264-.798.63-1.062 1.098-.252.468-.378 1.014-.378 1.638l-.234-2.178a3.689 3.689 0 0 1 1.404-1.62 3.724 3.724 0 0 1 2.034-.594c.888 0 1.608.264 2.16.792.552.516.828 1.218.828 2.106V55h-1.44Zm6.192 0v-6.084c0-.696-.156-1.206-.468-1.53-.312-.324-.762-.486-1.35-.486-.552 0-1.05.132-1.494.396-.444.264-.798.63-1.062 1.098-.252.468-.378 1.014-.378 1.638l-.36-2.178a3.622 3.622 0 0 1 1.44-1.62 3.934 3.934 0 0 1 2.088-.594c.888 0 1.614.264 2.178.792.564.516.846 1.218.846 2.106V55h-1.44Zm8.872.18c-.876 0-1.65-.204-2.322-.612a4.44 4.44 0 0 1-1.584-1.71c-.384-.72-.576-1.548-.576-2.484 0-.936.186-1.758.558-2.466a4.143 4.143 0 0 1 1.602-1.674c.684-.396 1.47-.594 2.358-.594.852 0 1.59.186 2.214.558a3.679 3.679 0 0 1 1.458 1.566c.348.672.522 1.464.522 2.376a3.1 3.1 0 0 1-.018.342c0 .108-.012.228-.036.36h-7.578v-1.206h6.696l-.468.666c0-1.104-.246-1.95-.738-2.538-.48-.6-1.164-.9-2.052-.9-.912 0-1.65.318-2.214.954-.552.624-.828 1.47-.828 2.538 0 1.092.276 1.968.828 2.628.564.648 1.314.972 2.25.972.588 0 1.104-.126 1.548-.378.444-.264.768-.636.972-1.116h1.368a4.01 4.01 0 0 1-1.512 1.998c-.696.48-1.512.72-2.448.72Z"/><path stroke="#000" stroke-width="2" d="M0 19.855h312.818"/><path fill="#FDB5CF" d="M55 71h43v92H55z"/><path fill="#A1E3F5" d="M106 71h43v92h-43z"/><path fill="#000" d="M68.254 157v-2.91c0-.233.067-.415.2-.545.137-.13.344-.195.62-.195.067 0 .119.003.156.01.04.007.073.015.1.025v.315a.862.862 0 0 0-.23-.03c-.154 0-.267.038-.34.115a.465.465 0 0 0-.106.325V157h-.4Zm-.525-2.21v-.34h1.546v.34h-1.546Zm3.296 2.26c-.25 0-.47-.058-.66-.175a1.223 1.223 0 0 1-.445-.475 1.49 1.49 0 0 1-.156-.685c0-.257.054-.483.16-.68a1.2 1.2 0 0 1 .44-.465c.19-.113.41-.17.66-.17.254 0 .474.057.66.17.19.113.337.268.44.465.107.197.16.423.16.68 0 .253-.053.482-.16.685a1.188 1.188 0 0 1-1.1.65Zm0-.34a.803.803 0 0 0 .45-.125.863.863 0 0 0 .294-.355c.07-.15.105-.323.105-.52 0-.293-.078-.528-.234-.705a.773.773 0 0 0-.615-.265.782.782 0 0 0-.616.265c-.156.177-.235.412-.235.705 0 .197.035.37.105.52.07.15.169.268.296.355.13.083.28.125.45.125Zm3.105.335c-.283 0-.49-.063-.62-.19-.127-.13-.19-.317-.19-.56v-2.44l.4-.15v2.585c0 .143.037.248.11.315.073.067.193.1.36.1.067 0 .123-.003.17-.01.05-.01.09-.022.12-.035v.34a.602.602 0 0 1-.145.03c-.06.01-.128.015-.205.015Zm-1.335-2.255v-.34h1.685v.34h-1.685Zm3.451 2.26c-.25 0-.47-.058-.66-.175a1.223 1.223 0 0 1-.445-.475 1.49 1.49 0 0 1-.155-.685c0-.257.053-.483.16-.68.107-.197.254-.352.44-.465.19-.113.41-.17.66-.17.254 0 .474.057.66.17.19.113.337.268.44.465.107.197.16.423.16.68 0 .253-.053.482-.16.685a1.187 1.187 0 0 1-1.1.65Zm0-.34a.802.802 0 0 0 .45-.125.862.862 0 0 0 .295-.355c.07-.15.105-.323.105-.52 0-.293-.078-.528-.235-.705a.772.772 0 0 0-.615-.265.782.782 0 0 0-.615.265c-.156.177-.235.412-.235.705 0 .197.035.37.105.52.07.15.168.268.295.355.13.083.28.125.45.125Zm2.11.29v-3.6h.4v3.6h-.4Zm3.016 0a1.446 1.446 0 0 1-.03-.195 6.44 6.44 0 0 1-.005-.28h-.025v-1.22c0-.193-.045-.335-.135-.425-.086-.093-.228-.14-.425-.14a.808.808 0 0 0-.465.12.427.427 0 0 0-.19.33h-.385a.747.747 0 0 1 .31-.58c.19-.14.439-.21.745-.21.317 0 .552.075.705.225.154.15.23.375.23.675v1.225c0 .073.005.15.015.23.01.077.024.158.04.245h-.385Zm-.875.05c-.263 0-.473-.063-.63-.19a.66.66 0 0 1-.23-.53c0-.223.077-.397.23-.52.154-.123.377-.21.67-.26l.89-.15v.33l-.83.13a1 1 0 0 0-.425.15.354.354 0 0 0-.145.305c0 .13.044.228.13.295.09.067.222.1.395.1.224 0 .405-.05.545-.15a.473.473 0 0 0 .215-.4l.065.355a.684.684 0 0 1-.315.395 1.07 1.07 0 0 1-.565.14Zm3.486-.005c-.24 0-.441-.058-.605-.175a.88.88 0 0 1-.335-.495l.055-.01V157h-.375v-3.6h.4v1.645l-.055-.015a.843.843 0 0 1 .345-.46c.17-.113.372-.17.605-.17a1.046 1.046 0 0 1 .985.625c.094.197.14.427.14.69 0 .267-.048.5-.145.7-.096.2-.231.355-.405.465-.173.11-.376.165-.61.165Zm-.06-.35c.254 0 .452-.087.595-.26.144-.177.215-.417.215-.72 0-.3-.071-.535-.215-.705-.143-.173-.341-.26-.595-.26a.738.738 0 0 0-.6.265c-.146.173-.22.412-.22.715 0 .297.074.532.22.705.147.173.347.26.6.26Z"/><path fill="#FFDAA6" d="M156 71h43v92h-43z"/><path fill="#D4C4E6" d="M207 71h43v92h-43z"/><path fill="#FFFAF4" d="M58 74h37v22H58zM58 99h37v22H58zM58 124h37v22H58z"/><path fill="#000" d="M119.255 157v-2.91c0-.233.066-.415.2-.545.136-.13.343-.195.62-.195.066 0 .118.003.155.01a.58.58 0 0 1 .1.025v.315a.914.914 0 0 0-.23-.03c-.154 0-.267.038-.34.115a.465.465 0 0 0-.105.325V157h-.4Zm-.525-2.21v-.34h1.545v.34h-1.545Zm3.294 2.26c-.25 0-.47-.058-.66-.175a1.226 1.226 0 0 1-.445-.475 1.494 1.494 0 0 1-.155-.685c0-.257.054-.483.16-.68.107-.197.254-.352.44-.465.19-.113.41-.17.66-.17.254 0 .474.057.66.17.19.113.337.268.44.465a1.4 1.4 0 0 1 .16.68c0 .253-.053.482-.16.685-.103.2-.25.358-.44.475a1.213 1.213 0 0 1-.66.175Zm0-.34a.8.8 0 0 0 .45-.125.86.86 0 0 0 .295-.355c.07-.15.105-.323.105-.52 0-.293-.078-.528-.235-.705a.771.771 0 0 0-.615-.265.783.783 0 0 0-.615.265c-.156.177-.235.412-.235.705 0 .197.035.37.105.52.07.15.169.268.295.355.13.083.28.125.45.125Zm3.106.335c-.283 0-.49-.063-.62-.19-.127-.13-.19-.317-.19-.56v-2.44l.4-.15v2.585c0 .143.037.248.11.315.073.067.193.1.36.1.067 0 .123-.003.17-.01.05-.01.09-.022.12-.035v.34a.601.601 0 0 1-.145.03c-.06.01-.128.015-.205.015Zm-1.335-2.255v-.34h1.685v.34h-1.685Zm3.451 2.26c-.25 0-.47-.058-.66-.175a1.226 1.226 0 0 1-.445-.475 1.494 1.494 0 0 1-.155-.685 1.4 1.4 0 0 1 .16-.68 1.2 1.2 0 0 1 .44-.465c.19-.113.41-.17.66-.17.253 0 .473.057.66.17.19.113.337.268.44.465a1.4 1.4 0 0 1 .16.68c0 .253-.053.482-.16.685-.103.2-.25.358-.44.475a1.218 1.218 0 0 1-.66.175Zm0-.34a.804.804 0 0 0 .45-.125.86.86 0 0 0 .295-.355c.07-.15.105-.323.105-.52 0-.293-.078-.528-.235-.705a.771.771 0 0 0-.615-.265.783.783 0 0 0-.615.265c-.157.177-.235.412-.235.705 0 .197.035.37.105.52a.86.86 0 0 0 .295.355c.13.083.28.125.45.125Zm2.11.29v-3.6h.4v3.6h-.4Zm3.016 0a1.548 1.548 0 0 1-.03-.195 6.96 6.96 0 0 1-.005-.28h-.025v-1.22c0-.193-.045-.335-.135-.425-.086-.093-.228-.14-.425-.14a.81.81 0 0 0-.465.12.43.43 0 0 0-.19.33h-.385a.748.748 0 0 1 .31-.58c.19-.14.439-.21.745-.21.317 0 .552.075.705.225.154.15.23.375.23.675v1.225c0 .073.005.15.015.23.01.077.024.158.04.245h-.385Zm-.875.05c-.263 0-.473-.063-.63-.19a.66.66 0 0 1-.23-.53c0-.223.077-.397.23-.52.154-.123.377-.21.67-.26l.89-.15v.33l-.83.13c-.186.03-.328.08-.425.15a.355.355 0 0 0-.145.305c0 .13.044.228.13.295.09.067.222.1.395.1.224 0 .405-.05.545-.15a.472.472 0 0 0 .215-.4l.065.355a.682.682 0 0 1-.315.395c-.153.093-.341.14-.565.14Zm3.486-.005c-.24 0-.441-.058-.605-.175a.882.882 0 0 1-.335-.495l.055-.01V157h-.375v-3.6h.4v1.645l-.055-.015a.849.849 0 0 1 .345-.46c.17-.113.372-.17.605-.17a1.044 1.044 0 0 1 .985.625c.094.197.14.427.14.69 0 .267-.048.5-.145.7-.096.2-.231.355-.405.465-.173.11-.376.165-.61.165Zm-.06-.35c.254 0 .452-.087.595-.26.144-.177.215-.417.215-.72 0-.3-.071-.535-.215-.705-.143-.173-.341-.26-.595-.26a.738.738 0 0 0-.6.265c-.146.173-.22.412-.22.715 0 .297.074.532.22.705.147.173.347.26.6.26Z"/><path fill="#FFFAF4" d="M109 74h37v22h-37zM109 99h37v22h-37zM109 124h37v22h-37z"/><path fill="#000" d="M169.255 157v-2.91c0-.233.066-.415.2-.545.136-.13.343-.195.62-.195.066 0 .118.003.155.01a.58.58 0 0 1 .1.025v.315a.914.914 0 0 0-.23-.03c-.154 0-.267.038-.34.115a.465.465 0 0 0-.105.325V157h-.4Zm-.525-2.21v-.34h1.545v.34h-1.545Zm3.294 2.26c-.25 0-.47-.058-.66-.175a1.226 1.226 0 0 1-.445-.475 1.494 1.494 0 0 1-.155-.685c0-.257.054-.483.16-.68.107-.197.254-.352.44-.465.19-.113.41-.17.66-.17.254 0 .474.057.66.17.19.113.337.268.44.465a1.4 1.4 0 0 1 .16.68c0 .253-.053.482-.16.685-.103.2-.25.358-.44.475a1.213 1.213 0 0 1-.66.175Zm0-.34a.8.8 0 0 0 .45-.125.86.86 0 0 0 .295-.355c.07-.15.105-.323.105-.52 0-.293-.078-.528-.235-.705a.771.771 0 0 0-.615-.265.783.783 0 0 0-.615.265c-.156.177-.235.412-.235.705 0 .197.035.37.105.52.07.15.169.268.295.355.13.083.28.125.45.125Zm3.106.335c-.283 0-.49-.063-.62-.19-.127-.13-.19-.317-.19-.56v-2.44l.4-.15v2.585c0 .143.037.248.11.315.073.067.193.1.36.1.067 0 .123-.003.17-.01.05-.01.09-.022.12-.035v.34a.601.601 0 0 1-.145.03c-.06.01-.128.015-.205.015Zm-1.335-2.255v-.34h1.685v.34h-1.685Zm3.451 2.26c-.25 0-.47-.058-.66-.175a1.226 1.226 0 0 1-.445-.475 1.494 1.494 0 0 1-.155-.685 1.4 1.4 0 0 1 .16-.68 1.2 1.2 0 0 1 .44-.465c.19-.113.41-.17.66-.17.253 0 .473.057.66.17.19.113.337.268.44.465a1.4 1.4 0 0 1 .16.68c0 .253-.053.482-.16.685-.103.2-.25.358-.44.475a1.218 1.218 0 0 1-.66.175Zm0-.34a.804.804 0 0 0 .45-.125.86.86 0 0 0 .295-.355c.07-.15.105-.323.105-.52 0-.293-.078-.528-.235-.705a.771.771 0 0 0-.615-.265.783.783 0 0 0-.615.265c-.157.177-.235.412-.235.705 0 .197.035.37.105.52a.86.86 0 0 0 .295.355c.13.083.28.125.45.125Zm2.11.29v-3.6h.4v3.6h-.4Zm3.016 0a1.548 1.548 0 0 1-.03-.195 6.96 6.96 0 0 1-.005-.28h-.025v-1.22c0-.193-.045-.335-.135-.425-.086-.093-.228-.14-.425-.14a.81.81 0 0 0-.465.12.43.43 0 0 0-.19.33h-.385a.748.748 0 0 1 .31-.58c.19-.14.439-.21.745-.21.317 0 .552.075.705.225.154.15.23.375.23.675v1.225c0 .073.005.15.015.23.01.077.024.158.04.245h-.385Zm-.875.05c-.263 0-.473-.063-.63-.19a.66.66 0 0 1-.23-.53c0-.223.077-.397.23-.52.154-.123.377-.21.67-.26l.89-.15v.33l-.83.13c-.186.03-.328.08-.425.15a.355.355 0 0 0-.145.305c0 .13.044.228.13.295.09.067.222.1.395.1.224 0 .405-.05.545-.15a.472.472 0 0 0 .215-.4l.065.355a.682.682 0 0 1-.315.395c-.153.093-.341.14-.565.14Zm3.486-.005c-.24 0-.441-.058-.605-.175a.882.882 0 0 1-.335-.495l.055-.01V157h-.375v-3.6h.4v1.645l-.055-.015a.849.849 0 0 1 .345-.46c.17-.113.372-.17.605-.17a1.044 1.044 0 0 1 .985.625c.094.197.14.427.14.69 0 .267-.048.5-.145.7-.096.2-.231.355-.405.465-.173.11-.376.165-.61.165Zm-.06-.35c.254 0 .452-.087.595-.26.144-.177.215-.417.215-.72 0-.3-.071-.535-.215-.705-.143-.173-.341-.26-.595-.26a.738.738 0 0 0-.6.265c-.146.173-.22.412-.22.715 0 .297.074.532.22.705.147.173.347.26.6.26Z"/><path fill="#FFFAF4" d="M159 74h37v22h-37z"/><rect width="43" height="10" x="55" y="169" fill="#FDB5CF" rx="5"/><rect width="43" height="10" x="106" y="169" fill="#FDB5CF" rx="5"/><rect width="43" height="10" x="156" y="169" fill="#FDB5CF" rx="5"/><rect width="43" height="10" x="207" y="169" fill="#FDB5CF" rx="5"/><path fill="#FFFAF4" d="M159 99h37v22h-37zM159 124h37v22h-37z"/><path fill="#000" d="M220.255 157v-2.91c0-.233.066-.415.2-.545.136-.13.343-.195.62-.195.066 0 .118.003.155.01a.58.58 0 0 1 .1.025v.315a.914.914 0 0 0-.23-.03c-.154 0-.267.038-.34.115a.465.465 0 0 0-.105.325V157h-.4Zm-.525-2.21v-.34h1.545v.34h-1.545Zm3.294 2.26c-.25 0-.47-.058-.66-.175a1.226 1.226 0 0 1-.445-.475 1.494 1.494 0 0 1-.155-.685c0-.257.054-.483.16-.68.107-.197.254-.352.44-.465.19-.113.41-.17.66-.17.254 0 .474.057.66.17.19.113.337.268.44.465a1.4 1.4 0 0 1 .16.68c0 .253-.053.482-.16.685-.103.2-.25.358-.44.475a1.213 1.213 0 0 1-.66.175Zm0-.34a.8.8 0 0 0 .45-.125.86.86 0 0 0 .295-.355c.07-.15.105-.323.105-.52 0-.293-.078-.528-.235-.705a.771.771 0 0 0-.615-.265.783.783 0 0 0-.615.265c-.156.177-.235.412-.235.705 0 .197.035.37.105.52.07.15.169.268.295.355.13.083.28.125.45.125Zm3.106.335c-.283 0-.49-.063-.62-.19-.127-.13-.19-.317-.19-.56v-2.44l.4-.15v2.585c0 .143.037.248.11.315.073.067.193.1.36.1.067 0 .123-.003.17-.01.05-.01.09-.022.12-.035v.34a.601.601 0 0 1-.145.03c-.06.01-.128.015-.205.015Zm-1.335-2.255v-.34h1.685v.34h-1.685Zm3.451 2.26c-.25 0-.47-.058-.66-.175a1.226 1.226 0 0 1-.445-.475 1.494 1.494 0 0 1-.155-.685 1.4 1.4 0 0 1 .16-.68 1.2 1.2 0 0 1 .44-.465c.19-.113.41-.17.66-.17.253 0 .473.057.66.17.19.113.337.268.44.465a1.4 1.4 0 0 1 .16.68c0 .253-.053.482-.16.685-.103.2-.25.358-.44.475a1.218 1.218 0 0 1-.66.175Zm0-.34a.804.804 0 0 0 .45-.125.86.86 0 0 0 .295-.355c.07-.15.105-.323.105-.52 0-.293-.078-.528-.235-.705a.771.771 0 0 0-.615-.265.783.783 0 0 0-.615.265c-.157.177-.235.412-.235.705 0 .197.035.37.105.52a.86.86 0 0 0 .295.355c.13.083.28.125.45.125Zm2.11.29v-3.6h.4v3.6h-.4Zm3.016 0a1.548 1.548 0 0 1-.03-.195 6.96 6.96 0 0 1-.005-.28h-.025v-1.22c0-.193-.045-.335-.135-.425-.086-.093-.228-.14-.425-.14a.81.81 0 0 0-.465.12.43.43 0 0 0-.19.33h-.385a.748.748 0 0 1 .31-.58c.19-.14.439-.21.745-.21.317 0 .552.075.705.225.154.15.23.375.23.675v1.225c0 .073.005.15.015.23.01.077.024.158.04.245h-.385Zm-.875.05c-.263 0-.473-.063-.63-.19a.66.66 0 0 1-.23-.53c0-.223.077-.397.23-.52.154-.123.377-.21.67-.26l.89-.15v.33l-.83.13c-.186.03-.328.08-.425.15a.355.355 0 0 0-.145.305c0 .13.044.228.13.295.09.067.222.1.395.1.224 0 .405-.05.545-.15a.472.472 0 0 0 .215-.4l.065.355a.682.682 0 0 1-.315.395c-.153.093-.341.14-.565.14Zm3.486-.005c-.24 0-.441-.058-.605-.175a.882.882 0 0 1-.335-.495l.055-.01V157h-.375v-3.6h.4v1.645l-.055-.015a.849.849 0 0 1 .345-.46c.17-.113.372-.17.605-.17a1.044 1.044 0 0 1 .985.625c.094.197.14.427.14.69 0 .267-.048.5-.145.7-.096.2-.231.355-.405.465-.173.11-.376.165-.61.165Zm-.06-.35c.254 0 .452-.087.595-.26.144-.177.215-.417.215-.72 0-.3-.071-.535-.215-.705-.143-.173-.341-.26-.595-.26a.738.738 0 0 0-.6.265c-.146.173-.22.412-.22.715 0 .297.074.532.22.705.147.173.347.26.6.26Z"/><path fill="#FFFAF4" d="M210 74h37v22h-37zM210 99h37v22h-37zM210 124h37v22h-37z"/><path fill="#000" d="M70.221 175.55c-.313 0-.563-.072-.75-.215a.858.858 0 0 1-.32-.62h.385a.534.534 0 0 0 .215.375c.12.087.28.13.48.13.177 0 .315-.033.415-.1.1-.067.15-.162.15-.285a.325.325 0 0 0-.085-.225c-.057-.067-.17-.122-.34-.165l-.41-.105c-.233-.06-.408-.152-.525-.275a.643.643 0 0 1-.175-.45c0-.22.082-.393.245-.52.163-.13.385-.195.665-.195.277 0 .502.067.675.2a.76.76 0 0 1 .295.555h-.385a.463.463 0 0 0-.19-.315.697.697 0 0 0-.41-.11.656.656 0 0 0-.38.095.294.294 0 0 0-.135.26c0 .087.032.162.095.225a.797.797 0 0 0 .33.16l.4.11c.237.063.415.16.535.29.12.13.18.287.18.47a.62.62 0 0 1-.255.525c-.17.123-.405.185-.705.185Zm2.881 0c-.243 0-.458-.057-.645-.17a1.236 1.236 0 0 1-.44-.475c-.106-.2-.16-.43-.16-.69 0-.26.052-.488.155-.685.107-.2.255-.355.445-.465.19-.11.409-.165.655-.165.237 0 .442.052.615.155.177.103.312.248.405.435a1.419 1.419 0 0 1 .14.755c0 .03-.003.063-.01.1h-2.105v-.335h1.86l-.13.185c0-.307-.068-.542-.205-.705-.133-.167-.323-.25-.57-.25a.782.782 0 0 0-.615.265c-.153.173-.23.408-.23.705 0 .303.077.547.23.73.157.18.365.27.625.27a.856.856 0 0 0 .43-.105.644.644 0 0 0 .27-.31h.38a1.116 1.116 0 0 1-1.1.755Zm2.027-.05v-3.6h.4v3.6h-.4Zm2.497.05a1.22 1.22 0 0 1-.645-.17 1.235 1.235 0 0 1-.44-.475c-.107-.2-.16-.43-.16-.69 0-.26.051-.488.155-.685.106-.2.255-.355.445-.465.19-.11.408-.165.655-.165.236 0 .441.052.615.155.176.103.311.248.405.435a1.42 1.42 0 0 1 .14.755c0 .03-.004.063-.01.1H76.68v-.335h1.86l-.13.185c0-.307-.069-.542-.205-.705-.134-.167-.324-.25-.57-.25a.782.782 0 0 0-.615.265c-.154.173-.23.408-.23.705 0 .303.076.547.23.73.156.18.365.27.625.27a.856.856 0 0 0 .43-.105.645.645 0 0 0 .27-.31h.38a1.117 1.117 0 0 1-1.1.755Zm3.037 0c-.233 0-.442-.057-.625-.17a1.264 1.264 0 0 1-.43-.475 1.5 1.5 0 0 1-.155-.69c0-.257.052-.483.155-.68a1.158 1.158 0 0 1 1.05-.635c.19 0 .36.037.51.11a.95.95 0 0 1 .375.315c.1.133.163.29.19.47h-.37a.695.695 0 0 0-.23-.4.689.689 0 0 0-.465-.155.748.748 0 0 0-.425.12.787.787 0 0 0-.28.34c-.067.147-.1.318-.1.515s.033.37.1.52c.067.15.16.267.28.35a.752.752 0 0 0 .43.125c.183 0 .337-.05.46-.15a.684.684 0 0 0 .235-.4h.37a1.06 1.06 0 0 1-.575.78c-.15.073-.317.11-.5.11Zm2.916-.005c-.283 0-.49-.063-.62-.19-.127-.13-.19-.317-.19-.56v-2.44l.4-.15v2.585c0 .143.037.248.11.315.074.067.194.1.36.1.067 0 .124-.003.17-.01.05-.01.09-.022.12-.035v.34a.602.602 0 0 1-.145.03c-.06.01-.128.015-.205.015Zm-1.335-2.255v-.34h1.685v.34h-1.685ZM121.221 175.55c-.313 0-.563-.072-.75-.215-.187-.147-.293-.353-.32-.62h.385a.533.533 0 0 0 .215.375c.12.087.28.13.48.13.177 0 .315-.033.415-.1.1-.067.15-.162.15-.285a.324.324 0 0 0-.085-.225c-.057-.067-.17-.122-.34-.165l-.41-.105c-.233-.06-.408-.152-.525-.275a.642.642 0 0 1-.175-.45c0-.22.082-.393.245-.52.163-.13.385-.195.665-.195.277 0 .502.067.675.2a.76.76 0 0 1 .295.555h-.385a.463.463 0 0 0-.19-.315.696.696 0 0 0-.41-.11.657.657 0 0 0-.38.095.294.294 0 0 0-.135.26c0 .087.032.162.095.225a.802.802 0 0 0 .33.16l.4.11c.237.063.415.16.535.29.12.13.18.287.18.47a.62.62 0 0 1-.255.525c-.17.123-.405.185-.705.185Zm2.881 0c-.243 0-.458-.057-.645-.17a1.243 1.243 0 0 1-.44-.475c-.106-.2-.16-.43-.16-.69 0-.26.052-.488.155-.685.107-.2.255-.355.445-.465.19-.11.409-.165.655-.165.237 0 .442.052.615.155.177.103.312.248.405.435a1.415 1.415 0 0 1 .14.755c0 .03-.003.063-.01.1h-2.105v-.335h1.86l-.13.185c0-.307-.068-.542-.205-.705-.133-.167-.323-.25-.57-.25a.783.783 0 0 0-.615.265c-.153.173-.23.408-.23.705 0 .303.077.547.23.73.157.18.365.27.625.27a.854.854 0 0 0 .43-.105.638.638 0 0 0 .27-.31h.38a1.113 1.113 0 0 1-.42.555c-.193.133-.42.2-.68.2Zm2.027-.05v-3.6h.4v3.6h-.4Zm2.497.05c-.244 0-.459-.057-.645-.17a1.228 1.228 0 0 1-.44-.475 1.44 1.44 0 0 1-.16-.69c0-.26.051-.488.155-.685.106-.2.255-.355.445-.465.19-.11.408-.165.655-.165.236 0 .441.052.615.155.176.103.311.248.405.435a1.427 1.427 0 0 1 .14.755c0 .03-.004.063-.01.1h-2.105v-.335h1.86l-.13.185c0-.307-.069-.542-.205-.705-.134-.167-.324-.25-.57-.25a.78.78 0 0 0-.615.265c-.154.173-.23.408-.23.705 0 .303.076.547.23.73.156.18.365.27.625.27a.859.859 0 0 0 .43-.105.648.648 0 0 0 .27-.31h.38a1.124 1.124 0 0 1-.42.555c-.194.133-.42.2-.68.2Zm3.037 0c-.233 0-.442-.057-.625-.17a1.266 1.266 0 0 1-.43-.475 1.504 1.504 0 0 1-.155-.69c0-.257.052-.483.155-.68a1.157 1.157 0 0 1 1.05-.635c.19 0 .36.037.51.11a.956.956 0 0 1 .375.315c.1.133.163.29.19.47h-.37a.693.693 0 0 0-.23-.4.689.689 0 0 0-.465-.155.749.749 0 0 0-.425.12.79.79 0 0 0-.28.34 1.23 1.23 0 0 0-.1.515c0 .197.033.37.1.52a.82.82 0 0 0 .28.35.752.752 0 0 0 .43.125c.183 0 .337-.05.46-.15a.685.685 0 0 0 .235-.4h.37a1.065 1.065 0 0 1-.575.78c-.15.073-.317.11-.5.11Zm2.916-.005c-.283 0-.49-.063-.62-.19-.126-.13-.19-.317-.19-.56v-2.44l.4-.15v2.585c0 .143.037.248.11.315.074.067.194.1.36.1.067 0 .124-.003.17-.01.05-.01.09-.022.12-.035v.34a.59.59 0 0 1-.145.03c-.06.01-.128.015-.205.015Zm-1.335-2.255v-.34h1.685v.34h-1.685ZM171.221 175.55c-.313 0-.563-.072-.75-.215-.187-.147-.293-.353-.32-.62h.385a.533.533 0 0 0 .215.375c.12.087.28.13.48.13.177 0 .315-.033.415-.1.1-.067.15-.162.15-.285a.324.324 0 0 0-.085-.225c-.057-.067-.17-.122-.34-.165l-.41-.105c-.233-.06-.408-.152-.525-.275a.642.642 0 0 1-.175-.45c0-.22.082-.393.245-.52.163-.13.385-.195.665-.195.277 0 .502.067.675.2a.76.76 0 0 1 .295.555h-.385a.463.463 0 0 0-.19-.315.696.696 0 0 0-.41-.11.657.657 0 0 0-.38.095.294.294 0 0 0-.135.26c0 .087.032.162.095.225a.802.802 0 0 0 .33.16l.4.11c.237.063.415.16.535.29.12.13.18.287.18.47a.62.62 0 0 1-.255.525c-.17.123-.405.185-.705.185Zm2.881 0c-.243 0-.458-.057-.645-.17a1.243 1.243 0 0 1-.44-.475c-.106-.2-.16-.43-.16-.69 0-.26.052-.488.155-.685.107-.2.255-.355.445-.465.19-.11.409-.165.655-.165.237 0 .442.052.615.155.177.103.312.248.405.435a1.415 1.415 0 0 1 .14.755c0 .03-.003.063-.01.1h-2.105v-.335h1.86l-.13.185c0-.307-.068-.542-.205-.705-.133-.167-.323-.25-.57-.25a.783.783 0 0 0-.615.265c-.153.173-.23.408-.23.705 0 .303.077.547.23.73.157.18.365.27.625.27a.854.854 0 0 0 .43-.105.638.638 0 0 0 .27-.31h.38a1.113 1.113 0 0 1-.42.555c-.193.133-.42.2-.68.2Zm2.027-.05v-3.6h.4v3.6h-.4Zm2.497.05c-.244 0-.459-.057-.645-.17a1.228 1.228 0 0 1-.44-.475 1.44 1.44 0 0 1-.16-.69c0-.26.051-.488.155-.685.106-.2.255-.355.445-.465.19-.11.408-.165.655-.165.236 0 .441.052.615.155.176.103.311.248.405.435a1.427 1.427 0 0 1 .14.755c0 .03-.004.063-.01.1h-2.105v-.335h1.86l-.13.185c0-.307-.069-.542-.205-.705-.134-.167-.324-.25-.57-.25a.78.78 0 0 0-.615.265c-.154.173-.23.408-.23.705 0 .303.076.547.23.73.156.18.365.27.625.27a.859.859 0 0 0 .43-.105.648.648 0 0 0 .27-.31h.38a1.124 1.124 0 0 1-.42.555c-.194.133-.42.2-.68.2Zm3.037 0c-.233 0-.442-.057-.625-.17a1.266 1.266 0 0 1-.43-.475 1.504 1.504 0 0 1-.155-.69c0-.257.052-.483.155-.68a1.157 1.157 0 0 1 1.05-.635c.19 0 .36.037.51.11a.956.956 0 0 1 .375.315c.1.133.163.29.19.47h-.37a.693.693 0 0 0-.23-.4.689.689 0 0 0-.465-.155.749.749 0 0 0-.425.12.79.79 0 0 0-.28.34 1.23 1.23 0 0 0-.1.515c0 .197.033.37.1.52a.82.82 0 0 0 .28.35.752.752 0 0 0 .43.125c.183 0 .337-.05.46-.15a.685.685 0 0 0 .235-.4h.37a1.065 1.065 0 0 1-.575.78c-.15.073-.317.11-.5.11Zm2.916-.005c-.283 0-.49-.063-.62-.19-.126-.13-.19-.317-.19-.56v-2.44l.4-.15v2.585c0 .143.037.248.11.315.074.067.194.1.36.1.067 0 .124-.003.17-.01.05-.01.09-.022.12-.035v.34a.59.59 0 0 1-.145.03c-.06.01-.128.015-.205.015Zm-1.335-2.255v-.34h1.685v.34h-1.685ZM222.221 175.55c-.313 0-.563-.072-.75-.215-.187-.147-.293-.353-.32-.62h.385a.533.533 0 0 0 .215.375c.12.087.28.13.48.13.177 0 .315-.033.415-.1.1-.067.15-.162.15-.285a.324.324 0 0 0-.085-.225c-.057-.067-.17-.122-.34-.165l-.41-.105c-.233-.06-.408-.152-.525-.275a.642.642 0 0 1-.175-.45c0-.22.082-.393.245-.52.163-.13.385-.195.665-.195.277 0 .502.067.675.2a.76.76 0 0 1 .295.555h-.385a.463.463 0 0 0-.19-.315.696.696 0 0 0-.41-.11.657.657 0 0 0-.38.095.294.294 0 0 0-.135.26c0 .087.032.162.095.225a.802.802 0 0 0 .33.16l.4.11c.237.063.415.16.535.29.12.13.18.287.18.47a.62.62 0 0 1-.255.525c-.17.123-.405.185-.705.185Zm2.881 0c-.243 0-.458-.057-.645-.17a1.243 1.243 0 0 1-.44-.475c-.106-.2-.16-.43-.16-.69 0-.26.052-.488.155-.685.107-.2.255-.355.445-.465.19-.11.409-.165.655-.165.237 0 .442.052.615.155.177.103.312.248.405.435a1.415 1.415 0 0 1 .14.755c0 .03-.003.063-.01.1h-2.105v-.335h1.86l-.13.185c0-.307-.068-.542-.205-.705-.133-.167-.323-.25-.57-.25a.783.783 0 0 0-.615.265c-.153.173-.23.408-.23.705 0 .303.077.547.23.73.157.18.365.27.625.27a.854.854 0 0 0 .43-.105.638.638 0 0 0 .27-.31h.38a1.113 1.113 0 0 1-.42.555c-.193.133-.42.2-.68.2Zm2.027-.05v-3.6h.4v3.6h-.4Zm2.497.05c-.244 0-.459-.057-.645-.17a1.228 1.228 0 0 1-.44-.475 1.44 1.44 0 0 1-.16-.69c0-.26.051-.488.155-.685.106-.2.255-.355.445-.465.19-.11.408-.165.655-.165.236 0 .441.052.615.155.176.103.311.248.405.435a1.427 1.427 0 0 1 .14.755c0 .03-.004.063-.01.1h-2.105v-.335h1.86l-.13.185c0-.307-.069-.542-.205-.705-.134-.167-.324-.25-.57-.25a.78.78 0 0 0-.615.265c-.154.173-.23.408-.23.705 0 .303.076.547.23.73.156.18.365.27.625.27a.859.859 0 0 0 .43-.105.648.648 0 0 0 .27-.31h.38a1.124 1.124 0 0 1-.42.555c-.194.133-.42.2-.68.2Zm3.037 0c-.233 0-.442-.057-.625-.17a1.266 1.266 0 0 1-.43-.475 1.504 1.504 0 0 1-.155-.69c0-.257.052-.483.155-.68a1.157 1.157 0 0 1 1.05-.635c.19 0 .36.037.51.11a.956.956 0 0 1 .375.315c.1.133.163.29.19.47h-.37a.693.693 0 0 0-.23-.4.689.689 0 0 0-.465-.155.749.749 0 0 0-.425.12.79.79 0 0 0-.28.34 1.23 1.23 0 0 0-.1.515c0 .197.033.37.1.52a.82.82 0 0 0 .28.35.752.752 0 0 0 .43.125c.183 0 .337-.05.46-.15a.685.685 0 0 0 .235-.4h.37a1.065 1.065 0 0 1-.575.78c-.15.073-.317.11-.5.11Zm2.916-.005c-.283 0-.49-.063-.62-.19-.126-.13-.19-.317-.19-.56v-2.44l.4-.15v2.585c0 .143.037.248.11.315.074.067.194.1.36.1.067 0 .124-.003.17-.01.05-.01.09-.022.12-.035v.34a.59.59 0 0 1-.145.03c-.06.01-.128.015-.205.015Zm-1.335-2.255v-.34h1.685v.34h-1.685Z"/></svg>