<svg xmlns="http://www.w3.org/2000/svg" width="315" height="222" fill="none"><path fill="#FFFAF4" stroke="#000" stroke-width="2" d="M1 1h312.164v220H1z"/><circle cx="15.809" cy="11.1" r="3.027" fill="#FFA8A8"/><circle cx="37.336" cy="11.1" r="3.027" fill="#7CC778"/><circle cx="26.573" cy="11.1" r="3.027" fill="#FFC97D"/><circle cx="26.573" cy="11.1" r="3.027" fill="#FFC97D"/><path fill="#fff" stroke="#000" d="M54.318 82.809h205.527v115.382H54.318z"/><path fill="#000" d="M58.048 53.16c-1.003 0-1.803-.23-2.4-.688-.597-.47-.939-1.13-1.024-1.984h1.232c.075.523.304.923.688 1.2.384.277.896.416 1.536.416.565 0 1.008-.107 1.328-.32.32-.213.48-.517.48-.912 0-.277-.09-.517-.272-.72-.181-.213-.544-.39-1.088-.528l-1.312-.336c-.747-.192-1.307-.485-1.68-.88a2.054 2.054 0 0 1-.56-1.44c0-.704.261-1.259.784-1.664.523-.416 1.232-.624 2.128-.624.885 0 1.605.213 2.16.64.555.427.87 1.019.944 1.776H59.76c-.075-.437-.277-.773-.608-1.008-.33-.235-.768-.352-1.312-.352-.523 0-.928.101-1.216.304-.288.192-.432.47-.432.832 0 .277.101.517.304.72.213.203.565.373 1.056.512l1.28.352c.757.203 1.328.512 1.712.928.384.416.576.917.576 1.504 0 .715-.272 1.275-.816 1.68-.544.395-1.296.592-2.256.592Zm8.858-.016c-.906 0-1.568-.203-1.984-.608-.405-.416-.608-1.013-.608-1.792v-7.808l1.28-.48v8.272c0 .459.118.795.353 1.008.234.213.618.32 1.151.32.214 0 .395-.01.544-.032.16-.032.288-.07.385-.112V53a1.823 1.823 0 0 1-.465.096c-.191.032-.41.048-.656.048Zm-4.272-7.216V44.84h5.392v1.088h-5.391Zm11.012 7.232c-.779 0-1.467-.181-2.064-.544a3.946 3.946 0 0 1-1.408-1.52c-.342-.64-.512-1.376-.512-2.208 0-.832.165-1.563.496-2.192a3.682 3.682 0 0 1 1.424-1.488c.608-.352 1.306-.528 2.096-.528.757 0 1.413.165 1.968.496.565.33.997.795 1.296 1.392.31.597.464 1.301.464 2.112 0 .107-.006.208-.016.304 0 .096-.01.203-.032.32h-6.736v-1.072h5.952l-.416.592c0-.981-.219-1.733-.656-2.256-.427-.533-1.035-.8-1.824-.8-.81 0-1.467.283-1.968.848-.49.555-.736 1.307-.736 2.256 0 .97.245 1.75.736 2.336.501.576 1.168.864 2 .864.523 0 .981-.112 1.376-.336.395-.235.683-.565.864-.992h1.216a3.564 3.564 0 0 1-1.344 1.776c-.619.427-1.344.64-2.176.64Zm10.52-.016c-.769 0-1.414-.187-1.937-.56-.522-.373-.88-.901-1.072-1.584l.256-.032v5.312h-1.28V44.84h1.2v1.904l-.176-.048c.203-.63.587-1.12 1.152-1.472.566-.363 1.222-.544 1.968-.544.725 0 1.355.176 1.888.528.544.352.965.843 1.264 1.472.299.63.448 1.365.448 2.208 0 .853-.154 1.6-.464 2.24-.31.64-.741 1.136-1.296 1.488-.555.352-1.205.528-1.952.528Zm-.193-1.12c.81 0 1.445-.277 1.904-.832.459-.565.688-1.333.688-2.304 0-.96-.23-1.712-.688-2.256-.459-.555-1.093-.832-1.904-.832-.81 0-1.45.283-1.92.848-.47.555-.704 1.317-.704 2.288 0 .95.235 1.701.704 2.256.47.555 1.11.832 1.92.832ZM94 53v-1.12a64.758 64.758 0 0 0 2.88-2.496c.779-.715 1.398-1.35 1.856-1.904.47-.555.8-1.061.992-1.52.203-.47.304-.928.304-1.376 0-.661-.197-1.179-.592-1.552-.394-.373-.938-.56-1.632-.56-.714 0-1.29.203-1.728.608-.437.405-.704.987-.8 1.744h-1.376c.107-1.045.507-1.888 1.2-2.528.704-.65 1.638-.976 2.8-.976 1.078 0 1.936.288 2.576.864.64.576.96 1.365.96 2.368 0 .544-.106 1.088-.32 1.632-.202.544-.544 1.115-1.024 1.712-.469.597-1.093 1.259-1.872 1.984a49.08 49.08 0 0 1-2.864 2.432l-.304-.464h6.576V53h-7.632Zm9.986 0v-1.648h1.648V53h-1.648Zm0-6.08v-1.648h1.648v1.648h-1.648Zm12.209 6.224c-.907 0-1.568-.203-1.984-.608-.405-.416-.608-1.013-.608-1.792v-7.808l1.28-.48v8.272c0 .459.117.795.352 1.008.235.213.619.32 1.152.32.213 0 .395-.01.544-.032.16-.032.288-.07.384-.112V53a1.823 1.823 0 0 1-.464.096 4.024 4.024 0 0 1-.656.048Zm-4.272-7.216V44.84h5.392v1.088h-5.392ZM124.769 53a4.753 4.753 0 0 1-.096-.624c-.01-.235-.016-.533-.016-.896h-.08v-3.904c0-.619-.144-1.072-.432-1.36-.277-.299-.73-.448-1.36-.448-.618 0-1.114.128-1.488.384-.362.245-.565.597-.608 1.056h-1.232c.054-.79.384-1.408.992-1.856.608-.448 1.403-.672 2.384-.672 1.014 0 1.766.24 2.256.72.491.48.736 1.2.736 2.16v3.92c0 .235.016.48.048.736.032.245.075.507.128.784h-1.232Zm-2.8.16c-.842 0-1.514-.203-2.016-.608-.49-.416-.736-.981-.736-1.696s.246-1.27.736-1.664c.491-.395 1.206-.672 2.144-.832l2.848-.48v1.056l-2.656.416c-.597.096-1.05.256-1.36.48-.309.224-.464.55-.464.976 0 .416.139.73.416.944.288.213.71.32 1.264.32.715 0 1.296-.16 1.744-.48.459-.33.688-.757.688-1.28l.208 1.136a2.19 2.19 0 0 1-1.008 1.264c-.49.299-1.093.448-1.808.448Zm7.124-.16V41.16h1.28V53h-1.28Zm5.328 0-4.336-4.24 4.176-3.92h1.76l-4.688 4.288.08-.752L136.181 53h-1.76Zm6.894.16c-.779 0-1.467-.181-2.064-.544a3.939 3.939 0 0 1-1.408-1.52c-.342-.64-.512-1.376-.512-2.208 0-.832.165-1.563.496-2.192a3.68 3.68 0 0 1 1.424-1.488c.608-.352 1.306-.528 2.096-.528.757 0 1.413.165 1.968.496.565.33.997.795 1.296 1.392.309.597.464 1.301.464 2.112 0 .107-.006.208-.016.304 0 .096-.011.203-.032.32h-6.736v-1.072h5.952l-.416.592c0-.981-.219-1.733-.656-2.256-.427-.533-1.035-.8-1.824-.8-.811 0-1.467.283-1.968.848-.491.555-.736 1.307-.736 2.256 0 .97.245 1.75.736 2.336.501.576 1.168.864 2 .864.522 0 .981-.112 1.376-.336a2.07 2.07 0 0 0 .864-.992h1.216a3.567 3.567 0 0 1-1.344 1.776c-.619.427-1.344.64-2.176.64Zm14.522-.016c-.768 0-1.413-.187-1.936-.56-.523-.373-.88-.901-1.072-1.584l.256-.032v5.312h-1.28V44.84h1.2v1.904l-.176-.048a2.64 2.64 0 0 1 1.152-1.472c.565-.363 1.221-.544 1.968-.544.725 0 1.355.176 1.888.528.544.352.965.843 1.264 1.472.299.63.448 1.365.448 2.208 0 .853-.155 1.6-.464 2.24-.309.64-.741 1.136-1.296 1.488-.555.352-1.205.528-1.952.528Zm-.192-1.12c.811 0 1.445-.277 1.904-.832.459-.565.688-1.333.688-2.304 0-.96-.229-1.712-.688-2.256-.459-.555-1.093-.832-1.904-.832-.811 0-1.451.283-1.92.848-.469.555-.704 1.317-.704 2.288 0 .95.235 1.701.704 2.256.469.555 1.109.832 1.92.832Zm6.632.976v-8.16h1.28V53h-1.28Zm-.096-10.016V41.48h1.472v1.504h-1.472Zm7.94 10.176c-.746 0-1.413-.181-2-.544a4.04 4.04 0 0 1-1.376-1.52c-.33-.65-.496-1.387-.496-2.208 0-.821.166-1.547.496-2.176.342-.63.8-1.125 1.376-1.488a3.697 3.697 0 0 1 1.984-.544c.608 0 1.152.117 1.632.352.491.235.891.57 1.2 1.008.32.427.523.928.608 1.504h-1.184a2.221 2.221 0 0 0-.736-1.28c-.384-.33-.88-.496-1.488-.496-.522 0-.976.128-1.36.384-.384.256-.682.619-.896 1.088-.213.47-.32 1.019-.32 1.648 0 .63.107 1.184.32 1.664.214.48.512.853.896 1.12a2.4 2.4 0 0 0 1.376.4c.587 0 1.078-.16 1.472-.48.395-.33.646-.757.752-1.28h1.184a3.393 3.393 0 0 1-.64 1.504 3.28 3.28 0 0 1-1.2.992 3.592 3.592 0 0 1-1.6.352Zm8.868 0c-1.003 0-1.803-.23-2.4-.688-.598-.47-.939-1.13-1.024-1.984h1.232c.074.523.304.923.688 1.2.384.277.896.416 1.536.416.565 0 1.008-.107 1.328-.32.32-.213.48-.517.48-.912 0-.277-.091-.517-.272-.72-.182-.213-.544-.39-1.088-.528l-1.312-.336c-.747-.192-1.307-.485-1.68-.88a2.051 2.051 0 0 1-.56-1.44c0-.704.261-1.259.784-1.664.522-.416 1.232-.624 2.128-.624.885 0 1.605.213 2.16.64.554.427.869 1.019.944 1.776h-1.232c-.075-.437-.278-.773-.608-1.008-.331-.235-.768-.352-1.312-.352-.523 0-.928.101-1.216.304-.288.192-.432.47-.432.832 0 .277.101.517.304.72.213.203.565.373 1.056.512l1.28.352c.757.203 1.328.512 1.712.928.384.416.576.917.576 1.504 0 .715-.272 1.275-.816 1.68-.544.395-1.296.592-2.256.592Zm14.605-.16a4.753 4.753 0 0 1-.096-.624c-.01-.235-.016-.533-.016-.896h-.08v-3.904c0-.619-.144-1.072-.432-1.36-.277-.299-.73-.448-1.36-.448-.618 0-1.114.128-1.488.384-.362.245-.565.597-.608 1.056h-1.232c.054-.79.384-1.408.992-1.856.608-.448 1.403-.672 2.384-.672 1.014 0 1.766.24 2.256.72.491.48.736 1.2.736 2.16v3.92c0 .235.016.48.048.736.032.245.075.507.128.784h-1.232Zm-2.8.16c-.842 0-1.514-.203-2.016-.608-.49-.416-.736-.981-.736-1.696s.246-1.27.736-1.664c.491-.395 1.206-.672 2.144-.832l2.848-.48v1.056l-2.656.416c-.597.096-1.05.256-1.36.48-.309.224-.464.55-.464.976 0 .416.139.73.416.944.288.213.71.32 1.264.32.715 0 1.296-.16 1.744-.48.459-.33.688-.757.688-1.28l.208 1.136a2.19 2.19 0 0 1-1.008 1.264c-.49.299-1.093.448-1.808.448Zm7.123-.16v-8.16h1.2v1.92h.08V53h-1.28Zm5.84 0v-5.344c0-.619-.154-1.083-.464-1.392-.309-.31-.768-.464-1.376-.464-.533 0-1.008.117-1.424.352-.405.235-.725.56-.96.976-.224.416-.336.901-.336 1.456l-.208-1.936a3.254 3.254 0 0 1 1.264-1.44c.576-.352 1.227-.528 1.952-.528.854 0 1.536.245 2.048.736.523.48.784 1.115.784 1.904V53h-1.28Zm10.475 0v-1.904l.16.048a2.754 2.754 0 0 1-1.12 1.472c-.534.363-1.174.544-1.92.544-.736 0-1.382-.176-1.936-.528-.544-.352-.971-.843-1.28-1.472-.299-.63-.448-1.365-.448-2.208 0-.853.154-1.6.464-2.24.309-.64.741-1.136 1.296-1.488.554-.352 1.205-.528 1.952-.528.768 0 1.413.187 1.936.56.522.373.88.901 1.072 1.584l-.256.032V41.48h1.28V53h-1.2Zm-2.64-.96c.821 0 1.461-.277 1.92-.832.469-.565.704-1.333.704-2.304 0-.95-.235-1.701-.704-2.256-.47-.555-1.11-.832-1.92-.832-.811 0-1.446.277-1.904.832-.459.555-.688 1.323-.688 2.304 0 .96.229 1.717.688 2.272.458.544 1.093.816 1.904.816ZM58.512 68.16c-.747 0-1.413-.181-2-.544a4.035 4.035 0 0 1-1.376-1.52c-.33-.65-.496-1.387-.496-2.208 0-.821.165-1.547.496-2.176a3.94 3.94 0 0 1 1.376-1.488 3.696 3.696 0 0 1 1.984-.544c.608 0 1.152.117 1.632.352.49.235.89.57 1.2 1.008.32.427.523.928.608 1.504h-1.184a2.225 2.225 0 0 0-.736-1.28c-.384-.33-.88-.496-1.488-.496-.523 0-.976.128-1.36.384-.384.256-.683.619-.896 1.088-.213.47-.32 1.019-.32 1.648 0 .63.107 1.184.32 1.664.213.48.512.853.896 1.12.395.267.853.4 1.376.4.587 0 1.077-.16 1.472-.48a2.19 2.19 0 0 0 .752-1.28h1.184a3.396 3.396 0 0 1-.64 1.504 3.28 3.28 0 0 1-1.2.992 3.593 3.593 0 0 1-1.6.352Zm6.1-.16V56.48h1.28V68h-1.28Zm5.84 0v-5.344c0-.619-.155-1.083-.465-1.392-.31-.31-.768-.464-1.376-.464-.533 0-1.008.117-1.424.352-.405.235-.725.56-.96.976-.224.416-.336.901-.336 1.456l-.208-1.936a3.248 3.248 0 0 1 1.264-1.44c.576-.352 1.227-.528 1.952-.528.854 0 1.536.245 2.048.736.523.48.784 1.115.784 1.904V68h-1.28Zm7.93.16c-.8 0-1.505-.187-2.113-.56a3.907 3.907 0 0 1-1.424-1.52c-.33-.65-.496-1.381-.496-2.192 0-.821.171-1.547.512-2.176.342-.63.811-1.125 1.408-1.488.608-.363 1.312-.544 2.112-.544.811 0 1.515.181 2.112.544a3.709 3.709 0 0 1 1.408 1.488c.342.63.512 1.355.512 2.176 0 .81-.17 1.541-.512 2.192-.33.64-.8 1.147-1.408 1.52-.597.373-1.301.56-2.112.56Zm0-1.088c.554 0 1.034-.133 1.44-.4.405-.277.72-.656.943-1.136.224-.48.336-1.035.336-1.664 0-.939-.25-1.69-.752-2.256-.49-.565-1.146-.848-1.968-.848-.81 0-1.466.283-1.968.848-.501.565-.752 1.317-.752 2.256 0 .63.112 1.184.336 1.664.224.48.539.859.944 1.136.416.267.896.4 1.44.4Zm10.143 1.088c-.8 0-1.504-.187-2.112-.56a3.907 3.907 0 0 1-1.424-1.52c-.33-.65-.496-1.381-.496-2.192 0-.821.17-1.547.512-2.176.342-.63.81-1.125 1.408-1.488.608-.363 1.312-.544 2.112-.544.81 0 1.515.181 2.112.544a3.708 3.708 0 0 1 1.408 1.488c.341.63.512 1.355.512 2.176 0 .81-.17 1.541-.512 2.192-.33.64-.8 1.147-1.408 1.52-.597.373-1.301.56-2.112.56Zm0-1.088c.555 0 1.035-.133 1.44-.4.406-.277.72-.656.944-1.136.224-.48.336-1.035.336-1.664 0-.939-.25-1.69-.752-2.256-.49-.565-1.146-.848-1.968-.848-.81 0-1.467.283-1.968.848-.501.565-.752 1.317-.752 2.256 0 .63.112 1.184.336 1.664.224.48.539.859.944 1.136.416.267.896.4 1.44.4Zm9.52 1.088c-1.003 0-1.803-.23-2.4-.688-.597-.47-.939-1.13-1.024-1.984h1.232c.075.523.304.923.688 1.2.384.277.896.416 1.536.416.565 0 1.008-.107 1.328-.32.32-.213.48-.517.48-.912 0-.277-.09-.517-.272-.72-.181-.213-.544-.39-1.088-.528l-1.312-.336c-.747-.192-1.307-.485-1.68-.88a2.054 2.054 0 0 1-.56-1.44c0-.704.261-1.259.784-1.664.522-.416 1.232-.624 2.128-.624.885 0 1.605.213 2.16.64.555.427.869 1.019.944 1.776h-1.232c-.075-.437-.278-.773-.608-1.008-.33-.235-.768-.352-1.312-.352-.523 0-.928.101-1.216.304-.288.192-.432.47-.432.832 0 .277.101.517.304.72.213.203.565.373 1.056.512l1.28.352c.757.203 1.328.512 1.712.928.384.416.576.917.576 1.504 0 .715-.272 1.275-.816 1.68-.544.395-1.296.592-2.256.592Zm9.22 0c-.779 0-1.467-.181-2.064-.544a3.939 3.939 0 0 1-1.408-1.52c-.342-.64-.512-1.376-.512-2.208 0-.832.165-1.563.496-2.192a3.68 3.68 0 0 1 1.424-1.488c.608-.352 1.306-.528 2.096-.528.757 0 1.413.165 1.968.496.565.33.997.795 1.296 1.392.309.597.464 1.301.464 2.112 0 .107-.006.208-.016.304 0 .096-.011.203-.032.32h-6.736v-1.072h5.952l-.416.592c0-.981-.219-1.733-.656-2.256-.427-.533-1.035-.8-1.824-.8-.811 0-1.467.283-1.968.848-.491.555-.736 1.307-.736 2.256 0 .97.245 1.75.736 2.336.501.576 1.168.864 2 .864.522 0 .981-.112 1.376-.336a2.07 2.07 0 0 0 .864-.992h1.216a3.567 3.567 0 0 1-1.344 1.776c-.619.427-1.344.64-2.176.64Zm11.194 3.12 1.824-4.24.288-.448 2.672-6.752h1.312l-4.736 11.44h-1.36Zm1.968-3.2-3.664-8.24h1.408l3.152 7.376-.896.864Zm9.692.08c-.8 0-1.504-.187-2.112-.56a3.904 3.904 0 0 1-1.424-1.52c-.331-.65-.496-1.381-.496-2.192 0-.821.171-1.547.512-2.176a3.858 3.858 0 0 1 1.408-1.488c.608-.363 1.312-.544 2.112-.544.811 0 1.515.181 2.112.544a3.71 3.71 0 0 1 1.408 1.488c.341.63.512 1.355.512 2.176 0 .81-.171 1.541-.512 2.192-.331.64-.8 1.147-1.408 1.52-.597.373-1.301.56-2.112.56Zm0-1.088c.555 0 1.035-.133 1.44-.4.405-.277.72-.656.944-1.136.224-.48.336-1.035.336-1.664 0-.939-.251-1.69-.752-2.256-.491-.565-1.147-.848-1.968-.848-.811 0-1.467.283-1.968.848-.501.565-.752 1.317-.752 2.256 0 .63.112 1.184.336 1.664.224.48.539.859.944 1.136.416.267.896.4 1.44.4Zm9.408 1.088c-.534 0-1.008-.107-1.424-.32a2.473 2.473 0 0 1-.976-.928 2.724 2.724 0 0 1-.352-1.392v-5.68h1.28v5.344c0 .619.149 1.083.448 1.392.309.31.746.464 1.312.464a2.61 2.61 0 0 0 1.36-.352c.394-.235.704-.56.928-.976.234-.427.352-.912.352-1.456l.208 1.936a3.155 3.155 0 0 1-1.248 1.44 3.502 3.502 0 0 1-1.888.528Zm3.008-.16v-1.92h-.08v-6.24h1.28V68h-1.2Zm4.558 0v-8.16h1.2v2.08h.08V68h-1.28Zm1.28-4.256-.209-1.936c.193-.693.534-1.221 1.025-1.584a2.776 2.776 0 0 1 1.696-.544c.266 0 .448.021.544.064v1.232a.626.626 0 0 0-.224-.032 3.262 3.262 0 0 0-.352-.016c-.811 0-1.43.245-1.856.736-.416.48-.624 1.173-.624 2.08ZM158.568 68v-9.312c0-.747.213-1.328.64-1.744.437-.416 1.098-.624 1.984-.624.213 0 .378.01.496.032.128.021.234.048.32.08v1.008a2.818 2.818 0 0 0-.32-.064 2.54 2.54 0 0 0-.416-.032c-.491 0-.854.123-1.088.368-.224.245-.336.592-.336 1.04V68h-1.28Zm-1.68-7.072V59.84h4.944v1.088h-4.944ZM169.126 68a4.44 4.44 0 0 1-.096-.624 19.924 19.924 0 0 1-.016-.896h-.08v-3.904c0-.619-.144-1.072-.432-1.36-.278-.299-.731-.448-1.36-.448-.619 0-1.115.128-1.488.384-.363.245-.566.597-.608 1.056h-1.232c.053-.79.384-1.408.992-1.856.608-.448 1.402-.672 2.384-.672 1.013 0 1.765.24 2.256.72.49.48.736 1.2.736 2.16v3.92c0 .235.016.48.048.736.032.245.074.507.128.784h-1.232Zm-2.8.16c-.843 0-1.515-.203-2.016-.608-.491-.416-.736-.981-.736-1.696s.245-1.27.736-1.664c.49-.395 1.205-.672 2.144-.832l2.848-.48v1.056l-2.656.416c-.598.096-1.051.256-1.36.48-.31.224-.464.55-.464.976 0 .416.138.73.416.944.288.213.709.32 1.264.32.714 0 1.296-.16 1.744-.48.458-.33.688-.757.688-1.28l.208 1.136a2.197 2.197 0 0 1-1.008 1.264c-.491.299-1.094.448-1.808.448Zm9.194-.16-3.376-8.16h1.376l2.816 7.296h-.512l2.8-7.296h1.312L176.56 68h-1.04Zm14.186.16c-.8 0-1.504-.187-2.112-.56a3.912 3.912 0 0 1-1.424-1.52c-.33-.65-.496-1.381-.496-2.192 0-.821.171-1.547.512-2.176a3.865 3.865 0 0 1 1.408-1.488c.608-.363 1.312-.544 2.112-.544.811 0 1.515.181 2.112.544a3.704 3.704 0 0 1 1.408 1.488c.342.63.512 1.355.512 2.176 0 .81-.17 1.541-.512 2.192-.33.64-.8 1.147-1.408 1.52-.597.373-1.301.56-2.112.56Zm0-1.088c.555 0 1.035-.133 1.44-.4.406-.277.72-.656.944-1.136.224-.48.336-1.035.336-1.664 0-.939-.25-1.69-.752-2.256-.49-.565-1.146-.848-1.968-.848-.81 0-1.466.283-1.968.848-.501.565-.752 1.317-.752 2.256 0 .63.112 1.184.336 1.664.224.48.539.859.944 1.136.416.267.896.4 1.44.4Zm6.752.928v-8.16h1.2v1.92h.08V68h-1.28Zm5.84 0v-5.344c0-.619-.155-1.083-.464-1.392-.309-.31-.768-.464-1.376-.464-.533 0-1.008.117-1.424.352-.405.235-.725.56-.96.976-.224.416-.336.901-.336 1.456l-.208-1.936a3.248 3.248 0 0 1 1.264-1.44c.576-.352 1.227-.528 1.952-.528.853 0 1.536.245 2.048.736.523.48.784 1.115.784 1.904V68h-1.28Zm7.882.16c-.778 0-1.466-.181-2.064-.544a3.954 3.954 0 0 1-1.408-1.52c-.341-.64-.512-1.376-.512-2.208 0-.832.166-1.563.496-2.192a3.687 3.687 0 0 1 1.424-1.488c.608-.352 1.307-.528 2.096-.528.758 0 1.414.165 1.968.496.566.33.998.795 1.296 1.392.31.597.464 1.301.464 2.112 0 .107-.005.208-.016.304 0 .096-.01.203-.032.32h-6.736v-1.072h5.952l-.416.592c0-.981-.218-1.733-.656-2.256-.426-.533-1.034-.8-1.824-.8-.81 0-1.466.283-1.968.848-.49.555-.736 1.307-.736 2.256 0 .97.246 1.75.736 2.336.502.576 1.168.864 2 .864.523 0 .982-.112 1.376-.336a2.06 2.06 0 0 0 .864-.992h1.216a3.556 3.556 0 0 1-1.344 1.776c-.618.427-1.344.64-2.176.64Zm9.255 0c-1.002 0-1.802-.23-2.4-.688-.597-.47-.938-1.13-1.024-1.984h1.232c.075.523.304.923.688 1.2.384.277.896.416 1.536.416.566 0 1.008-.107 1.328-.32.32-.213.48-.517.48-.912 0-.277-.09-.517-.272-.72-.181-.213-.544-.39-1.088-.528l-1.312-.336c-.746-.192-1.306-.485-1.68-.88a2.056 2.056 0 0 1-.56-1.44c0-.704.262-1.259.784-1.664.523-.416 1.232-.624 2.128-.624.886 0 1.606.213 2.16.64.555.427.87 1.019.944 1.776h-1.232c-.074-.437-.277-.773-.608-1.008-.33-.235-.768-.352-1.312-.352-.522 0-.928.101-1.216.304-.288.192-.432.47-.432.832 0 .277.102.517.304.72.214.203.566.373 1.056.512l1.28.352c.758.203 1.328.512 1.712.928.384.416.576.917.576 1.504 0 .715-.272 1.275-.816 1.68-.544.395-1.296.592-2.256.592Zm5.808-3.52-.192-8.48h1.376l-.192 8.48h-.992Zm-.32 3.36v-1.648h1.648V68h-1.648Z"/><path stroke="#000" stroke-width="2" d="M0 19.855h312.818"/><mask id="a" width="208" height="117" x="53" y="81" maskUnits="userSpaceOnUse" style="mask-type:alpha"><path fill="#fff" stroke="#000" d="M54.318 81.809h205.527v115.382H54.318z"/></mask><g mask="url(#a)"><path fill="#F3E0C5" d="M112.458 218.509c-1.522-29.341 12.81-40.928 20.166-43.054h44.137c18.264 0 27.903 28.703 30.439 43.054h-94.742ZM203.672 104.439c-12.063-10.761-23.448.925-27.633 8.113l24.804 21.168c5.969-5.277 14.891-18.519 2.829-29.281ZM109.903 103.96c11.454-11.406 23.463-.362 28.035 6.586l-23.607 22.495c-6.249-4.941-15.883-17.675-4.428-29.081Z"/><path fill="#4C391F" fill-opacity=".3" d="M113.931 111.85c-3.485 3.512-.586 7.053 1.299 8.384 4.505-1.468 12.808-5.353 9.976-9.141-2.833-3.787-5.258-3.56-6.107-3.181-.849.379-1.684.426-5.168 3.938ZM198.696 111.85c3.485 3.512.586 7.053-1.299 8.384-4.505-1.468-12.808-5.353-9.976-9.141 2.833-3.787 5.258-3.56 6.107-3.181.849.379 1.684.426 5.168 3.938Z"/><path fill="#F3E0C5" d="M205.403 137.891c0 22.106-12.505 42.945-49.189 42.945-35.017 0-48.356-20.839-48.356-42.945 0-22.107 21.419-37.109 48.356-37.109 26.936 0 49.189 15.002 49.189 37.109Z"/><path fill="#F3E0C5" stroke="#4C391F" stroke-opacity=".6" stroke-width="1.5" d="M180.992 191.784c-9.396 4.405-6.498 13.626-3.875 17.686 2.193 2.382 8.187 6.356 14.626 3.205 9.92-5.051 6.716-13.896 3.875-17.687 3.523-5.881 10.233-18.289 8.882-20.866-1.351-2.577-4.18-.599-5.425.713-1.312 1.613-7.962 11.563-10.572 17.644.418-4.819.373-15.696-3.14-20.648s-5.081-1.589-5.425.712l1.054 19.241Z"/><ellipse cx="143.513" cy="142.155" fill="#4C391F" rx="2.691" ry="3.7"/><ellipse cx="169.076" cy="142.155" fill="#4C391F" rx="2.691" ry="3.7"/><path stroke="#4C391F" stroke-width="2" d="M147.549 149.218c2.691 3.046 10.091 7.31 18.164 0"/><rect width="23.546" height="14.127" x="145.309" y="181.509" fill="#FDB5CF" rx="7.064"/><circle cx="157.082" cy="189.313" r=".995" stroke="#000" stroke-width=".7"/><path stroke="#000" d="M152.713 187.788c0-1.196 1.166-1.246 1.749-1.121l1.21-1.122h2.555l.807.997c1.721-.299 2.331.125 2.421.374v3.862c0 .996-.449 1.412-.673 1.495h-6.32c-1.507 0-1.793-.333-1.749-.499v-3.986Z"/></g></svg>