<svg width="315" height="222" viewBox="0 0 315 222" fill="none" xmlns="http://www.w3.org/2000/svg">
<rect x="1" y="1" width="312.164" height="220" fill="#FFFAF4" stroke="black" stroke-width="2"/>
<circle cx="15.809" cy="11.1" r="3.02727" fill="#FFA8A8"/>
<circle cx="37.3364" cy="11.1" r="3.02727" fill="#7CC778"/>
<circle cx="26.5727" cy="11.1" r="3.02727" fill="#FFC97D"/>
<circle cx="26.5727" cy="11.1" r="3.02727" fill="#FFC97D"/>
<rect x="54.3184" y="82.8091" width="205.527" height="115.382" fill="white" stroke="black"/>
<path d="M58.048 53.16C57.0453 53.16 56.2453 52.9307 55.648 52.472C55.0507 52.0027 54.7093 51.3413 54.624 50.488H55.856C55.9307 51.0107 56.16 51.4107 56.544 51.688C56.928 51.9653 57.44 52.104 58.08 52.104C58.6453 52.104 59.088 51.9973 59.408 51.784C59.728 51.5707 59.888 51.2667 59.888 50.872C59.888 50.5947 59.7973 50.3547 59.616 50.152C59.4347 49.9387 59.072 49.7627 58.528 49.624L57.216 49.288C56.4693 49.096 55.9093 48.8027 55.536 48.408C55.1627 48.0027 54.976 47.5227 54.976 46.968C54.976 46.264 55.2373 45.7093 55.76 45.304C56.2827 44.888 56.992 44.68 57.888 44.68C58.7733 44.68 59.4933 44.8933 60.048 45.32C60.6027 45.7467 60.9173 46.3387 60.992 47.096H59.76C59.6853 46.6587 59.4827 46.3227 59.152 46.088C58.8213 45.8533 58.384 45.736 57.84 45.736C57.3173 45.736 56.912 45.8373 56.624 46.04C56.336 46.232 56.192 46.5093 56.192 46.872C56.192 47.1493 56.2933 47.3893 56.496 47.592C56.7093 47.7947 57.0613 47.9653 57.552 48.104L58.832 48.456C59.5893 48.6587 60.16 48.968 60.544 49.384C60.928 49.8 61.12 50.3013 61.12 50.888C61.12 51.6027 60.848 52.1627 60.304 52.568C59.76 52.9627 59.008 53.16 58.048 53.16ZM66.9065 53.144C65.9998 53.144 65.3385 52.9413 64.9225 52.536C64.5172 52.12 64.3145 51.5227 64.3145 50.744V42.936L65.5945 42.456V50.728C65.5945 51.1867 65.7118 51.5227 65.9465 51.736C66.1812 51.9493 66.5652 52.056 67.0985 52.056C67.3118 52.056 67.4932 52.0453 67.6425 52.024C67.8025 51.992 67.9305 51.9547 68.0265 51.912V53C67.9198 53.0427 67.7652 53.0747 67.5625 53.096C67.3705 53.128 67.1518 53.144 66.9065 53.144ZM62.6345 45.928V44.84H68.0265V45.928H62.6345ZM73.6459 53.16C72.8672 53.16 72.1792 52.9787 71.5819 52.616C70.9845 52.2427 70.5152 51.736 70.1739 51.096C69.8325 50.456 69.6619 49.72 69.6619 48.888C69.6619 48.056 69.8272 47.3253 70.1579 46.696C70.4992 46.056 70.9739 45.56 71.5819 45.208C72.1899 44.856 72.8885 44.68 73.6779 44.68C74.4352 44.68 75.0912 44.8453 75.6459 45.176C76.2112 45.5067 76.6432 45.9707 76.9419 46.568C77.2512 47.1653 77.4059 47.8693 77.4059 48.68C77.4059 48.7867 77.4005 48.888 77.3899 48.984C77.3899 49.08 77.3792 49.1867 77.3579 49.304H70.6219V48.232H76.5739L76.1579 48.824C76.1579 47.8427 75.9392 47.0907 75.5019 46.568C75.0752 46.0347 74.4672 45.768 73.6779 45.768C72.8672 45.768 72.2112 46.0507 71.7099 46.616C71.2192 47.1707 70.9739 47.9227 70.9739 48.872C70.9739 49.8427 71.2192 50.6213 71.7099 51.208C72.2112 51.784 72.8779 52.072 73.7099 52.072C74.2325 52.072 74.6912 51.96 75.0859 51.736C75.4805 51.5013 75.7685 51.1707 75.9499 50.744H77.1659C76.8992 51.4907 76.4512 52.0827 75.8219 52.52C75.2032 52.9467 74.4779 53.16 73.6459 53.16ZM84.1651 53.144C83.3971 53.144 82.7518 52.9573 82.2291 52.584C81.7065 52.2107 81.3491 51.6827 81.1571 51L81.4131 50.968V56.28H80.1331V44.84H81.3331V46.744L81.1571 46.696C81.3598 46.0667 81.7438 45.576 82.3091 45.224C82.8745 44.8613 83.5305 44.68 84.2771 44.68C85.0025 44.68 85.6318 44.856 86.1651 45.208C86.7091 45.56 87.1305 46.0507 87.4291 46.68C87.7278 47.3093 87.8771 48.0453 87.8771 48.888C87.8771 49.7413 87.7225 50.488 87.4131 51.128C87.1038 51.768 86.6718 52.264 86.1171 52.616C85.5625 52.968 84.9118 53.144 84.1651 53.144ZM83.9731 52.024C84.7838 52.024 85.4185 51.7467 85.8771 51.192C86.3358 50.6267 86.5651 49.8587 86.5651 48.888C86.5651 47.928 86.3358 47.176 85.8771 46.632C85.4185 46.0773 84.7838 45.8 83.9731 45.8C83.1625 45.8 82.5225 46.0827 82.0531 46.648C81.5838 47.2027 81.3491 47.9653 81.3491 48.936C81.3491 49.8853 81.5838 50.6373 82.0531 51.192C82.5225 51.7467 83.1625 52.024 83.9731 52.024ZM93.9994 53V51.88C95.1514 50.9307 96.1114 50.0987 96.8794 49.384C97.658 48.6693 98.2767 48.0347 98.7354 47.48C99.2047 46.9253 99.5354 46.4187 99.7274 45.96C99.93 45.4907 100.031 45.032 100.031 44.584C100.031 43.9227 99.834 43.4053 99.4394 43.032C99.0447 42.6587 98.5007 42.472 97.8074 42.472C97.0927 42.472 96.5167 42.6747 96.0794 43.08C95.642 43.4853 95.3754 44.0667 95.2794 44.824H93.9034C94.01 43.7787 94.41 42.936 95.1034 42.296C95.8074 41.6453 96.7407 41.32 97.9034 41.32C98.9807 41.32 99.8394 41.608 100.479 42.184C101.119 42.76 101.439 43.5493 101.439 44.552C101.439 45.096 101.333 45.64 101.119 46.184C100.917 46.728 100.575 47.2987 100.095 47.896C99.626 48.4933 99.002 49.1547 98.2234 49.88C97.4554 50.5947 96.5007 51.4053 95.3594 52.312L95.0554 51.848H101.631V53H93.9994ZM103.985 53V51.352H105.633V53H103.985ZM103.985 46.92V45.272H105.633V46.92H103.985ZM116.194 53.144C115.287 53.144 114.626 52.9413 114.21 52.536C113.805 52.12 113.602 51.5227 113.602 50.744V42.936L114.882 42.456V50.728C114.882 51.1867 114.999 51.5227 115.234 51.736C115.469 51.9493 115.853 52.056 116.386 52.056C116.599 52.056 116.781 52.0453 116.93 52.024C117.09 51.992 117.218 51.9547 117.314 51.912V53C117.207 53.0427 117.053 53.0747 116.85 53.096C116.658 53.128 116.439 53.144 116.194 53.144ZM111.922 45.928V44.84H117.314V45.928H111.922ZM124.769 53C124.727 52.8187 124.695 52.6107 124.673 52.376C124.663 52.1413 124.657 51.8427 124.657 51.48H124.577V47.576C124.577 46.9573 124.433 46.504 124.145 46.216C123.868 45.9173 123.415 45.768 122.785 45.768C122.167 45.768 121.671 45.896 121.297 46.152C120.935 46.3973 120.732 46.7493 120.689 47.208H119.457C119.511 46.4187 119.841 45.8 120.449 45.352C121.057 44.904 121.852 44.68 122.833 44.68C123.847 44.68 124.599 44.92 125.089 45.4C125.58 45.88 125.825 46.6 125.825 47.56V51.48C125.825 51.7147 125.841 51.96 125.873 52.216C125.905 52.4613 125.948 52.7227 126.001 53H124.769ZM121.969 53.16C121.127 53.16 120.455 52.9573 119.953 52.552C119.463 52.136 119.217 51.5707 119.217 50.856C119.217 50.1413 119.463 49.5867 119.953 49.192C120.444 48.7973 121.159 48.52 122.097 48.36L124.945 47.88V48.936L122.289 49.352C121.692 49.448 121.239 49.608 120.929 49.832C120.62 50.056 120.465 50.3813 120.465 50.808C120.465 51.224 120.604 51.5387 120.881 51.752C121.169 51.9653 121.591 52.072 122.145 52.072C122.86 52.072 123.441 51.912 123.889 51.592C124.348 51.2613 124.577 50.8347 124.577 50.312L124.785 51.448C124.615 51.992 124.279 52.4133 123.777 52.712C123.287 53.0107 122.684 53.16 121.969 53.16ZM129.093 53V41.16H130.373V53H129.093ZM134.421 53L130.085 48.76L134.261 44.84H136.021L131.333 49.128L131.413 48.376L136.181 53H134.421ZM141.315 53.16C140.536 53.16 139.848 52.9787 139.251 52.616C138.653 52.2427 138.184 51.736 137.843 51.096C137.501 50.456 137.331 49.72 137.331 48.888C137.331 48.056 137.496 47.3253 137.827 46.696C138.168 46.056 138.643 45.56 139.251 45.208C139.859 44.856 140.557 44.68 141.347 44.68C142.104 44.68 142.76 44.8453 143.315 45.176C143.88 45.5067 144.312 45.9707 144.611 46.568C144.92 47.1653 145.075 47.8693 145.075 48.68C145.075 48.7867 145.069 48.888 145.059 48.984C145.059 49.08 145.048 49.1867 145.027 49.304H138.291V48.232H144.243L143.827 48.824C143.827 47.8427 143.608 47.0907 143.171 46.568C142.744 46.0347 142.136 45.768 141.347 45.768C140.536 45.768 139.88 46.0507 139.379 46.616C138.888 47.1707 138.643 47.9227 138.643 48.872C138.643 49.8427 138.888 50.6213 139.379 51.208C139.88 51.784 140.547 52.072 141.379 52.072C141.901 52.072 142.36 51.96 142.755 51.736C143.149 51.5013 143.437 51.1707 143.619 50.744H144.835C144.568 51.4907 144.12 52.0827 143.491 52.52C142.872 52.9467 142.147 53.16 141.315 53.16ZM155.837 53.144C155.069 53.144 154.424 52.9573 153.901 52.584C153.378 52.2107 153.021 51.6827 152.829 51L153.085 50.968V56.28H151.805V44.84H153.005V46.744L152.829 46.696C153.032 46.0667 153.416 45.576 153.981 45.224C154.546 44.8613 155.202 44.68 155.949 44.68C156.674 44.68 157.304 44.856 157.837 45.208C158.381 45.56 158.802 46.0507 159.101 46.68C159.4 47.3093 159.549 48.0453 159.549 48.888C159.549 49.7413 159.394 50.488 159.085 51.128C158.776 51.768 158.344 52.264 157.789 52.616C157.234 52.968 156.584 53.144 155.837 53.144ZM155.645 52.024C156.456 52.024 157.09 51.7467 157.549 51.192C158.008 50.6267 158.237 49.8587 158.237 48.888C158.237 47.928 158.008 47.176 157.549 46.632C157.09 46.0773 156.456 45.8 155.645 45.8C154.834 45.8 154.194 46.0827 153.725 46.648C153.256 47.2027 153.021 47.9653 153.021 48.936C153.021 49.8853 153.256 50.6373 153.725 51.192C154.194 51.7467 154.834 52.024 155.645 52.024ZM162.277 53V44.84H163.557V53H162.277ZM162.181 42.984V41.48H163.653V42.984H162.181ZM170.121 53.16C169.375 53.16 168.708 52.9787 168.121 52.616C167.545 52.2427 167.087 51.736 166.745 51.096C166.415 50.4453 166.249 49.7093 166.249 48.888C166.249 48.0667 166.415 47.3413 166.745 46.712C167.087 46.0827 167.545 45.5867 168.121 45.224C168.708 44.8613 169.369 44.68 170.105 44.68C170.713 44.68 171.257 44.7973 171.737 45.032C172.228 45.2667 172.628 45.6027 172.937 46.04C173.257 46.4667 173.46 46.968 173.545 47.544H172.361C172.255 47.0213 172.009 46.5947 171.625 46.264C171.241 45.9333 170.745 45.768 170.137 45.768C169.615 45.768 169.161 45.896 168.777 46.152C168.393 46.408 168.095 46.7707 167.881 47.24C167.668 47.7093 167.561 48.2587 167.561 48.888C167.561 49.5173 167.668 50.072 167.881 50.552C168.095 51.032 168.393 51.4053 168.777 51.672C169.172 51.9387 169.631 52.072 170.153 52.072C170.74 52.072 171.231 51.912 171.625 51.592C172.02 51.2613 172.271 50.8347 172.377 50.312H173.561C173.465 50.8773 173.252 51.3787 172.921 51.816C172.601 52.2427 172.201 52.5733 171.721 52.808C171.241 53.0427 170.708 53.16 170.121 53.16ZM178.989 53.16C177.986 53.16 177.186 52.9307 176.589 52.472C175.991 52.0027 175.65 51.3413 175.565 50.488H176.797C176.871 51.0107 177.101 51.4107 177.485 51.688C177.869 51.9653 178.381 52.104 179.021 52.104C179.586 52.104 180.029 51.9973 180.349 51.784C180.669 51.5707 180.829 51.2667 180.829 50.872C180.829 50.5947 180.738 50.3547 180.557 50.152C180.375 49.9387 180.013 49.7627 179.469 49.624L178.157 49.288C177.41 49.096 176.85 48.8027 176.477 48.408C176.103 48.0027 175.917 47.5227 175.917 46.968C175.917 46.264 176.178 45.7093 176.701 45.304C177.223 44.888 177.933 44.68 178.829 44.68C179.714 44.68 180.434 44.8933 180.989 45.32C181.543 45.7467 181.858 46.3387 181.933 47.096H180.701C180.626 46.6587 180.423 46.3227 180.093 46.088C179.762 45.8533 179.325 45.736 178.781 45.736C178.258 45.736 177.853 45.8373 177.565 46.04C177.277 46.232 177.133 46.5093 177.133 46.872C177.133 47.1493 177.234 47.3893 177.437 47.592C177.65 47.7947 178.002 47.9653 178.493 48.104L179.773 48.456C180.53 48.6587 181.101 48.968 181.485 49.384C181.869 49.8 182.061 50.3013 182.061 50.888C182.061 51.6027 181.789 52.1627 181.245 52.568C180.701 52.9627 179.949 53.16 178.989 53.16ZM193.594 53C193.552 52.8187 193.52 52.6107 193.498 52.376C193.488 52.1413 193.482 51.8427 193.482 51.48H193.402V47.576C193.402 46.9573 193.258 46.504 192.97 46.216C192.693 45.9173 192.24 45.768 191.61 45.768C190.992 45.768 190.496 45.896 190.122 46.152C189.76 46.3973 189.557 46.7493 189.514 47.208H188.282C188.336 46.4187 188.666 45.8 189.274 45.352C189.882 44.904 190.677 44.68 191.658 44.68C192.672 44.68 193.424 44.92 193.914 45.4C194.405 45.88 194.65 46.6 194.65 47.56V51.48C194.65 51.7147 194.666 51.96 194.698 52.216C194.73 52.4613 194.773 52.7227 194.826 53H193.594ZM190.794 53.16C189.952 53.16 189.28 52.9573 188.778 52.552C188.288 52.136 188.042 51.5707 188.042 50.856C188.042 50.1413 188.288 49.5867 188.778 49.192C189.269 48.7973 189.984 48.52 190.922 48.36L193.77 47.88V48.936L191.114 49.352C190.517 49.448 190.064 49.608 189.754 49.832C189.445 50.056 189.29 50.3813 189.29 50.808C189.29 51.224 189.429 51.5387 189.706 51.752C189.994 51.9653 190.416 52.072 190.97 52.072C191.685 52.072 192.266 51.912 192.714 51.592C193.173 51.2613 193.402 50.8347 193.402 50.312L193.61 51.448C193.44 51.992 193.104 52.4133 192.602 52.712C192.112 53.0107 191.509 53.16 190.794 53.16ZM197.917 53V44.84H199.117V46.76H199.197V53H197.917ZM203.757 53V47.656C203.757 47.0373 203.603 46.5733 203.293 46.264C202.984 45.9547 202.525 45.8 201.917 45.8C201.384 45.8 200.909 45.9173 200.493 46.152C200.088 46.3867 199.768 46.712 199.533 47.128C199.309 47.544 199.197 48.0293 199.197 48.584L198.989 46.648C199.267 46.04 199.688 45.56 200.253 45.208C200.829 44.856 201.48 44.68 202.205 44.68C203.059 44.68 203.741 44.9253 204.253 45.416C204.776 45.896 205.037 46.5307 205.037 47.32V53H203.757ZM214.232 53V51.096L214.392 51.144C214.189 51.7627 213.816 52.2533 213.272 52.616C212.738 52.9787 212.098 53.16 211.352 53.16C210.616 53.16 209.97 52.984 209.416 52.632C208.872 52.28 208.445 51.7893 208.136 51.16C207.837 50.5307 207.688 49.7947 207.688 48.952C207.688 48.0987 207.842 47.352 208.152 46.712C208.461 46.072 208.893 45.576 209.448 45.224C210.002 44.872 210.653 44.696 211.4 44.696C212.168 44.696 212.813 44.8827 213.336 45.256C213.858 45.6293 214.216 46.1573 214.408 46.84L214.152 46.872V41.48H215.432V53H214.232ZM211.592 52.04C212.413 52.04 213.053 51.7627 213.512 51.208C213.981 50.6427 214.216 49.8747 214.216 48.904C214.216 47.9547 213.981 47.2027 213.512 46.648C213.042 46.0933 212.402 45.816 211.592 45.816C210.781 45.816 210.146 46.0933 209.688 46.648C209.229 47.2027 209 47.9707 209 48.952C209 49.912 209.229 50.6693 209.688 51.224C210.146 51.768 210.781 52.04 211.592 52.04ZM58.512 68.16C57.7653 68.16 57.0987 67.9787 56.512 67.616C55.936 67.2427 55.4773 66.736 55.136 66.096C54.8053 65.4453 54.64 64.7093 54.64 63.888C54.64 63.0667 54.8053 62.3413 55.136 61.712C55.4773 61.0827 55.936 60.5867 56.512 60.224C57.0987 59.8613 57.76 59.68 58.496 59.68C59.104 59.68 59.648 59.7973 60.128 60.032C60.6187 60.2667 61.0187 60.6027 61.328 61.04C61.648 61.4667 61.8507 61.968 61.936 62.544H60.752C60.6453 62.0213 60.4 61.5947 60.016 61.264C59.632 60.9333 59.136 60.768 58.528 60.768C58.0053 60.768 57.552 60.896 57.168 61.152C56.784 61.408 56.4853 61.7707 56.272 62.24C56.0587 62.7093 55.952 63.2587 55.952 63.888C55.952 64.5173 56.0587 65.072 56.272 65.552C56.4853 66.032 56.784 66.4053 57.168 66.672C57.5627 66.9387 58.0213 67.072 58.544 67.072C59.1307 67.072 59.6213 66.912 60.016 66.592C60.4107 66.2613 60.6613 65.8347 60.768 65.312H61.952C61.856 65.8773 61.6427 66.3787 61.312 66.816C60.992 67.2427 60.592 67.5733 60.112 67.808C59.632 68.0427 59.0987 68.16 58.512 68.16ZM64.6113 68V56.48H65.8913V68H64.6113ZM70.4513 68V62.656C70.4513 62.0373 70.2966 61.5733 69.9873 61.264C69.6779 60.9547 69.2193 60.8 68.6113 60.8C68.0779 60.8 67.6033 60.9173 67.1873 61.152C66.7819 61.3867 66.4619 61.712 66.2273 62.128C66.0033 62.544 65.8913 63.0293 65.8913 63.584L65.6833 61.648C65.9606 61.04 66.3819 60.56 66.9473 60.208C67.5233 59.856 68.1739 59.68 68.8993 59.68C69.7526 59.68 70.4353 59.9253 70.9473 60.416C71.4699 60.896 71.7313 61.5307 71.7313 62.32V68H70.4513ZM78.3814 68.16C77.5814 68.16 76.8774 67.9733 76.2694 67.6C75.6614 67.2267 75.1867 66.72 74.8454 66.08C74.5147 65.4293 74.3494 64.6987 74.3494 63.888C74.3494 63.0667 74.52 62.3413 74.8614 61.712C75.2027 61.0827 75.672 60.5867 76.2694 60.224C76.8774 59.8613 77.5814 59.68 78.3814 59.68C79.192 59.68 79.896 59.8613 80.4934 60.224C81.1014 60.5867 81.5707 61.0827 81.9014 61.712C82.2427 62.3413 82.4134 63.0667 82.4134 63.888C82.4134 64.6987 82.2427 65.4293 81.9014 66.08C81.5707 66.72 81.1014 67.2267 80.4934 67.6C79.896 67.9733 79.192 68.16 78.3814 68.16ZM78.3814 67.072C78.936 67.072 79.416 66.9387 79.8214 66.672C80.2267 66.3947 80.5414 66.016 80.7654 65.536C80.9894 65.056 81.1014 64.5013 81.1014 63.872C81.1014 62.9333 80.8507 62.1813 80.3494 61.616C79.8587 61.0507 79.2027 60.768 78.3814 60.768C77.5707 60.768 76.9147 61.0507 76.4134 61.616C75.912 62.1813 75.6614 62.9333 75.6614 63.872C75.6614 64.5013 75.7734 65.056 75.9974 65.536C76.2214 66.016 76.536 66.3947 76.9414 66.672C77.3574 66.9387 77.8374 67.072 78.3814 67.072ZM88.5251 68.16C87.7251 68.16 87.0211 67.9733 86.4131 67.6C85.8051 67.2267 85.3305 66.72 84.9891 66.08C84.6585 65.4293 84.4931 64.6987 84.4931 63.888C84.4931 63.0667 84.6638 62.3413 85.0051 61.712C85.3465 61.0827 85.8158 60.5867 86.4131 60.224C87.0211 59.8613 87.7251 59.68 88.5251 59.68C89.3358 59.68 90.0398 59.8613 90.6371 60.224C91.2451 60.5867 91.7145 61.0827 92.0451 61.712C92.3865 62.3413 92.5571 63.0667 92.5571 63.888C92.5571 64.6987 92.3865 65.4293 92.0451 66.08C91.7145 66.72 91.2451 67.2267 90.6371 67.6C90.0398 67.9733 89.3358 68.16 88.5251 68.16ZM88.5251 67.072C89.0798 67.072 89.5598 66.9387 89.9651 66.672C90.3705 66.3947 90.6851 66.016 90.9091 65.536C91.1331 65.056 91.2451 64.5013 91.2451 63.872C91.2451 62.9333 90.9945 62.1813 90.4931 61.616C90.0025 61.0507 89.3465 60.768 88.5251 60.768C87.7145 60.768 87.0585 61.0507 86.5571 61.616C86.0558 62.1813 85.8051 62.9333 85.8051 63.872C85.8051 64.5013 85.9171 65.056 86.1411 65.536C86.3651 66.016 86.6798 66.3947 87.0851 66.672C87.5011 66.9387 87.9811 67.072 88.5251 67.072ZM98.0449 68.16C97.0422 68.16 96.2422 67.9307 95.6449 67.472C95.0475 67.0027 94.7062 66.3413 94.6209 65.488H95.8529C95.9275 66.0107 96.1569 66.4107 96.5409 66.688C96.9249 66.9653 97.4369 67.104 98.0769 67.104C98.6422 67.104 99.0849 66.9973 99.4049 66.784C99.7249 66.5707 99.8849 66.2667 99.8849 65.872C99.8849 65.5947 99.7942 65.3547 99.6129 65.152C99.4315 64.9387 99.0689 64.7627 98.5249 64.624L97.2129 64.288C96.4662 64.096 95.9062 63.8027 95.5329 63.408C95.1595 63.0027 94.9729 62.5227 94.9729 61.968C94.9729 61.264 95.2342 60.7093 95.7569 60.304C96.2795 59.888 96.9889 59.68 97.8849 59.68C98.7702 59.68 99.4902 59.8933 100.045 60.32C100.6 60.7467 100.914 61.3387 100.989 62.096H99.7569C99.6822 61.6587 99.4795 61.3227 99.1489 61.088C98.8182 60.8533 98.3809 60.736 97.8369 60.736C97.3142 60.736 96.9089 60.8373 96.6209 61.04C96.3329 61.232 96.1889 61.5093 96.1889 61.872C96.1889 62.1493 96.2902 62.3893 96.4929 62.592C96.7062 62.7947 97.0582 62.9653 97.5489 63.104L98.8289 63.456C99.5862 63.6587 100.157 63.968 100.541 64.384C100.925 64.8 101.117 65.3013 101.117 65.888C101.117 66.6027 100.845 67.1627 100.301 67.568C99.7569 67.9627 99.0049 68.16 98.0449 68.16ZM107.265 68.16C106.486 68.16 105.798 67.9787 105.201 67.616C104.603 67.2427 104.134 66.736 103.793 66.096C103.451 65.456 103.281 64.72 103.281 63.888C103.281 63.056 103.446 62.3253 103.777 61.696C104.118 61.056 104.593 60.56 105.201 60.208C105.809 59.856 106.507 59.68 107.297 59.68C108.054 59.68 108.71 59.8453 109.265 60.176C109.83 60.5067 110.262 60.9707 110.561 61.568C110.87 62.1653 111.025 62.8693 111.025 63.68C111.025 63.7867 111.019 63.888 111.009 63.984C111.009 64.08 110.998 64.1867 110.977 64.304H104.241V63.232H110.193L109.777 63.824C109.777 62.8427 109.558 62.0907 109.121 61.568C108.694 61.0347 108.086 60.768 107.297 60.768C106.486 60.768 105.83 61.0507 105.329 61.616C104.838 62.1707 104.593 62.9227 104.593 63.872C104.593 64.8427 104.838 65.6213 105.329 66.208C105.83 66.784 106.497 67.072 107.329 67.072C107.851 67.072 108.31 66.96 108.705 66.736C109.099 66.5013 109.387 66.1707 109.569 65.744H110.785C110.518 66.4907 110.07 67.0827 109.441 67.52C108.822 67.9467 108.097 68.16 107.265 68.16ZM118.459 71.28L120.283 67.04L120.571 66.592L123.243 59.84H124.555L119.819 71.28H118.459ZM120.427 68.08L116.763 59.84H118.171L121.323 67.216L120.427 68.08ZM130.119 68.16C129.319 68.16 128.615 67.9733 128.007 67.6C127.399 67.2267 126.924 66.72 126.583 66.08C126.252 65.4293 126.087 64.6987 126.087 63.888C126.087 63.0667 126.258 62.3413 126.599 61.712C126.94 61.0827 127.41 60.5867 128.007 60.224C128.615 59.8613 129.319 59.68 130.119 59.68C130.93 59.68 131.634 59.8613 132.231 60.224C132.839 60.5867 133.308 61.0827 133.639 61.712C133.98 62.3413 134.151 63.0667 134.151 63.888C134.151 64.6987 133.98 65.4293 133.639 66.08C133.308 66.72 132.839 67.2267 132.231 67.6C131.634 67.9733 130.93 68.16 130.119 68.16ZM130.119 67.072C130.674 67.072 131.154 66.9387 131.559 66.672C131.964 66.3947 132.279 66.016 132.503 65.536C132.727 65.056 132.839 64.5013 132.839 63.872C132.839 62.9333 132.588 62.1813 132.087 61.616C131.596 61.0507 130.94 60.768 130.119 60.768C129.308 60.768 128.652 61.0507 128.151 61.616C127.65 62.1813 127.399 62.9333 127.399 63.872C127.399 64.5013 127.511 65.056 127.735 65.536C127.959 66.016 128.274 66.3947 128.679 66.672C129.095 66.9387 129.575 67.072 130.119 67.072ZM139.527 68.16C138.993 68.16 138.519 68.0533 138.103 67.84C137.687 67.616 137.361 67.3067 137.127 66.912C136.892 66.5067 136.775 66.0427 136.775 65.52V59.84H138.055V65.184C138.055 65.8027 138.204 66.2667 138.503 66.576C138.812 66.8853 139.249 67.04 139.815 67.04C140.327 67.04 140.78 66.9227 141.175 66.688C141.569 66.4533 141.879 66.128 142.103 65.712C142.337 65.2853 142.455 64.8 142.455 64.256L142.663 66.192C142.396 66.8 141.98 67.28 141.415 67.632C140.849 67.984 140.22 68.16 139.527 68.16ZM142.535 68V66.08H142.455V59.84H143.735V68H142.535ZM147.093 68V59.84H148.293V61.92H148.373V68H147.093ZM148.373 63.744L148.164 61.808C148.357 61.1147 148.698 60.5867 149.189 60.224C149.679 59.8613 150.245 59.68 150.885 59.68C151.151 59.68 151.333 59.7013 151.429 59.744V60.976C151.375 60.9547 151.301 60.944 151.205 60.944C151.109 60.9333 150.991 60.928 150.853 60.928C150.042 60.928 149.423 61.1733 148.997 61.664C148.581 62.144 148.373 62.8373 148.373 63.744ZM158.568 68V58.688C158.568 57.9413 158.781 57.36 159.208 56.944C159.645 56.528 160.306 56.32 161.192 56.32C161.405 56.32 161.57 56.3307 161.688 56.352C161.816 56.3733 161.922 56.4 162.008 56.432V57.44C161.933 57.4187 161.826 57.3973 161.688 57.376C161.56 57.3547 161.421 57.344 161.272 57.344C160.781 57.344 160.418 57.4667 160.184 57.712C159.96 57.9573 159.848 58.304 159.848 58.752V68H158.568ZM156.888 60.928V59.84H161.832V60.928H156.888ZM169.126 68C169.083 67.8187 169.051 67.6107 169.03 67.376C169.019 67.1413 169.014 66.8427 169.014 66.48H168.934V62.576C168.934 61.9573 168.79 61.504 168.502 61.216C168.224 60.9173 167.771 60.768 167.142 60.768C166.523 60.768 166.027 60.896 165.654 61.152C165.291 61.3973 165.088 61.7493 165.046 62.208H163.814C163.867 61.4187 164.198 60.8 164.806 60.352C165.414 59.904 166.208 59.68 167.19 59.68C168.203 59.68 168.955 59.92 169.446 60.4C169.936 60.88 170.182 61.6 170.182 62.56V66.48C170.182 66.7147 170.198 66.96 170.23 67.216C170.262 67.4613 170.304 67.7227 170.358 68H169.126ZM166.326 68.16C165.483 68.16 164.811 67.9573 164.31 67.552C163.819 67.136 163.574 66.5707 163.574 65.856C163.574 65.1413 163.819 64.5867 164.31 64.192C164.8 63.7973 165.515 63.52 166.454 63.36L169.302 62.88V63.936L166.646 64.352C166.048 64.448 165.595 64.608 165.286 64.832C164.976 65.056 164.822 65.3813 164.822 65.808C164.822 66.224 164.96 66.5387 165.238 66.752C165.526 66.9653 165.947 67.072 166.502 67.072C167.216 67.072 167.798 66.912 168.246 66.592C168.704 66.2613 168.934 65.8347 168.934 65.312L169.142 66.448C168.971 66.992 168.635 67.4133 168.134 67.712C167.643 68.0107 167.04 68.16 166.326 68.16ZM175.52 68L172.144 59.84H173.52L176.336 67.136H175.824L178.624 59.84H179.936L176.56 68H175.52ZM189.706 68.16C188.906 68.16 188.202 67.9733 187.594 67.6C186.986 67.2267 186.512 66.72 186.17 66.08C185.84 65.4293 185.674 64.6987 185.674 63.888C185.674 63.0667 185.845 62.3413 186.186 61.712C186.528 61.0827 186.997 60.5867 187.594 60.224C188.202 59.8613 188.906 59.68 189.706 59.68C190.517 59.68 191.221 59.8613 191.818 60.224C192.426 60.5867 192.896 61.0827 193.226 61.712C193.568 62.3413 193.738 63.0667 193.738 63.888C193.738 64.6987 193.568 65.4293 193.226 66.08C192.896 66.72 192.426 67.2267 191.818 67.6C191.221 67.9733 190.517 68.16 189.706 68.16ZM189.706 67.072C190.261 67.072 190.741 66.9387 191.146 66.672C191.552 66.3947 191.866 66.016 192.09 65.536C192.314 65.056 192.426 64.5013 192.426 63.872C192.426 62.9333 192.176 62.1813 191.674 61.616C191.184 61.0507 190.528 60.768 189.706 60.768C188.896 60.768 188.24 61.0507 187.738 61.616C187.237 62.1813 186.986 62.9333 186.986 63.872C186.986 64.5013 187.098 65.056 187.322 65.536C187.546 66.016 187.861 66.3947 188.266 66.672C188.682 66.9387 189.162 67.072 189.706 67.072ZM196.458 68V59.84H197.658V61.76H197.738V68H196.458ZM202.298 68V62.656C202.298 62.0373 202.143 61.5733 201.834 61.264C201.525 60.9547 201.066 60.8 200.458 60.8C199.925 60.8 199.45 60.9173 199.034 61.152C198.629 61.3867 198.309 61.712 198.074 62.128C197.85 62.544 197.738 63.0293 197.738 63.584L197.53 61.648C197.807 61.04 198.229 60.56 198.794 60.208C199.37 59.856 200.021 59.68 200.746 59.68C201.599 59.68 202.282 59.9253 202.794 60.416C203.317 60.896 203.578 61.5307 203.578 62.32V68H202.298ZM210.18 68.16C209.402 68.16 208.714 67.9787 208.116 67.616C207.519 67.2427 207.05 66.736 206.708 66.096C206.367 65.456 206.196 64.72 206.196 63.888C206.196 63.056 206.362 62.3253 206.692 61.696C207.034 61.056 207.508 60.56 208.116 60.208C208.724 59.856 209.423 59.68 210.212 59.68C210.97 59.68 211.626 59.8453 212.18 60.176C212.746 60.5067 213.178 60.9707 213.476 61.568C213.786 62.1653 213.94 62.8693 213.94 63.68C213.94 63.7867 213.935 63.888 213.924 63.984C213.924 64.08 213.914 64.1867 213.892 64.304H207.156V63.232H213.108L212.692 63.824C212.692 62.8427 212.474 62.0907 212.036 61.568C211.61 61.0347 211.002 60.768 210.212 60.768C209.402 60.768 208.746 61.0507 208.244 61.616C207.754 62.1707 207.508 62.9227 207.508 63.872C207.508 64.8427 207.754 65.6213 208.244 66.208C208.746 66.784 209.412 67.072 210.244 67.072C210.767 67.072 211.226 66.96 211.62 66.736C212.015 66.5013 212.303 66.1707 212.484 65.744H213.7C213.434 66.4907 212.986 67.0827 212.356 67.52C211.738 67.9467 211.012 68.16 210.18 68.16ZM219.435 68.16C218.433 68.16 217.633 67.9307 217.035 67.472C216.438 67.0027 216.097 66.3413 216.011 65.488H217.243C217.318 66.0107 217.547 66.4107 217.931 66.688C218.315 66.9653 218.827 67.104 219.467 67.104C220.033 67.104 220.475 66.9973 220.795 66.784C221.115 66.5707 221.275 66.2667 221.275 65.872C221.275 65.5947 221.185 65.3547 221.003 65.152C220.822 64.9387 220.459 64.7627 219.915 64.624L218.603 64.288C217.857 64.096 217.297 63.8027 216.923 63.408C216.55 63.0027 216.363 62.5227 216.363 61.968C216.363 61.264 216.625 60.7093 217.147 60.304C217.67 59.888 218.379 59.68 219.275 59.68C220.161 59.68 220.881 59.8933 221.435 60.32C221.99 60.7467 222.305 61.3387 222.379 62.096H221.147C221.073 61.6587 220.87 61.3227 220.539 61.088C220.209 60.8533 219.771 60.736 219.227 60.736C218.705 60.736 218.299 60.8373 218.011 61.04C217.723 61.232 217.579 61.5093 217.579 61.872C217.579 62.1493 217.681 62.3893 217.883 62.592C218.097 62.7947 218.449 62.9653 218.939 63.104L220.219 63.456C220.977 63.6587 221.547 63.968 221.931 64.384C222.315 64.8 222.507 65.3013 222.507 65.888C222.507 66.6027 222.235 67.1627 221.691 67.568C221.147 67.9627 220.395 68.16 219.435 68.16ZM225.243 64.64L225.051 56.16H226.427L226.235 64.64H225.243ZM224.923 68V66.352H226.571V68H224.923Z" fill="black"/>
<path d="M300.177 16.4L297.912 13.04L294.657 8.75002H297.177L299.202 11.765L302.697 16.4H300.177ZM298.092 11.645L300.117 8.75002H302.577L299.157 13.22L298.092 11.645ZM298.962 13.34L296.787 16.4H294.342L297.897 11.765L298.962 13.34Z" fill="black"/>
<line x1="8.74228e-08" y1="19.8546" x2="312.818" y2="19.8546" stroke="black" stroke-width="2"/>
<mask id="mask0_44_839" style="mask-type:alpha" maskUnits="userSpaceOnUse" x="53" y="81" width="208" height="117">
<rect x="54.3184" y="81.8091" width="205.527" height="115.382" fill="white" stroke="black"/>
</mask>
<g mask="url(#mask0_44_839)">
<path d="M112.458 218.509C110.936 189.168 125.268 177.581 132.624 175.455H176.761C195.025 175.455 204.664 204.158 207.2 218.509H112.458Z" fill="#F3E0C5"/>
<path d="M203.672 104.439C191.609 93.6779 180.224 105.364 176.039 112.552L200.843 133.72C206.812 128.443 215.734 115.201 203.672 104.439Z" fill="#F3E0C5"/>
<path d="M109.903 103.96C121.357 92.5537 133.366 103.598 137.938 110.546L114.331 133.041C108.082 128.1 98.4481 115.366 109.903 103.96Z" fill="#F3E0C5"/>
<path d="M113.931 111.85C110.446 115.362 113.345 118.903 115.23 120.234C119.735 118.766 128.038 114.881 125.206 111.093C122.373 107.306 119.948 107.533 119.099 107.912C118.25 108.291 117.415 108.338 113.931 111.85Z" fill="#4C391F" fill-opacity="0.3"/>
<path d="M198.696 111.85C202.181 115.362 199.282 118.903 197.397 120.234C192.892 118.766 184.589 114.881 187.421 111.093C190.254 107.306 192.679 107.533 193.528 107.912C194.377 108.291 195.212 108.338 198.696 111.85Z" fill="#4C391F" fill-opacity="0.3"/>
<path d="M205.403 137.891C205.403 159.997 192.898 180.836 156.214 180.836C121.197 180.836 107.858 159.997 107.858 137.891C107.858 115.784 129.277 100.782 156.214 100.782C183.15 100.782 205.403 115.784 205.403 137.891Z" fill="#F3E0C5"/>
<path d="M180.992 191.784C171.596 196.189 174.494 205.41 177.117 209.47C179.31 211.852 185.304 215.826 191.743 212.675C201.663 207.624 198.459 198.779 195.618 194.988C199.141 189.107 205.851 176.699 204.5 174.122C203.149 171.545 200.32 173.523 199.075 174.835C197.763 176.448 191.113 186.398 188.503 192.479C188.921 187.66 188.876 176.783 185.363 171.831C181.85 166.879 180.282 170.242 179.938 172.543L180.992 191.784Z" fill="#F3E0C5" stroke="#4C391F" stroke-opacity="0.6" stroke-width="1.5"/>
<ellipse cx="143.513" cy="142.155" rx="2.69091" ry="3.7" fill="#4C391F"/>
<ellipse cx="169.076" cy="142.155" rx="2.69091" ry="3.7" fill="#4C391F"/>
<path d="M147.549 149.218C150.24 152.264 157.64 156.528 165.713 149.218" stroke="#4C391F" stroke-width="2"/>
<rect x="145.309" y="181.509" width="23.5455" height="14.1273" rx="7.06364" fill="#FDB5CF"/>
<circle cx="157.082" cy="189.313" r="0.995455" stroke="black" stroke-width="0.7"/>
<path d="M152.713 187.788C152.713 186.592 153.879 186.542 154.462 186.667L155.672 185.545H158.227L159.034 186.542C160.755 186.243 161.365 186.667 161.455 186.916V190.778C161.455 191.774 161.006 192.19 160.782 192.273H154.462C152.955 192.273 152.669 191.94 152.713 191.774V187.788Z" stroke="black"/>
</g>
</svg>
