<svg width="624" height="384" viewBox="0 0 624 384" fill="none" xmlns="http://www.w3.org/2000/svg">
<rect width="624" height="384" fill="#B0C2E6"/>
<path d="M225.973 291L230.743 278.04H232.759L228.277 291H225.973ZM235.747 291L231.283 278.04H233.407L238.159 291H235.747ZM228.439 285.906H235.531V287.778H228.439V285.906ZM243.15 291V279.894H238.848V278.04H249.792V279.894H245.49V291H243.15ZM258.493 291V278.04H260.833V291H258.493ZM260.185 284.268L266.323 278.04H269.473L263.083 284.268H260.185ZM266.611 291L260.149 284.268H263.083L269.833 291H266.611ZM271.088 287.058V285.15H277.55V287.058H271.088ZM281.675 291V278.04H287.489C288.437 278.04 289.247 278.202 289.919 278.526C290.603 278.85 291.125 279.306 291.485 279.894C291.857 280.482 292.043 281.178 292.043 281.982C292.043 282.774 291.857 283.47 291.485 284.07C291.113 284.67 290.591 285.138 289.919 285.474C289.247 285.798 288.437 285.96 287.489 285.96H283.493V284.124H287.381C288.125 284.124 288.695 283.932 289.091 283.548C289.499 283.164 289.703 282.642 289.703 281.982C289.703 281.334 289.499 280.824 289.091 280.452C288.695 280.08 288.125 279.894 287.381 279.894H284.015V291H281.675ZM295.481 291V278.04H297.821V291H295.481ZM296.597 291V289.146H304.193V291H296.597ZM307.146 291L311.916 278.04H313.932L309.45 291H307.146ZM316.92 291L312.456 278.04H314.58L319.332 291H316.92ZM309.612 285.906H316.704V287.778H309.612V285.906ZM324.523 291V285.546L319.663 278.04H322.489L326.449 284.682H325.189L329.131 278.04H331.723L326.863 285.546V291H324.523ZM335.014 286.446L334.69 277.68H337.192L336.85 286.446H335.014ZM334.654 291V288.408H337.246V291H334.654ZM346.792 291V278.04H349.132V291H346.792ZM347.908 285.798V283.944H355.198V285.798H347.908ZM347.908 279.894V278.04H355.63V279.894H347.908ZM359.279 291V278.04H361.619V291H359.279ZM360.395 291V289.146H368.603V291H360.395ZM360.395 285.24V283.422H367.973V285.24H360.395ZM360.395 279.894V278.04H368.405V279.894H360.395ZM376.841 291.162C375.209 291.162 373.907 290.79 372.935 290.046C371.975 289.29 371.411 288.228 371.243 286.86H373.493C373.601 287.652 373.955 288.27 374.555 288.714C375.155 289.146 375.941 289.362 376.913 289.362C377.717 289.362 378.329 289.218 378.749 288.93C379.181 288.63 379.397 288.216 379.397 287.688C379.397 287.22 379.265 286.842 379.001 286.554C378.737 286.266 378.293 286.032 377.669 285.852L375.329 285.15C374.141 284.79 373.265 284.316 372.701 283.728C372.149 283.14 371.873 282.402 371.873 281.514C371.873 280.77 372.065 280.122 372.449 279.57C372.833 279.018 373.373 278.592 374.069 278.292C374.777 277.992 375.599 277.842 376.535 277.842C377.975 277.842 379.121 278.196 379.973 278.904C380.837 279.6 381.329 280.548 381.449 281.748H379.199C379.067 281.028 378.767 280.5 378.299 280.164C377.831 279.816 377.201 279.642 376.409 279.642C375.713 279.642 375.161 279.78 374.753 280.056C374.345 280.332 374.141 280.71 374.141 281.19C374.141 281.586 374.261 281.922 374.501 282.198C374.753 282.474 375.215 282.714 375.887 282.918L378.263 283.638C379.451 283.986 380.315 284.46 380.855 285.06C381.395 285.66 381.665 286.422 381.665 287.346C381.665 288.57 381.239 289.512 380.387 290.172C379.547 290.832 378.365 291.162 376.841 291.162ZM388.384 291V279.894H384.082V278.04H395.026V279.894H390.724V291H388.384Z" fill="black"/>
<g filter="url(#filter0_d_88_78)">
<path d="M215.276 102.102C211.942 124.882 231.713 138.679 242.362 143.078L267.364 134.049C256.807 107.38 228.008 101.408 215.276 102.102Z" fill="#F6F7FB" stroke="black" stroke-width="3"/>
<path d="M300.1 72.2818C317.168 89.3458 310.582 111.447 304.867 121.548L278.744 130.427C270.299 101.734 289.501 79.3748 300.1 72.2818Z" fill="#F6F7FB" stroke="black" stroke-width="3"/>
<path d="M295.838 97.935C289.726 95.7126 287.272 116.455 286.809 127.104L295.838 125.021C298.385 116.918 301.95 100.157 295.838 97.935Z" fill="#FFCDD6" stroke="black" stroke-width="2"/>
<path d="M235.355 120.089C240.139 114.25 254.017 129.936 260.357 138.509L250.324 142.662C243.341 137.571 230.571 125.928 235.355 120.089Z" fill="#FFCDD6" stroke="black" stroke-width="2"/>
</g>
<g filter="url(#filter1_d_88_78)">
<path d="M393.763 230.585C375.984 261.698 341.907 248.642 327.091 238.224C301.394 227.266 306.951 214.611 309.729 203.499C307.506 194.61 319.451 193.776 326.396 192.387C326.396 196.554 333.064 207.388 351.399 209.055C369.734 210.722 369.224 201.416 366.678 196.554C366.215 195.628 360.844 192.387 343.065 186.831C325.285 181.275 323.155 160.44 324.313 150.717C325.239 139.374 332.786 116.27 355.566 114.603C378.345 112.936 398.393 131.966 405.57 141.689L384.923 159.582C384.878 159.652 384.814 159.706 384.735 159.746L384.923 159.582C385.401 158.837 383.599 156.307 372.928 150.717C357.927 147.939 355.103 154.653 355.566 158.357C356.029 161.366 360.149 167.941 372.928 170.163C385.707 172.385 392.143 175.719 393.763 177.108C401.171 181.97 411.542 199.471 393.763 230.585Z" fill="#F4F5F9" stroke="black" stroke-width="3"/>
<path d="M222.943 157.531C222.948 157.675 222.945 157.726 222.916 157.662C222.822 157.284 222.688 156.751 222.943 157.531C222.903 156.489 222.406 150.587 227.778 148.634C233.889 146.411 290.514 126.41 318.063 116.687C319.915 116.224 324.035 116.27 325.702 120.159C327.369 124.048 333.342 140.763 336.12 148.634C336.351 150.254 335.286 154.051 329.175 156.273L306.256 164.607L327.786 231.279C328.249 233.594 328.064 238.641 323.619 240.308C319.174 241.975 303.247 247.484 295.839 250.031C294.218 250.957 290.144 250.725 286.81 242.391C283.477 234.057 269.216 197.712 262.503 180.581L240.973 188.915C238.427 190.072 232.222 188.637 227.778 173.636C224.491 162.543 223.31 158.661 222.943 157.531Z" fill="#F4F5F9"/>
<path d="M222.916 157.662C223.151 158.189 221.666 150.856 227.778 148.634C233.889 146.411 290.514 126.41 318.063 116.687C319.915 116.224 324.035 116.27 325.702 120.159C327.369 124.048 333.342 140.763 336.12 148.634C336.351 150.254 335.286 154.051 329.175 156.273C323.063 158.496 311.349 162.755 306.256 164.607L327.786 231.279C328.249 233.594 328.064 238.641 323.619 240.308C319.174 241.975 303.247 247.484 295.839 250.031C294.218 250.957 290.144 250.725 286.81 242.391C283.477 234.057 269.216 197.712 262.503 180.581L240.973 188.915C238.427 190.072 232.222 188.637 227.778 173.636C222.222 154.884 222.685 156.736 222.916 157.662Z" stroke="black" stroke-width="3"/>
</g>
<defs>
<filter id="filter0_d_88_78" x="210.402" y="70.3501" width="102.14" height="78.3356" filterUnits="userSpaceOnUse" color-interpolation-filters="sRGB">
<feFlood flood-opacity="0" result="BackgroundImageFix"/>
<feColorMatrix in="SourceAlpha" type="matrix" values="0 0 0 0 0 0 0 0 0 0 0 0 0 0 0 0 0 0 127 0" result="hardAlpha"/>
<feOffset dx="-3" dy="4"/>
<feComposite in2="hardAlpha" operator="out"/>
<feColorMatrix type="matrix" values="0 0 0 0 0 0 0 0 0 0 0 0 0 0 0 0 0 0 0.25 0"/>
<feBlend mode="normal" in2="BackgroundImageFix" result="effect1_dropShadow_88_78"/>
<feBlend mode="normal" in="SourceGraphic" in2="effect1_dropShadow_88_78" result="shape"/>
</filter>
<filter id="filter1_d_88_78" x="217.296" y="113" width="190.305" height="141.902" filterUnits="userSpaceOnUse" color-interpolation-filters="sRGB">
<feFlood flood-opacity="0" result="BackgroundImageFix"/>
<feColorMatrix in="SourceAlpha" type="matrix" values="0 0 0 0 0 0 0 0 0 0 0 0 0 0 0 0 0 0 127 0" result="hardAlpha"/>
<feOffset dx="-4" dy="3"/>
<feComposite in2="hardAlpha" operator="out"/>
<feColorMatrix type="matrix" values="0 0 0 0 0 0 0 0 0 0 0 0 0 0 0 0 0 0 0.25 0"/>
<feBlend mode="normal" in2="BackgroundImageFix" result="effect1_dropShadow_88_78"/>
<feBlend mode="normal" in="SourceGraphic" in2="effect1_dropShadow_88_78" result="shape"/>
</filter>
</defs>
</svg>
